<?xml version="1.0" encoding="utf-8"?>
<!-- Generator: Adobe Illustrator 26.0.2, SVG Export Plug-In . SVG Version: 6.00 Build 0)  -->
<svg version="1.1" id="main" xmlns="http://www.w3.org/2000/svg" xmlns:xlink="http://www.w3.org/1999/xlink" x="0px" y="0px"
	 viewBox="0 0 64 64" style="enable-background:new 0 0 64 64;" xml:space="preserve">
<style type="text/css">
	.st0{fill:none;stroke:#000000;stroke-miterlimit:10;}
	.st1{fill:#E7F0FB;}
	.st2{fill:#1A1A1A;}
	.st3{fill:#1A0B6D;}
</style>
<rect x="-14.9" y="-15.4" class="st0" width="94.5" height="94.5"/>
<path class="st1" d="M52,50.9l-2.3,0.6c-6.5,1.5-13.1,2.5-19.8,3c-2.7,0.2-5.4,0.4-8,0.5H12V5h37.7v27.6c0,2,0.1,4.1,0.3,6.3
	c0.1,1.2,0.3,2.5,0.4,3.8C50.8,45.5,51.3,48.2,52,50.9z"/>
<path class="st2" d="M20.1,27.1c0-1.4,0.8-2.1,1.7-2.1c0.4,0,0.9,0.1,1.2,0.5l-0.3,0.3c-0.2-0.2-0.5-0.3-0.8-0.3
	c-0.6,0-1.1,0.4-1.1,1.6s0.4,1.6,1,1.6c0.3,0,0.5-0.1,0.7-0.2v-1.2h-0.7l-0.1-0.4H23v1.9c-0.4,0.2-0.9,0.4-1.3,0.4
	C20.7,29.2,20.1,28.5,20.1,27.1z"/>
<path class="st2" d="M25.5,28.7h0.9v0.4H24v-0.4h1v-2.2h-0.9V26h1.5L25.5,28.7z M25.2,25.3c-0.2,0-0.4-0.1-0.4-0.3c0,0,0,0,0,0l0,0
	c0-0.2,0.2-0.4,0.3-0.4c0,0,0,0,0,0l0,0c0.2,0,0.4,0.2,0.4,0.4l0,0C25.6,25.2,25.4,25.3,25.2,25.3C25.2,25.3,25.2,25.3,25.2,25.3
	L25.2,25.3L25.2,25.3z"/>
<path class="st2" d="M28.7,29.1h-0.6L27,26h0.6l0.9,2.6l0,0l0.8-2.6h0.6L28.7,29.1z"/>
<path class="st2" d="M31.2,27.8c-0.1,0.5,0.2,0.9,0.7,1h0.2c0.3,0,0.6-0.1,0.8-0.3l0.2,0.4c-0.3,0.2-0.7,0.4-1.1,0.4
	c-0.8,0-1.4-0.6-1.4-1.4c0,0,0,0,0,0l0,0v-0.2c0-0.9,0.5-1.6,1.3-1.6c0.8,0,1.3,0.6,1.3,1.5v0.3L31.2,27.8z M31.2,27.4h1.6
	c0-0.6-0.3-1-0.8-1S31.2,26.7,31.2,27.4z"/>
<path class="st2" d="M34.4,29.1V26h0.5v0.4c0.2-0.3,0.6-0.5,1-0.5c0.6,0,0.9,0.3,0.9,0.9v2.2h-0.5v-1.8c0-0.6-0.1-0.8-0.5-0.8
	c-0.3,0-0.6,0.2-0.8,0.5v2.2L34.4,29.1z"/>
<path class="st2" d="M38.8,28.1c0.3,0,0.6,0.2,0.6,0.4c0,0.3-0.2,0.6-0.4,0.6c0,0-0.1,0-0.2,0c-0.3,0-0.5-0.3-0.5-0.6c0,0,0,0,0,0
	l0,0C38.4,28.3,38.6,28.2,38.8,28.1z"/>
<path class="st2" d="M41.7,28.1c0.3,0,0.5,0.2,0.5,0.5c0,0.3-0.2,0.5-0.5,0.5c-0.3,0-0.5-0.2-0.5-0.5l0,0l0,0
	C41.1,28.4,41.4,28.1,41.7,28.1L41.7,28.1L41.7,28.1L41.7,28.1z"/>
<path class="st2" d="M25.9,35.8h-0.7l-0.4-2.9l0,0l-0.5,2.9h-0.7l-0.5-4h0.5l0.3,3.4l0,0l0.5-2.9h0.6l0.4,2.9l0,0l0.5-3.4h0.5
	L25.9,35.8z"/>
<path class="st2" d="M27.3,35.8v-4.3l0.5-0.1v1.7c0.3-0.3,0.6-0.5,1-0.5c0.6,0,0.9,0.3,0.9,0.9v2.2h-0.5v-2.2c0-0.4-0.2-0.5-0.5-0.5
	c-0.3,0-0.6,0.2-0.8,0.5v2.2H27.3z"/>
<path class="st2" d="M31.4,34.4c0,0.7,0.4,1,0.9,1c0.3,0,0.6-0.1,0.8-0.3l0.2,0.3c-0.3,0.2-0.7,0.4-1.1,0.4c-0.8,0-1.4-0.6-1.4-1.4
	c0,0,0,0,0,0l0,0v-0.2c-0.1-0.8,0.5-1.5,1.2-1.6c0,0,0,0,0,0h0.1c0.8,0,1.3,0.6,1.3,1.5v0.3L31.4,34.4z M31.4,34h1.6
	c0-0.6-0.3-1-0.8-1S31.4,33.3,31.4,34z"/>
<path class="st2" d="M34.6,35.8v-3.1h0.5v0.4c0.2-0.3,0.6-0.5,1-0.5c0.4-0.1,0.8,0.3,0.9,0.7c0,0,0,0,0,0l0,0c0,0.1,0,0.1,0,0.2v2.2
	h-0.5v-1.9c0-0.6-0.1-0.8-0.5-0.8c-0.3,0-0.6,0.2-0.8,0.5v2.2H34.6z"/>
<path class="st2" d="M39.2,34.8c0.3,0,0.5,0.2,0.5,0.5c0,0.3-0.2,0.5-0.5,0.5c-0.3,0-0.5-0.2-0.5-0.5c0,0,0,0,0,0l0,0
	C38.6,35,38.9,34.8,39.2,34.8z"/>
<path class="st2" d="M42,34.8c0.3,0,0.5,0.2,0.5,0.5c0,0.3-0.2,0.5-0.5,0.5c-0.3,0-0.5-0.2-0.5-0.5c0,0,0,0,0,0l0,0
	C41.5,35,41.7,34.8,42,34.8z"/>
<path class="st2" d="M25.1,38.8v3.5h-0.5v-3.5h-1.2v-0.5h3.1l-0.1,0.5H25.1z"/>
<path class="st2" d="M27.3,42.4v-4.3l0.5-0.1v1.7c0.2-0.3,0.6-0.5,1-0.5c0.4-0.1,0.8,0.3,0.9,0.7c0,0,0,0,0,0l0,0c0,0.1,0,0.1,0,0.2
	v2.2h-0.5v-2.2c0-0.4-0.2-0.5-0.5-0.5c-0.3,0-0.6,0.2-0.8,0.5v2.2H27.3z"/>
<path class="st2" d="M31.4,41c0,0.7,0.4,1,0.9,1c0.3,0,0.6-0.1,0.8-0.3l0.2,0.4c-0.3,0.2-0.7,0.4-1.1,0.4c-0.8,0-1.4-0.6-1.4-1.4
	c0,0,0,0,0,0l0,0v-0.2c0-0.9,0.5-1.6,1.3-1.6c0.8,0,1.3,0.6,1.3,1.5V41H31.4z M31.4,40.6H33c0-0.6-0.3-1-0.8-1S31.4,40,31.4,40.6z"
	/>
<path class="st2" d="M34.6,42.4v-3.1h0.5v0.4c0.2-0.3,0.6-0.5,1-0.5c0.6,0,0.9,0.3,0.9,0.9v2.2h-0.5v-1.9c0-0.6-0.1-0.8-0.5-0.8
	c-0.3,0-0.6,0.2-0.8,0.5v2.2H34.6z"/>
<path class="st2" d="M39.1,41.4c0.3,0,0.5,0.2,0.5,0.5c0,0.3-0.2,0.5-0.5,0.5c-0.3,0-0.5-0.2-0.5-0.5c0,0,0,0,0,0l0,0
	C38.5,41.6,38.8,41.4,39.1,41.4L39.1,41.4L39.1,41.4L39.1,41.4z"/>
<path class="st2" d="M41.9,41.4c0.3,0,0.5,0.2,0.5,0.5c0,0.3-0.2,0.5-0.5,0.5c-0.3,0-0.5-0.2-0.5-0.5c0,0,0,0,0,0l0,0
	C41.4,41.6,41.6,41.4,41.9,41.4L41.9,41.4L41.9,41.4L41.9,41.4z"/>
<path class="st3" d="M19.2,12.2v1.2h1.6v0.8h-1.6v1.8h-1.1v-4.5h3L21,12.2H19.2z"/>
<path class="st3" d="M22.6,14.5c0,0.4,0.3,0.8,0.7,0.8c0,0,0,0,0,0h0.1c0.3,0,0.6-0.1,0.9-0.3l0.4,0.6c-0.4,0.3-0.9,0.5-1.4,0.5
	c-0.9,0.1-1.7-0.6-1.8-1.5c0-0.1,0-0.2,0-0.3c-0.1-0.9,0.6-1.7,1.5-1.8h0.2c0.9,0,1.6,0.6,1.6,1.5c0,0,0,0,0,0l0,0
	c0,0.1,0,0.2,0,0.3c0,0.1,0,0.2,0,0.4L22.6,14.5z M22.6,13.9h1.2c0-0.5-0.2-0.8-0.6-0.8S22.6,13.3,22.6,13.9L22.6,13.9z"/>
<path class="st3" d="M28.6,14.9c0,0.3,0.1,0.4,0.2,0.4L28.6,16c-0.3,0-0.7-0.2-0.9-0.5C27.5,15.8,27,16,26.6,16
	c-0.6,0-1.1-0.4-1.1-1c0,0,0,0,0,0l0,0c0-0.7,0.6-1.2,1.7-1.2h0.5v-0.1c0-0.4-0.3-0.5-0.7-0.5c-0.3,0-0.6,0.1-0.9,0.2l-0.2-0.7
	c0.4-0.2,0.9-0.2,1.3-0.3c1,0,1.5,0.4,1.5,1.2L28.6,14.9z M27.6,14.9v-0.5h-0.3c-0.6,0-0.8,0.2-0.8,0.5c0,0.2,0.2,0.4,0.4,0.4l0,0
	C27.2,15.3,27.5,15.1,27.6,14.9L27.6,14.9z"/>
<path class="st3" d="M32.6,15.7c-0.3,0.2-0.7,0.3-1.1,0.3c-0.6,0.1-1.2-0.4-1.3-1c0-0.1,0-0.2,0-0.3v-1.6h-0.7v-0.7h0.7v-0.8l1-0.1
	v0.9h1.1l-0.1,0.7h-1v1.5c0,0.3,0.1,0.5,0.5,0.5c0.2,0,0.4-0.1,0.6-0.1L32.6,15.7z"/>
<path class="st3" d="M34.4,12.5v2.3c0,0.3,0.1,0.4,0.3,0.4c0.2,0,0.5-0.2,0.6-0.4v-2.4h1v3.4h-0.9v-0.4c-0.2,0.3-0.6,0.5-1,0.5
	c-0.5,0-1-0.4-1-0.9c0-0.1,0-0.1,0-0.2v-2.5H34.4z"/>
<path class="st3" d="M39.9,15.9h-2.6v-0.7H38v-2h-0.7v-0.7h1.6l0.1,0.6c0.1-0.4,0.5-0.7,0.9-0.7c0.1,0,0.3,0,0.4,0.1l-0.2,1
	c-0.1,0-0.3,0-0.4,0c-0.4,0-0.7,0.3-0.8,0.8v1h0.9L39.9,15.9z"/>
<path class="st3" d="M42,14.5c0,0.4,0.3,0.8,0.7,0.8c0,0,0,0,0,0h0.1c0.3,0,0.6-0.1,0.9-0.3l0.4,0.6c-0.4,0.3-0.9,0.5-1.4,0.5
	c-0.9,0-1.7-0.6-1.8-1.5c0-0.1,0-0.2,0-0.3c-0.1-0.9,0.6-1.7,1.5-1.8h0.2c0.9,0,1.6,0.6,1.6,1.5c0,0,0,0,0,0l0,0c0,0.1,0,0.2,0,0.3
	c0,0.1,0,0.2,0,0.4L42,14.5z M42,13.9h1.2c0-0.5-0.2-0.8-0.6-0.8S42.1,13.3,42,13.9L42,13.9z"/>
</svg>
