<?xml version="1.0" encoding="utf-8"?>
<!-- Generator: Adobe Illustrator 26.0.2, SVG Export Plug-In . SVG Version: 6.00 Build 0)  -->
<svg version="1.1" id="Layer_1" xmlns="http://www.w3.org/2000/svg" xmlns:xlink="http://www.w3.org/1999/xlink" x="0px" y="0px"
	 viewBox="0 0 1345 820" style="enable-background:new 0 0 1345 820;" xml:space="preserve">
<style type="text/css">
	.st0{fill:url(#SVGID_1_);}
	.st1{fill:url(#SVGID_00000067922904620930760590000017245794556271026318_);}
</style>
<linearGradient id="SVGID_1_" gradientUnits="userSpaceOnUse" x1="39.919" y1="727.4728" x2="1452.8357" y2="18.3737">
	<stop  offset="0.43" style="stop-color:#200B7A"/>
	<stop  offset="0.49" style="stop-color:#250B77"/>
	<stop  offset="0.57" style="stop-color:#350C6E"/>
	<stop  offset="0.65" style="stop-color:#4F0E5F"/>
	<stop  offset="0.73" style="stop-color:#730F4A"/>
	<stop  offset="0.83" style="stop-color:#A1122F"/>
	<stop  offset="0.92" style="stop-color:#D9150F"/>
	<stop  offset="0.92" style="stop-color:#DA150E"/>
	<stop  offset="0.97" style="stop-color:#DC150E"/>
	<stop  offset="0.99" style="stop-color:#E3160D"/>
	<stop  offset="1" style="stop-color:#E9160D"/>
</linearGradient>
<rect class="st0" width="1345" height="820"/>
<linearGradient id="SVGID_00000169547265343588899990000015758560817876022663_" gradientUnits="userSpaceOnUse" x1="5882.3164" y1="2999.967" x2="6183.2383" y2="2499.4617" gradientTransform="matrix(-0.1045 0.9945 0.9945 0.1045 -944.64 -6104.2988)">
	<stop  offset="0" style="stop-color:#DA150E"/>
	<stop  offset="0" style="stop-color:#DC150E"/>
	<stop  offset="0" style="stop-color:#E5160D"/>
	<stop  offset="0" style="stop-color:#E9160D"/>
	<stop  offset="0.24" style="stop-color:#E6160E"/>
	<stop  offset="0.38" style="stop-color:#DE1513"/>
	<stop  offset="0.51" style="stop-color:#CF151B"/>
	<stop  offset="0.62" style="stop-color:#BB1326"/>
	<stop  offset="0.72" style="stop-color:#A01234"/>
	<stop  offset="0.81" style="stop-color:#7F1046"/>
	<stop  offset="0.9" style="stop-color:#590E5B"/>
	<stop  offset="0.98" style="stop-color:#2D0C73"/>
	<stop  offset="1" style="stop-color:#200B7A"/>
</linearGradient>
<path style="fill:url(#SVGID_00000169547265343588899990000015758560817876022663_);" d="M1266.4,0h-36.4
	c42.2,41.6,80.9,85.1,114.9,127.8V88.1C1320.7,58.6,1294.4,28.9,1266.4,0z M1206.3,22.6c-9.8-7.9-19.5-15.5-29.3-22.6H914
	c0.2,0.4,0.3,0.8,0.4,1.2c17.8,66.5,85.6,157.5,180,233.9c74.3,60,188.1,111.9,250.6,105.6V181
	C1308.4,122.8,1254.8,61.8,1206.3,22.6z M1293,214.8c-14.3,32.5-98.3,10.3-148.7-23.5c-67.9-45.5-111.3-108.9-96.9-141.5
	s80.8-22,148.7,23.6C1245.9,106.9,1307.2,182.3,1293,214.8z M1049.4,274.5L1049.4,274.5c-101.1-63.2-183-150.3-224.6-239
	c-5.5-11.6-10.3-23.4-14.5-35.5h-25.2c5.3,17.2,11.9,34,19.6,50.2c44.5,94.7,127.6,183.5,234.2,250.1
	C1087.6,330.7,1227.5,407,1345,441V411C1251.7,383.2,1135.3,328.2,1049.4,274.5z M854.1,231C757.6,141,687.9,60.4,653.1,0h-27.9
	c40.2,80.6,132.9,177.8,214.9,254.2C968.7,374.2,1162,478.4,1345,528.4v-29.6C1166.5,449.2,979,347.7,854.1,231z M1343.8,0H1308
	c4.8,5.1,9.7,10.3,14.7,15.6c7.5,8,15,16.1,22.3,24.3V1.3C1344.6,0.8,1344.2,0.4,1343.8,0z"/>
</svg>
