<svg id="main" xmlns="http://www.w3.org/2000/svg" xmlns:xlink="http://www.w3.org/1999/xlink" viewBox="0 0 64 64"><defs><linearGradient id="linear-gradient" x1="23.14" y1="1023.81" x2="40.18" y2="1052.16" gradientTransform="translate(0 -1014)" gradientUnits="userSpaceOnUse"><stop offset="0" stop-color="#da150e"/><stop offset="0" stop-color="#dc150e"/><stop offset="0" stop-color="#e5160d"/><stop offset="0" stop-color="#e9160d"/><stop offset="0.24" stop-color="#e6160e"/><stop offset="0.38" stop-color="#de1513"/><stop offset="0.51" stop-color="#cf151b"/><stop offset="0.62" stop-color="#bb1326"/><stop offset="0.72" stop-color="#a01234"/><stop offset="0.81" stop-color="#7f1046"/><stop offset="0.9" stop-color="#590e5b"/><stop offset="0.98" stop-color="#2d0c73"/><stop offset="1" stop-color="#200b7a"/></linearGradient></defs><rect x="-18" y="-41" width="116" height="125" style="fill:none"/><rect x="11.82" y="7" width="40.36" height="50" style="fill:#fff"/><path d="M46.6,16.13c-1.64-.15-7.08,4.51-11,10.2a52.07,52.07,0,0,0-3.47,5.55A37.1,37.1,0,0,0,28,25c-3.93-5.5-8.94-9.31-11-8.39-3,1.43-1,12.7,1.31,18.25a33.7,33.7,0,0,0,5.8,9.84c2,2.12,3.67,3.17,5.12,3.17a3.21,3.21,0,0,0,1.18-.26c2-.92,2.11-4.24,2.11-7a3.75,3.75,0,0,0,1.45,2c1.17.67,2.76.37,4.49-.91a16.42,16.42,0,0,0,5.22-7.41c1-2.53,4.24-13,1.43-14.29A1.37,1.37,0,0,0,44.1,20c-2.32.92-8.26,6.84-11.3,13.89-.15-.42-.28-.84-.42-1.2a46.38,46.38,0,0,1,3.73-6c4.23-6,9.29-10,10.42-9.91,1.6.16,1.32,4.12,1.18,6v.34a40.06,40.06,0,0,1-5,16.66c-2.76,4.59-5.29,7.41-6.6,7.41v.63c2.11,0,5.06-4.23,7.19-7.68A40.73,40.73,0,0,0,48.4,23.23V22.9C48.58,20.45,48.93,16.39,46.6,16.13ZM30.17,47c-1.44.63-3.3-.29-5.51-2.75A33.13,33.13,0,0,1,19,34.62c-2.57-6.29-3.89-16.39-1.65-17.43a1.06,1.06,0,0,1,.4-.08c1.68,0,5.83,2.87,9.69,8.26a35.66,35.66,0,0,1,4.1,6.91l.16.39c-.12.22-.21.44-.32.65l-.08.22c-1.84-5.22-7.58-11.93-10.75-13.39A2,2,0,0,0,19,20a2.33,2.33,0,0,0-1.19,1.47c-1.06,2.68.2,8.4,2,12.06a26.3,26.3,0,0,0,3.67,5.76C25.62,41.65,27.58,43,28.83,43a1.15,1.15,0,0,0,.57-.12,1,1,0,0,0,.5-.33c.49-.61.65-1.84.49-3.68a4.07,4.07,0,0,0,.38-.91q.11-.33.18-.66c.06-.37.15-.91.32-1.57.15.52.26.92.38,1.43l.26.92v1.64C31.92,42.31,32,46.19,30.17,47ZM21.9,32.72c-1.42-2.55-2.34-6.82-.91-7.48s4.65,2.53,6,5.11c1.92,3.47,2.33,6.83.92,7.48S23.84,36.23,21.9,32.72ZM30.23,37a17.5,17.5,0,0,0-2.34-7.06c-1.92-3.45-6.16-7.68-8-6.81s-.64,6.57,1.24,10c2,3.67,4.72,6.35,6.67,6.85h0a3,3,0,0,0,.59.06,1.7,1.7,0,0,0,.63-.1,2.52,2.52,0,0,0,.76-.4c.11,2.32-.49,2.63-.49,2.63h-.14c-.47.25-2.17-.15-5.22-3.44a26.37,26.37,0,0,1-3.55-5.5c-1.65-3.46-2.85-9-1.92-11.52a1.56,1.56,0,0,1,.81-1,1.45,1.45,0,0,1,1.06.15c3.07,1.39,9,8.47,10.58,13.46h0l.1.32A13.35,13.35,0,0,0,30.26,37Zm2.39.18a1.15,1.15,0,0,1,.08-.49,1.54,1.54,0,0,0,.09-.52l.25.73a3.4,3.4,0,0,0,1.72,2,2.84,2.84,0,0,0,2.3-.2c1.52-.69,3.48-2.9,5-5.83s2.59-7.92,1.07-8.67-5,3-6.49,5.93c-1.79,3.44-2.4,6.77-1.62,8.14H35a2.79,2.79,0,0,1-1.22-1.58c-.18-.49-.31-.85-.43-1.25L33.17,35h0c2.89-7.2,8.9-13.31,11.23-14.22a.73.73,0,0,1,.48-.1c1.74.77.08,8.6-1.78,13.43a15.82,15.82,0,0,1-5,7.16c-1.47,1.05-2.82,1.36-3.67.83s-1.3-2.1-1.61-3.31l-.2-.73a3.17,3.17,0,0,1,.1-.92Zm5.23-6.87c.64-1.54,2.24-3.52,3.07-3.18s.54,2.84-.11,4.39c-.88,2.12-2.25,3.51-3.07,3.17s-.77-2.28.11-4.38Zm-5.69,3.93.18.58a.38.38,0,0,1,0,.15A10.69,10.69,0,0,0,32,36.3c-.09-.4-.21-.78-.36-1.33l-.13-.41c.12-.3.24-.61.39-.92h0c.08.2.19.39.26.59Z" style="fill:url(#linear-gradient)"/></svg>