<?xml version="1.0" encoding="utf-8"?>
<!-- Generator: Adobe Illustrator 26.0.2, SVG Export Plug-In . SVG Version: 6.00 Build 0)  -->
<svg version="1.1" id="Layer_1" xmlns="http://www.w3.org/2000/svg" xmlns:xlink="http://www.w3.org/1999/xlink" x="0px" y="0px"
	 viewBox="0 0 1000 400" style="enable-background:new 0 0 1000 400;" xml:space="preserve">
<style type="text/css">
	.st0{fill:#FFFFFF;}
</style>
<g>
	<g>
		<g>
			<path class="st0" d="M517.6,133.8c-8.3,0-11.3,6.9-11.3,12.8v4l-6.9-5.4c-10.4-8.1-17.1-11.4-22.6-11.4H454
				c-5.3-0.1-10.3,1.8-14.2,5.4l-17.1,13.3c-4.7,3.9-7.8,13.1-7.8,23.8v35.1c0,10,0.7,15.3,7.1,21.2l14.6,13
				c4.5,4.4,10.7,6.8,17.1,6.6h27.6c5.1,0,11.3-3.7,18.9-11.1l6-5.9v33.2c0.2,3.7-1.1,7.3-3.6,10.1l-5.9,5.3
				c-3.2,3.3-7.6,5.2-12.2,5.4h-43.1c-10.5,0-15.4,3.5-15.4,10.9s5,10.9,15.4,10.9l39,0.2c13,0,18.7-1.3,28.9-9.7l7.8-6.6
				c9.3-7.7,11.3-11.4,11.3-32.9V149.2C528.4,141.2,527.1,133.8,517.6,133.8z M503.7,209.4L485.6,224c-4.8,3.9-8.1,6.2-11.2,6.2
				h-17.1c-2.7,0.2-5.2-0.7-7.3-2.3l-9.9-7.7c-3.1-2.4-3.3-7.5-3.3-12.6v-29.9c0-5,0.4-10.1,3.3-12.5l9.7-7.7
				c2.1-1.6,4.7-2.4,7.3-2.3h17.4c3.1,0,6.4,2.4,11.2,6.2l18.1,14.7c1.9,2.3,2.8,5.2,2.6,8.2v16.8
				C506.6,204.1,505.7,207.1,503.7,209.4z"/>
		</g>
		<g>
			<path class="st0" d="M627.9,262.1c-3.7,0-6.9-3.8-9.2-7.2l-13.3-19.6l-13.2,19.6c-2.4,3.3-5.5,7.2-9.3,7.2h-9
				c-6.6,0-8.4-5.3-10.4-11.4c-0.3-0.9-12.2-36.2-12.3-36.4V214l-2.4-64.2c-0.2-6.4,0.9-10.7,3.3-13.3c2-1.9,4.7-2.9,7.5-2.7
				c9.3,0,10.8,8.1,11.1,15.9l2.4,59.6l7.8,22.9l13.6-22.8v-21.3c0-7.2,1.3-15.4,11.1-15.4s11.1,8.3,11.1,15.4v21.4l13.6,22.8
				l7.8-22.9l2.4-59.6c0.2-7.9,1.8-15.9,11.1-15.9c2.8-0.2,5.5,0.8,7.5,2.7c2.4,2.5,3.3,6.6,3.3,13.3L660,214
				c0,0-12.1,35.9-12.4,36.9c-2,6.1-3.7,11.4-10.4,11.4L627.9,262.1z"/>
		</g>
		<g>
			<path class="st0" d="M780.9,214.1c13.6,0,15.5-3.7,15.5-16.6V179c0-13.4-1.9-21.6-12-29.5l-9.5-7.5c-8.9-7-14.2-8.2-25.5-8.2
				h-21.5c-8.9,0-14.4,0-25.5,9.4l-8.3,7c-9.6,8-11.3,15.2-11.3,27.2v44.5c0,12.1,2.5,17.2,11.8,25.4l9.9,8.7
				c7.3,6.1,10.8,6.1,20.6,6.1h55.7c10.5,0,15.5-3.5,15.5-10.9s-4.9-10.9-15.5-10.9h-50.3c-7.3,0-12.5-0.7-16.1-4.5l-5.8-6.2
				c-2-1.9-3.3-4.4-3.6-7.2v-8.3L780.9,214.1L780.9,214.1z M704.6,192.2v-17c0-6.8,1.8-8.7,5.1-11.1l8.1-5.8
				c3.7-2.3,8.1-3.3,12.4-2.8h19.9c4.1-0.5,8.3,0.6,11.7,3l9,7.7c3.3,2.9,3.3,6.6,3.3,10.5v15.5L704.6,192.2L704.6,192.2z"/>
		</g>
		<g>
			<path class="st0" d="M919.2,262.1c-9.5,0-10.9-8.6-11.1-15l-2.4-71.2c-0.5-13.2-1.4-20.4-16.6-20.4h-7.8c-2.7,0-5.4,0.8-7.7,2.3
				l-35.1,21.6v67.5c0,7.1-1.3,15.2-11.1,15.2s-11.1-8.2-11.1-15.2v-96.7c0-8.3,0.9-16.6,11.1-16.6c10.2,0,11.1,7.8,11.1,16.2v4.2
				l1.2-0.6l18.9-12.2c6.4-4,12.7-7.6,19.9-7.6h17.4c7.9-0.2,15.6,2.7,21.3,8.3c9.5,8.1,9.9,16.9,10.2,28l2.6,75.4
				c0,4.3,0,10.5-3.3,13.9C924.8,261.1,922,262.2,919.2,262.1z"/>
		</g>
	</g>
	<path class="st0" d="M382.3,40.9c-16.5-1.5-71.1,45.3-111,102.3c-12.8,17.8-24.4,36.4-34.8,55.7c-5.7-13.1-16.2-34.3-41.2-68.9
		c-39.4-54.9-89.8-93.4-109.9-84.1c-30.6,14.2-9.7,127.2,13.2,183c10.8,26.4,28.6,65.2,58.3,98.1c19.4,21.6,36.3,32.2,51.2,32.2
		c4.3,0,8.5-0.9,12.3-2.7c20.1-9,21.4-42.4,21.1-70.4c3.1,8.3,7.5,15.9,14.7,20.1c11.6,6.9,27.6,3.7,45-8.9
		c21.2-15.4,39.9-41.9,52.5-74.7c9.7-25.4,42.8-130.6,14.2-143.4c-3.4-1.2-7.1-0.9-10.3,0.8c-23.4,9.3-82.7,68.6-113.4,139.3
		c-1.5-4.3-2.7-8.4-4.2-12.2c10.8-21,23.2-41.2,37.1-60.4c42.2-60.2,93.1-100.6,104.6-99.3c16,1.5,13.1,41.3,11.7,60.5l-0.2,3.4
		c-4.1,57.9-23.8,123.5-50.3,167.1c-28.1,46.2-52.8,73.8-66.3,73.8v6.8c21,0,50.8-41.9,72.2-77.1c27-44.5,47.1-111.3,51.4-170.2
		l0.2-3.3C402.1,84.1,405.1,43.1,382.3,40.9z M217.6,350.3c-14.4,6.4-33-3-55.5-27.9c-28.9-32.1-46.4-70.4-57-96.1
		C79.2,163.1,66.2,62.3,88.5,52c1.3-0.6,2.7-0.8,4.1-0.8c16.8,0,58.5,28.8,97.2,82.7c25.4,35.4,35.6,56.4,41.1,69.1
		c0.5,1.3,1,2.7,1.6,4c-1.1,2.2-2.1,4.4-3.1,6.6c-0.4,0.7-0.6,1.4-0.9,2.1c-18.5-52.4-76-120.1-107.8-134.3
		c-6.5-2.9-11.8-3.5-15.8-1.7c-5.7,2.8-10,7.8-11.9,13.9c-10.2,26.9,2,84.3,19.7,121c9.1,18.8,24,43.9,36.9,57.8
		c22.3,24,41.9,37.4,54.4,37.4c2,0,4-0.4,5.8-1.2c2-0.6,3.7-1.7,4.9-3.4c5-6.1,6.6-18.6,5-37.2c1.6-2.8,2.9-5.7,3.8-8.8
		c0.5-1.9,0.9-3.8,1.1-5.7c0.7-3.8,1.6-9.3,3.3-15.8c1.5,5.2,2.7,9.2,3.8,14.4c0,0,0.9,3.7,2.6,9.1v16.5
		C235,303.4,235.8,342.3,217.6,350.3z M134.8,207.4c-14.1-25.6-23.4-68.4-9.3-75s46.1,25.3,60.4,51.2c19.3,34.9,23.4,68.5,9.3,75
		C181.1,265.1,154.1,242.1,134.8,207.4z M218.3,249.9c-1-18.9-9-44.5-23.5-70.6c-19.1-34.6-61.7-77-80.6-68.3s-6.5,65.9,12.4,100
		c20.4,36.9,47.4,63.7,67,68.8v0.4c1.9,0.4,3.9,0.6,5.8,0.5c2.2,0.1,4.3-0.3,6.4-1c2.7-0.8,5.3-2.2,7.5-4c0.9,23.3-5,26.2-4.8,26.2
		h-0.8l-0.6,0.4c-4.7,2.5-21.7-1.5-52.4-34.5c-12.4-13.4-27.2-38.5-35.8-56.2C102.1,176.9,90,120.9,99.4,96c1.2-4.3,4.2-8,8.1-10.1
		c2.1-0.9,5.7-0.3,10.1,1.7c30.8,13.8,89.8,84.4,105.6,134.9h0.2l0.9,3.1c-2.7,7.9-4.7,15.9-6.1,24.1L218.3,249.9z M242.3,251.7
		c0.4-1.6,0.7-3.3,0.9-5s0.5-3.2,0.9-5.1c0.7,2.2,1.5,4.5,2.6,7.2c4.1,11.3,11.4,18.3,16.5,20c7.6,2.8,16,2,23-2
		c15.4-6.9,34.9-29,50.3-58.5c15.6-30.1,25.9-79.4,11-86.9c-15-7.6-49.7,29.8-65,59.5c-17.9,34.6-24.1,67.8-16.2,81.6l-0.8-0.2
		c-3-1-9-6.7-12.2-15.8c-1.8-5-3-8.6-4.3-12.7l-1.4-4.2c0-0.1,0.1-0.2,0.1-0.3c29-72.2,89.3-133.4,112.5-142.7
		c1.5-0.8,3.2-1.1,4.9-0.9c17.4,7.8,0.8,86.3-17.8,134.8c-12,31.2-30.2,57.3-50.1,71.7c-14.7,10.8-28.3,13.8-37.3,8.5
		c-9.6-5.7-13.5-20.8-16.6-32.9c-0.7-2.7-1.3-5.1-1.9-7.3C241.4,257.5,241.7,254.5,242.3,251.7L242.3,251.7z M294.8,182.7
		c6.4-15.4,22.5-35.2,30.7-31.9s5.4,28.5-1,44.1c-8.8,21-22.5,35.2-30.7,31.9s-7.7-23.2,1-44.2V182.7z M237.7,222.3l1.9,5.8l0.5,1.5
		c-1.5,4.5-2.6,9.1-3.4,13.7c-1-3.8-2.2-7.8-3.8-13.2l-1.2-4.2c1.1-3,2.4-6.2,3.8-9.4v-0.1L237.7,222.3z"/>
</g>
</svg>
