<svg id="main" xmlns="http://www.w3.org/2000/svg" xmlns:xlink="http://www.w3.org/1999/xlink" viewBox="0 0 64 64"><defs><style>.cls-1{fill:url(#linear-gradient);}.cls-2{fill:#18067a;}.cls-3{fill:url(#linear-gradient-2);}</style><linearGradient id="linear-gradient" x1="15.58" y1="52.51" x2="45.82" y2="10.99" gradientUnits="userSpaceOnUse"><stop offset="0.43" stop-color="#e7f0fb"/><stop offset="0.55" stop-color="#ebedf7"/><stop offset="0.92" stop-color="#f4e7ec"/><stop offset="0.99" stop-color="#f4e7ec"/><stop offset="1" stop-color="#f4e7ec"/></linearGradient><linearGradient id="linear-gradient-2" x1="25.62" y1="9.47" x2="37.87" y2="29.85" gradientUnits="userSpaceOnUse"><stop offset="0" stop-color="#fff"/><stop offset="0" stop-color="#fffdfd"/><stop offset="0" stop-color="#fef5f4"/><stop offset="0" stop-color="#fde7e6"/><stop offset="0" stop-color="#fbd4d2"/><stop offset="0" stop-color="#f9bbb8"/><stop offset="0" stop-color="#f69c98"/><stop offset="0" stop-color="#f27772"/><stop offset="0" stop-color="#ee4d46"/><stop offset="0" stop-color="#ea1e15"/><stop offset="0" stop-color="#e9160d"/><stop offset="0.24" stop-color="#e6160e"/><stop offset="0.38" stop-color="#de1513"/><stop offset="0.51" stop-color="#cf151b"/><stop offset="0.62" stop-color="#bb1326"/><stop offset="0.72" stop-color="#a01234"/><stop offset="0.81" stop-color="#7f1046"/><stop offset="0.9" stop-color="#590e5b"/><stop offset="0.98" stop-color="#2d0c73"/><stop offset="1" stop-color="#200b7a"/></linearGradient></defs><path class="cls-1" d="M52.06,52.81l-2.29.57a142.77,142.77,0,0,1-19.84,3q-4.11.36-8,.49H12V7.1H49.77V34.53c0,2,.09,4.11.29,6.32.12,1.24.26,2.51.44,3.79A76,76,0,0,0,52.06,52.81Z"/><path class="cls-2" d="M21.33,50c-.47,0-.7-.16-.7-.49s.23-.5.7-.5h2a.78.78,0,0,0,.55-.24l.27-.24a.68.68,0,0,0,.17-.46V46.56l-.28.27a1.41,1.41,0,0,1-.85.5H21.89a1.09,1.09,0,0,1-.78-.31l-.66-.59a1.07,1.07,0,0,1-.33-1V43.88a1.41,1.41,0,0,1,.36-1.07l.77-.6A.92.92,0,0,1,21.9,42h1a1.92,1.92,0,0,1,1,.52l.32.24v-.18a.52.52,0,0,1,.51-.58c.43,0,.49.34.49.7v5.11c0,1-.09,1.14-.51,1.5l-.36.29a1.65,1.65,0,0,1-1.3.44ZM22,43a.52.52,0,0,0-.33.1l-.44.35c-.13.11-.14.34-.14.57v1.35c0,.23,0,.46.14.57l.44.35a.52.52,0,0,0,.33.1h.78a.88.88,0,0,0,.5-.28l.82-.66a.5.5,0,0,0,.13-.37v-.77a.54.54,0,0,0-.13-.37l-.82-.66a.88.88,0,0,0-.5-.28Z"/><path class="cls-2" d="M21.33,49.91c-.54,0-.61-.21-.61-.4s.07-.41.61-.41h2a.91.91,0,0,0,.61-.27l.27-.24a.74.74,0,0,0,.19-.52V46.35l-.42.42a1.35,1.35,0,0,1-.79.47H21.89a1,1,0,0,1-.72-.28l-.67-.59c-.26-.24-.29-.46-.29-.9V43.88a1.39,1.39,0,0,1,.32-1l.78-.6a.82.82,0,0,1,.59-.22h1a1.82,1.82,0,0,1,1,.5l.45.35v-.36c0-.24.11-.49.43-.49s.4.16.4.61v5.11c0,.95-.07,1.09-.48,1.43l-.35.29a1.55,1.55,0,0,1-1.25.42Zm.71-7a.53.53,0,0,0-.38.13l-.44.35A.8.8,0,0,0,21,44v1.35a.82.82,0,0,0,.18.64l.44.35a.6.6,0,0,0,.38.12h.78a1,1,0,0,0,.56-.3l.82-.66a.62.62,0,0,0,.15-.44v-.77a.58.58,0,0,0-.15-.43l-.82-.67a1,1,0,0,0-.56-.3Z"/><path class="cls-2" d="M29.92,47.78c-.17,0-.31-.18-.42-.33l-.6-.89-.6.89c-.11.15-.25.33-.42.33h-.41c-.3,0-.38-.24-.47-.52,0,0-.55-1.64-.56-1.66h0l-.11-2.91a.78.78,0,0,1,.15-.59.42.42,0,0,1,.34-.13c.42,0,.49.37.5.73l.11,2.7.35,1,.62-1v-1c0-.33.05-.7.5-.7s.5.37.5.7v1l.61,1,.36-1,.11-2.7c0-.36.08-.73.5-.73a.42.42,0,0,1,.34.13.78.78,0,0,1,.15.59l-.11,2.91s-.55,1.63-.56,1.67c-.09.28-.17.52-.47.52Z"/><path class="cls-2" d="M29.92,47.69c-.13,0-.26-.16-.35-.29l-.67-1-.67,1c-.09.13-.22.29-.35.29h-.41c-.23,0-.3-.16-.39-.46,0,0-.56-1.66-.56-1.66l-.11-2.89a.68.68,0,0,1,.13-.53.34.34,0,0,1,.28-.1c.28,0,.4.18.41.64l.11,2.72.42,1.22.72-1.21v-1c0-.44.12-.62.42-.62s.41.18.41.62v1L30,46.63l.42-1.22.11-2.72c0-.46.13-.64.42-.64a.36.36,0,0,1,.28.1.77.77,0,0,1,.13.53l-.11,2.89s-.55,1.62-.56,1.66c-.1.3-.16.46-.39.46Z"/><path class="cls-2" d="M34.45,47.78a1.12,1.12,0,0,1-.94-.28l-.45-.39A1.27,1.27,0,0,1,32.53,46v-2A1.32,1.32,0,0,1,33,42.71l.37-.32A1.43,1.43,0,0,1,34.57,42h1a1.52,1.52,0,0,1,1.16.38l.43.34A1.42,1.42,0,0,1,37.67,44v.84c0,.59-.08.75-.7.75H33.53V46a.51.51,0,0,0,.17.32l.26.28a.91.91,0,0,0,.73.21H37c.48,0,.7.16.7.49s-.23.5-.7.5Zm2.22-3.17v-.7a.57.57,0,0,0-.14-.47l-.41-.35a.76.76,0,0,0-.53-.14h-.9a.94.94,0,0,0-.56.12l-.36.27a.49.49,0,0,0-.24.5v.77Z"/><path class="cls-2" d="M34.45,47.69a1.06,1.06,0,0,1-.88-.25l-.45-.4A1.17,1.17,0,0,1,32.61,46v-2a1.27,1.27,0,0,1,.48-1.17l.38-.31a1.33,1.33,0,0,1,1.1-.41h1a1.47,1.47,0,0,1,1.11.35l.43.34A1.36,1.36,0,0,1,37.59,44v.84c0,.55-.06.66-.62.66H33.45V46a.58.58,0,0,0,.19.38l.26.28a1,1,0,0,0,.79.24H37c.54,0,.62.2.62.4s-.07.41-.62.41Zm.24-4.83a1,1,0,0,0-.61.14l-.36.27a.57.57,0,0,0-.27.57v.86h3.3v-.79a.6.6,0,0,0-.17-.54L36.17,43a.84.84,0,0,0-.58-.16Z"/><path class="cls-2" d="M43.38,47.78c-.43,0-.49-.39-.5-.68l-.11-3.23c0-.61-.06-.92-.75-.92h-.35a.67.67,0,0,0-.35.1l-1.59,1v3.06c0,.32,0,.69-.5.69s-.5-.37-.5-.69V42.71c0-.38,0-.75.5-.75s.5.35.5.74v.19l.06,0,.85-.55a1.77,1.77,0,0,1,.91-.35h.78a1.33,1.33,0,0,1,1,.38,1.47,1.47,0,0,1,.46,1.27L43.87,47a.87.87,0,0,1-.15.63A.42.42,0,0,1,43.38,47.78Z"/><path class="cls-2" d="M43.38,47.69c-.27,0-.4-.18-.41-.6l-.11-3.22c0-.62-.08-1-.84-1h-.35a.74.74,0,0,0-.39.12l-1.63,1v3.11c0,.43-.12.6-.42.6s-.41-.17-.41-.6V42.71c0-.43.06-.66.41-.66s.42.17.42.65V43l.18-.1.86-.55a1.61,1.61,0,0,1,.86-.33h.78a1.25,1.25,0,0,1,.91.35,1.38,1.38,0,0,1,.43,1.21L43.79,47a.82.82,0,0,1-.13.56A.34.34,0,0,1,43.38,47.69Z"/><path class="cls-3" d="M42.5,14c-1.18-.11-5.09,3.25-8,7.33a37.43,37.43,0,0,0-2.49,4,27,27,0,0,0-2.95-4.94c-2.83-3.94-6.44-6.7-7.88-6-2.19,1-.69,9.12,1,13.12a24,24,0,0,0,4.17,7c1.4,1.55,2.61,2.32,3.67,2.32a2.29,2.29,0,0,0,.89-.19c1.44-.64,1.53-3,1.51-5A2.71,2.71,0,0,0,33.46,33c.84.49,2,.26,3.23-.64A11.84,11.84,0,0,0,40.45,27c.69-1.81,3.06-9.36,1-10.27a.93.93,0,0,0-.74.05c-1.68.67-5.93,4.92-8.13,10q-.15-.46-.3-.87A33.43,33.43,0,0,1,35,21.61c3-4.32,6.68-7.21,7.5-7.12,1.15.11.94,3,.84,4.33v.24a28.7,28.7,0,0,1-3.61,12c-2,3.31-3.79,5.29-4.75,5.29v.49c1.5,0,3.64-3,5.17-5.53A29.07,29.07,0,0,0,43.77,19.1l0-.24C43.92,17.1,44.13,14.16,42.5,14ZM30.69,36.18c-1,.46-2.37-.21-4-2a23.58,23.58,0,0,1-4.09-6.89c-1.86-4.53-2.79-11.76-1.2-12.5a.85.85,0,0,1,.3,0c1.2,0,4.19,2.06,7,5.92a25.42,25.42,0,0,1,2.95,5c0,.09.07.18.11.29s-.15.31-.22.47a1,1,0,0,1-.07.15c-1.32-3.75-5.44-8.6-7.72-9.62a1.43,1.43,0,0,0-1.13-.13,1.67,1.67,0,0,0-.86,1c-.72,1.93.15,6,1.42,8.67a19.47,19.47,0,0,0,2.64,4.15c1.6,1.72,3,2.68,3.91,2.68a.91.91,0,0,0,.41-.09.68.68,0,0,0,.35-.24,4,4,0,0,0,.36-2.67,2.61,2.61,0,0,0,.28-.63,3.06,3.06,0,0,0,.08-.4,11.37,11.37,0,0,1,.24-1.14c.11.38.18.66.27,1,0,0,.07.27.18.66s0,.73,0,1.18C31.94,32.82,32,35.61,30.69,36.18ZM24.76,25.93c-1-1.84-1.68-4.91-.67-5.38s3.3,1.81,4.33,3.67c1.38,2.5,1.68,4.91.67,5.38S26.14,28.43,24.76,25.93Zm6,3.05a12.55,12.55,0,0,0-1.68-5.07c-1.37-2.48-4.43-5.52-5.78-4.89s-.46,4.72.89,7.17c1.46,2.65,3.39,4.57,4.8,4.93v0a2,2,0,0,0,.42,0,1.12,1.12,0,0,0,.45-.07,1.77,1.77,0,0,0,.54-.29c.06,1.67-.36,1.88-.35,1.88H30l-.05,0c-.34.18-1.56-.11-3.75-2.47a18.94,18.94,0,0,1-2.56-4c-1.2-2.48-2.07-6.5-1.4-8.29a1.19,1.19,0,0,1,.59-.72,1,1,0,0,1,.73.12c2.21,1,6.43,6,7.56,9.67h0l.06.22A12.57,12.57,0,0,0,30.74,29Zm1.72.13a2.08,2.08,0,0,0,.07-.36,2.7,2.7,0,0,1,.06-.36l.18.51A2.39,2.39,0,0,0,34,30.34a2,2,0,0,0,1.66-.15A9.58,9.58,0,0,0,39.21,26c1.12-2.16,1.85-5.69.78-6.23S36.43,21.91,35.33,24C34,26.51,33.6,28.9,34.17,29.89l-.06,0a2,2,0,0,1-.87-1.13c-.13-.36-.22-.62-.31-.91l-.1-.3v0c2.08-5.17,6.4-9.56,8.06-10.22a.7.7,0,0,1,.36-.07c1.24.56.05,6.19-1.28,9.66A11.44,11.44,0,0,1,36.39,32c-1.06.76-2,1-2.67.61s-1-1.49-1.19-2.36c-.05-.19-.09-.36-.14-.53A3,3,0,0,1,32.46,29.11Zm3.76-4.95c.46-1.1,1.62-2.53,2.2-2.28s.4,2-.07,3.16c-.63,1.5-1.62,2.52-2.2,2.28S35.59,25.66,36.22,24.16ZM32.13,27l.14.42,0,.11a6.54,6.54,0,0,0-.24,1c-.07-.27-.15-.55-.27-.94l-.08-.3c.08-.22.16-.45.27-.68h0C32,26.71,32.08,26.85,32.13,27Z"/></svg>