<svg id="main" xmlns="http://www.w3.org/2000/svg" xmlns:xlink="http://www.w3.org/1999/xlink" viewBox="0 0 64 64"><defs><style>.cls-1{fill:#fff;}.cls-2{fill:url(#linear-gradient);}</style><linearGradient id="linear-gradient" x1="23.61" y1="11.04" x2="39.72" y2="37.83" gradientUnits="userSpaceOnUse"><stop offset="0" stop-color="#da150e"/><stop offset="0" stop-color="#dc150e"/><stop offset="0" stop-color="#e5160d"/><stop offset="0" stop-color="#e9160d"/><stop offset="0.24" stop-color="#e6160e"/><stop offset="0.38" stop-color="#de1513"/><stop offset="0.51" stop-color="#cf151b"/><stop offset="0.62" stop-color="#bb1326"/><stop offset="0.72" stop-color="#a01234"/><stop offset="0.81" stop-color="#7f1046"/><stop offset="0.9" stop-color="#590e5b"/><stop offset="0.98" stop-color="#2d0c73"/><stop offset="1" stop-color="#200b7a"/></linearGradient></defs><rect class="cls-1" x="11.82" y="7" width="40.36" height="50"/><path class="cls-2" d="M45.8,17c-1.55-.14-6.69,4.27-10.46,9.64a48,48,0,0,0-3.28,5.25,34.69,34.69,0,0,0-3.88-6.5c-3.71-5.18-8.45-8.81-10.35-7.93-2.88,1.34-.91,12,1.24,17.25A31.9,31.9,0,0,0,24.56,44c1.84,2,3.43,3,4.83,3a2.91,2.91,0,0,0,1.16-.25c1.9-.84,2-4,2-6.62A3.51,3.51,0,0,0,33.92,42c1.1.64,2.6.35,4.24-.84a15.45,15.45,0,0,0,4.94-7c.92-2.39,4-12.31,1.34-13.51a1.27,1.27,0,0,0-1,.07c-2.2.88-7.79,6.46-10.68,13.13-.14-.4-.27-.79-.4-1.14A44.48,44.48,0,0,1,35.88,27c4-5.68,8.78-9.48,9.86-9.37,1.51.15,1.24,3.9,1.11,5.7l0,.32a37.89,37.89,0,0,1-4.75,15.75c-2.64,4.35-5,7-6.24,7V47c2,0,4.79-4,6.8-7.26a38.5,38.5,0,0,0,4.84-16l0-.31C47.67,21.08,48,17.21,45.8,17ZM30.28,46.16c-1.35.6-3.11-.28-5.23-2.63a31.29,31.29,0,0,1-5.37-9.06C17.24,28.52,16,19,18.11,18a1,1,0,0,1,.38-.07c1.59,0,5.51,2.71,9.16,7.79a33.3,33.3,0,0,1,3.87,6.52l.16.38c-.11.2-.2.41-.3.61a1.8,1.8,0,0,0-.08.21c-1.75-4.94-7.17-11.32-10.16-12.66a1.86,1.86,0,0,0-1.49-.16A2.19,2.19,0,0,0,18.53,22c-1,2.54.19,7.94,1.86,11.4a25,25,0,0,0,3.48,5.45c2.1,2.27,3.95,3.52,5.13,3.52a1.19,1.19,0,0,0,.54-.11.9.9,0,0,0,.47-.32c.46-.57.62-1.75.46-3.5a3.49,3.49,0,0,0,.37-.83A3.79,3.79,0,0,0,31,37c.06-.36.15-.87.31-1.49.14.49.25.87.36,1.35,0,0,.09.35.24.87,0,.44,0,1,0,1.55C31.92,41.74,32,45.41,30.28,46.16Zm-7.8-13.48c-1.34-2.41-2.21-6.45-.88-7.07S26,28,27.3,30.44c1.81,3.28,2.2,6.45.87,7.07S24.29,36,22.48,32.68Zm7.87,4A16.59,16.59,0,0,0,28.14,30c-1.81-3.26-5.82-7.25-7.6-6.43s-.61,6.21,1.17,9.43c1.92,3.48,4.46,6,6.31,6.48v0a2.62,2.62,0,0,0,.55.05,1.68,1.68,0,0,0,.6-.09,2.22,2.22,0,0,0,.71-.38c.08,2.2-.47,2.47-.46,2.47h-.07l-.06,0c-.44.24-2.05-.14-4.93-3.25A24.8,24.8,0,0,1,21,33.09c-1.58-3.26-2.72-8.55-1.84-10.89a1.53,1.53,0,0,1,.77-.95,1.34,1.34,0,0,1,1,.15c2.91,1.31,8.46,8,10,12.72h0l.09.3A13.06,13.06,0,0,0,30.35,36.69Zm2.26.17c0-.12,0-.27.08-.47s.05-.3.08-.48c.07.21.15.43.24.68a3.15,3.15,0,0,0,1.55,1.89,2.66,2.66,0,0,0,2.18-.19c1.44-.65,3.29-2.73,4.74-5.51s2.44-7.48,1-8.19-4.68,2.8-6.13,5.61c-1.69,3.25-2.27,6.39-1.53,7.69l-.07,0a2.65,2.65,0,0,1-1.15-1.49c-.17-.47-.29-.81-.41-1.19l-.13-.41v0c2.73-6.8,8.42-12.57,10.61-13.44a.76.76,0,0,1,.46-.09c1.64.73.07,8.13-1.68,12.7a15,15,0,0,1-4.72,6.76c-1.39,1-2.67,1.29-3.51.79S33,39.52,32.7,38.38l-.19-.69A3.27,3.27,0,0,1,32.61,36.86Zm4.94-6.5c.61-1.45,2.12-3.32,2.9-3s.51,2.68-.1,4.15c-.83,2-2.13,3.32-2.9,3S36.72,32.34,37.55,30.36Zm-5.38,3.72.18.55a1.21,1.21,0,0,1,0,.14,8.09,8.09,0,0,0-.32,1.3c-.09-.37-.2-.74-.35-1.25l-.12-.39c.11-.29.22-.58.37-.89h0C32,33.71,32.11,33.89,32.17,34.08Z"/></svg>