<?xml version="1.0" encoding="utf-8"?>
<!-- Generator: Adobe Illustrator 26.0.2, SVG Export Plug-In . SVG Version: 6.00 Build 0)  -->
<svg version="1.1" id="Layer_1" xmlns="http://www.w3.org/2000/svg" xmlns:xlink="http://www.w3.org/1999/xlink" x="0px" y="0px"
	 viewBox="0 0 1345 820" style="enable-background:new 0 0 1345 820;" xml:space="preserve">
<style type="text/css">
	.st0{fill:url(#SVGID_1_);}
	.st1{fill:url(#SVGID_00000127746265283875918590000008298046010504826522_);}
</style>
<linearGradient id="SVGID_1_" gradientUnits="userSpaceOnUse" x1="39.919" y1="727.4728" x2="1452.8358" y2="18.3737">
	<stop  offset="0.43" style="stop-color:#200B7A"/>
	<stop  offset="0.5156" style="stop-color:#250B77"/>
	<stop  offset="0.5975" style="stop-color:#350C6E"/>
	<stop  offset="0.6769" style="stop-color:#4F0E5F"/>
	<stop  offset="0.7556" style="stop-color:#730F4A"/>
	<stop  offset="0.83" style="stop-color:#A1122F"/>
	<stop  offset="0.92" style="stop-color:#D9150F"/>
	<stop  offset="0.92" style="stop-color:#DA150E"/>
	<stop  offset="0.97" style="stop-color:#DC150E"/>
	<stop  offset="0.99" style="stop-color:#E3160D"/>
	<stop  offset="1" style="stop-color:#E9160D"/>
</linearGradient>
<rect class="st0" width="1345" height="820"/>
<linearGradient id="SVGID_00000010299184004044089980000008309999336420743098_" gradientUnits="userSpaceOnUse" x1="5499.0273" y1="3588.7473" x2="5766.3838" y2="3144.0691" gradientTransform="matrix(-0.1045 0.9945 0.9945 0.1045 -1578.6229 -5791.4561)">
	<stop  offset="0" style="stop-color:#DA150E"/>
	<stop  offset="0" style="stop-color:#DC150E"/>
	<stop  offset="0" style="stop-color:#E5160D"/>
	<stop  offset="0" style="stop-color:#E9160D"/>
	<stop  offset="0.24" style="stop-color:#E6160E"/>
	<stop  offset="0.38" style="stop-color:#DE1513"/>
	<stop  offset="0.51" style="stop-color:#CF151B"/>
	<stop  offset="0.62" style="stop-color:#BB1326"/>
	<stop  offset="0.72" style="stop-color:#A01234"/>
	<stop  offset="0.81" style="stop-color:#7F1046"/>
	<stop  offset="0.9" style="stop-color:#590E5B"/>
	<stop  offset="0.98" style="stop-color:#2D0C73"/>
	<stop  offset="1" style="stop-color:#200B7A"/>
</linearGradient>
<path style="fill:url(#SVGID_00000010299184004044089980000008309999336420743098_);" d="M1344.8,0c0.1,0.1,0.1,0.2,0.2,0.2V0
	H1344.8z M910.1,199C828.5,122.9,767.5,54,733,0h-27c40.5,71.5,120.1,154.5,191.1,220.5c114.5,106.9,284.4,200.1,447.9,248.4v-27.5
	C1185.8,393.7,1021.3,302.9,910.1,199z M1091.1,239.4C997.4,180.8,921.5,100.1,883,17.9C880.2,12,877.6,6,875.2,0h-24
	c3.9,10.7,8.3,21.2,13.2,31.5c41.2,87.8,118.2,170,217,231.7c42.4,26.5,159.4,90.5,263.6,124.2v-27.9
	C1262.3,332.4,1164.7,285.3,1091.1,239.4z M1236.5,5.9c-2.5-2-4.9-4-7.4-5.9H970.4c21.5,60,81.3,137.2,162.4,202.8
	c61.5,49.7,152.3,93.4,212.2,98V123.1C1313.1,78.9,1273.2,35.7,1236.5,5.9z M1316.8,184c-13.3,30.1-91.1,9.5-137.8-21.8
	c-62.9-42.2-103.1-100.9-89.8-131.1c13.3-30.2,74.9-20.4,137.8,21.9C1273.2,84.1,1330,153.9,1316.8,184z M1306.5,0h-33
	c25.4,25.9,49.4,52.5,71.5,78.9v-36C1332.6,28.5,1319.8,14.2,1306.5,0z"/>
</svg>
