<?xml version="1.0" encoding="utf-8"?>
<!-- Generator: Adobe Illustrator 26.0.2, SVG Export Plug-In . SVG Version: 6.00 Build 0)  -->
<svg version="1.1" id="Layer_1" xmlns="http://www.w3.org/2000/svg" xmlns:xlink="http://www.w3.org/1999/xlink" x="0px" y="0px"
	 viewBox="0 0 1000 400" style="enable-background:new 0 0 1000 400;" xml:space="preserve">
<style type="text/css">
	.st0{fill:none;}
	.st1{fill:#FFFFFF;}
</style>
<rect class="st0" width="1000" height="400"/>
<g>
	<g>
		<path class="st1" d="M455,311.4c-10.4,0-15.4-3.5-15.4-10.9s4.9-10.9,15.4-10.9h43.1c4.6-0.2,9-2.1,12.2-5.4l5.9-5.3
			c2.5-2.8,3.8-6.4,3.6-10.1v-33.2l-6,5.9c-7.6,7.4-13.8,11.1-18.9,11.1h-27.6c-6.4,0.2-12.6-2.2-17.1-6.6l-14.6-13
			c-6.4-5.9-7.1-11.2-7.1-21.2v-35.1c0-10.7,3.1-19.9,7.8-23.8l17.1-13.3c3.9-3.6,8.9-5.5,14.2-5.4h22.8c5.5,0,12.2,3.3,22.6,11.4
			l6.9,5.4v-4c0-5.9,3-12.8,11.3-12.8c9.5,0,10.8,7.4,10.8,15.4v112.8c0,21.5-2,25.2-11.3,32.9l-7.8,6.6
			c-10.2,8.4-15.9,9.7-28.9,9.7L455,311.4z M470.7,155.6c-2.6-0.1-5.2,0.7-7.3,2.3l-9.7,7.7c-2.9,2.4-3.3,7.5-3.3,12.5V208
			c0,5.1,0.2,10.2,3.3,12.6l9.9,7.7c2.1,1.6,4.6,2.5,7.3,2.3H488c3.1,0,6.4-2.3,11.2-6.2l18.1-14.6c2-2.3,2.9-5.3,2.7-8.3v-16.8
			c0.2-3-0.7-5.9-2.6-8.2l-18.1-14.7c-4.8-3.8-8.1-6.2-11.2-6.2H470.7L470.7,155.6z"/>
		<path class="st1" d="M641.5,262.5c-3.7,0-6.9-3.8-9.2-7.2L619,235.7l-13.2,19.6c-2.4,3.3-5.5,7.2-9.3,7.2h-9
			c-6.6,0-8.4-5.3-10.4-11.4c-0.3-0.9-12.2-36.2-12.3-36.4v-0.3l-2.4-64.2c-0.2-6.4,0.9-10.7,3.3-13.3c2-1.9,4.7-2.9,7.5-2.7
			c9.3,0,10.8,8.1,11.1,15.9l2.4,59.6l7.8,22.9l13.6-22.8v-21.3c0-7.2,1.3-15.4,11.1-15.4s11.1,8.3,11.1,15.4v21.4l13.6,22.8
			l7.8-22.9l2.4-59.6c0.2-7.9,1.8-15.9,11.1-15.9c2.8-0.2,5.5,0.8,7.5,2.7c2.4,2.5,3.3,6.6,3.3,13.3l-2.4,64.1
			c0,0-12.1,35.9-12.4,36.9c-2,6.1-3.7,11.4-10.4,11.4L641.5,262.5z"/>
		<path class="st1" d="M738.7,262.5c-9.8,0-13.3,0-20.6-6.1l-9.9-8.7c-9.3-8.2-11.8-13.3-11.8-25.4v-44.5c0-12,1.7-19.2,11.3-27.2
			l8.3-7c11.1-9.4,16.6-9.4,25.5-9.4H763c11.3,0,16.6,1.2,25.5,8.2l9.5,7.5c10.1,7.9,12,16.1,12,29.5v18.5
			c0,12.9-1.9,16.6-15.5,16.6h-75.9v8.3c0.3,2.8,1.6,5.3,3.6,7.2l5.8,6.2c3.6,3.8,8.8,4.5,16.1,4.5h50.3c10.6,0,15.5,3.5,15.5,10.9
			s-5,10.9-15.5,10.9H738.7z M787.7,192.6v-15.5c0-3.9,0-7.6-3.3-10.5l-9-7.7c-3.4-2.4-7.6-3.5-11.7-3h-19.9
			c-4.3-0.5-8.7,0.5-12.4,2.8l-8.1,5.8c-3.3,2.4-5.1,4.3-5.1,11.1v17L787.7,192.6z"/>
		<path class="st1" d="M932.8,262.5c-9.5,0-10.9-8.6-11.1-15l-2.4-71.2c-0.5-13.2-1.4-20.4-16.6-20.4h-7.8c-2.7,0-5.4,0.8-7.7,2.3
			l-35.1,21.6v67.5c0,7.1-1.3,15.2-11.1,15.2s-11.1-8.2-11.1-15.2v-96.7c0-8.3,0.9-16.6,11.1-16.6c10.2,0,11.1,7.8,11.1,16.2v4.2
			l1.2-0.6l18.9-12.2c6.4-4,12.7-7.6,19.9-7.6h17.4c7.9-0.2,15.6,2.7,21.3,8.3c9.5,8.1,9.9,16.9,10.2,28l2.6,75.4
			c0,4.3,0,10.5-3.3,13.9C938.4,261.5,935.6,262.6,932.8,262.5z"/>
	</g>
	<path class="st1" d="M368.7,40.9c-16.5-1.5-71.1,45.3-111,102.3c-12.8,17.8-24.4,36.4-34.8,55.7c-5.7-13.1-16.2-34.3-41.2-68.9
		C142.3,75.1,91.9,36.6,71.8,45.9c-30.6,14.2-9.7,127.2,13.2,183c10.8,26.4,28.6,65.2,58.3,98.1c19.4,21.6,36.3,32.2,51.2,32.2
		c4.3,0,8.5-0.9,12.3-2.7c20.1-9,21.4-42.4,21.1-70.4c3.1,8.3,7.5,15.9,14.7,20.1c11.6,6.9,27.6,3.7,45-8.9
		c21.2-15.4,39.9-41.9,52.5-74.7c9.7-25.4,42.8-130.6,14.2-143.4c-3.4-1.2-7.1-0.9-10.3,0.8c-23.4,9.3-82.7,68.6-113.4,139.3
		c-1.5-4.3-2.7-8.4-4.2-12.2c10.8-21,23.2-41.2,37.1-60.4c42.2-60.2,93.1-100.6,104.6-99.3c16,1.5,13.1,41.3,11.7,60.5l-0.2,3.4
		c-4.1,57.9-23.8,123.5-50.3,167.1c-28.1,46.2-52.8,73.8-66.3,73.8v6.8c21,0,50.8-41.9,72.2-77.1c27-44.5,47.1-111.3,51.4-170.2
		l0.2-3.3C388.5,84.1,391.5,43.1,368.7,40.9z M204,350.3c-14.4,6.4-33-3-55.5-27.9c-28.9-32.1-46.4-70.4-57-96.1
		C65.6,163.1,52.6,62.3,74.9,52c1.3-0.6,2.7-0.8,4.1-0.8c16.8,0,58.5,28.8,97.2,82.7c25.4,35.4,35.6,56.4,41.1,69.1
		c0.5,1.3,1,2.7,1.6,4c-1.1,2.2-2.1,4.4-3.1,6.6c-0.4,0.7-0.6,1.4-0.9,2.1c-18.5-52.4-76-120.1-107.8-134.3
		c-6.5-2.9-11.8-3.5-15.8-1.7c-5.7,2.8-10,7.8-11.9,13.9c-10.2,26.9,2,84.3,19.7,121c9.1,18.8,24,43.9,36.9,57.8
		c22.3,24,41.9,37.4,54.4,37.4c2,0,4-0.4,5.8-1.2c2-0.6,3.7-1.7,4.9-3.4c5-6.1,6.6-18.6,5-37.2c1.6-2.8,2.9-5.7,3.8-8.8
		c0.5-1.9,0.9-3.8,1.1-5.7c0.7-3.8,1.6-9.3,3.3-15.8c1.5,5.2,2.7,9.2,3.8,14.4c0,0,0.9,3.7,2.6,9.1v16.5
		C221.4,303.4,222.2,342.3,204,350.3z M121.2,207.4c-14.1-25.6-23.4-68.4-9.3-75s46.1,25.3,60.4,51.2c19.3,34.9,23.4,68.5,9.3,75
		C167.5,265.1,140.5,242.1,121.2,207.4z M204.7,249.9c-1-18.9-9-44.5-23.5-70.6c-19.1-34.6-61.7-77-80.6-68.3s-6.5,65.9,12.4,100
		c20.4,36.9,47.4,63.7,67,68.8v0.4c1.9,0.4,3.9,0.6,5.8,0.5c2.2,0.1,4.3-0.3,6.4-1c2.7-0.8,5.3-2.2,7.5-4c0.9,23.3-5,26.2-4.8,26.2
		h-0.8l-0.6,0.4c-4.7,2.5-21.7-1.5-52.4-34.5c-12.4-13.4-27.2-38.5-35.8-56.2C88.5,176.9,76.4,120.9,85.8,96c1.2-4.3,4.2-8,8.1-10.1
		c2.1-0.9,5.7-0.3,10.1,1.7c30.8,13.8,89.8,84.4,105.6,134.9h0.2l0.9,3.1c-2.7,7.9-4.7,15.9-6.1,24.1L204.7,249.9z M228.7,251.7
		c0.4-1.6,0.7-3.3,0.9-5s0.5-3.2,0.9-5.1c0.7,2.2,1.5,4.5,2.6,7.2c4.1,11.3,11.4,18.3,16.5,20c7.6,2.8,16,2,23-2
		c15.4-6.9,34.9-29,50.3-58.5c15.6-30.1,25.9-79.4,11-86.9c-15-7.6-49.7,29.8-65,59.5c-17.9,34.6-24.1,67.8-16.2,81.6l-0.8-0.2
		c-3-1-9-6.7-12.2-15.8c-1.8-5-3-8.6-4.3-12.7l-1.4-4.2c0-0.1,0.1-0.2,0.1-0.3c29-72.2,89.3-133.4,112.5-142.7
		c1.5-0.8,3.2-1.1,4.9-0.9c17.4,7.8,0.8,86.3-17.8,134.8c-12,31.2-30.2,57.3-50.1,71.7c-14.7,10.8-28.3,13.8-37.3,8.5
		c-9.6-5.7-13.5-20.8-16.6-32.9c-0.7-2.7-1.3-5.1-1.9-7.3C227.8,257.5,228.1,254.5,228.7,251.7L228.7,251.7z M281.2,182.7
		c6.4-15.4,22.5-35.2,30.7-31.9s5.4,28.5-1,44.1c-8.8,21-22.5,35.2-30.7,31.9s-7.7-23.2,1-44.2V182.7z M224.1,222.3l1.9,5.8l0.5,1.5
		c-1.5,4.5-2.6,9.1-3.4,13.7c-1-3.8-2.2-7.8-3.8-13.2l-1.2-4.2c1.1-3,2.4-6.2,3.8-9.4v-0.1L224.1,222.3z"/>
</g>
</svg>
