<?xml version="1.0" encoding="utf-8"?>
<!-- Generator: Adobe Illustrator 26.0.2, SVG Export Plug-In . SVG Version: 6.00 Build 0)  -->
<svg version="1.1" id="Layer_1" xmlns="http://www.w3.org/2000/svg" xmlns:xlink="http://www.w3.org/1999/xlink" x="0px" y="0px"
	 viewBox="0 0 1345 1165.4" style="enable-background:new 0 0 1345 1165.4;" xml:space="preserve">
<style type="text/css">
	.st0{fill:url(#SVGID_1_);}
	.st1{fill:url(#SVGID_00000016778382286992560740000011880138444528264076_);}
</style>
<g>
	
		<linearGradient id="SVGID_1_" gradientUnits="userSpaceOnUse" x1="-22.4959" y1="1189.4968" x2="1529.8434" y2="410.426" gradientTransform="matrix(1 0 0 1 0 -258)">
		<stop  offset="0.43" style="stop-color:#1B0965"/>
		<stop  offset="0.5156" style="stop-color:#1E0962"/>
		<stop  offset="0.5975" style="stop-color:#2B0A59"/>
		<stop  offset="0.6769" style="stop-color:#3E0B4A"/>
		<stop  offset="0.7556" style="stop-color:#5E0C3D"/>
		<stop  offset="0.83" style="stop-color:#8C1029"/>
		<stop  offset="0.92" style="stop-color:#C4130E"/>
		<stop  offset="0.92" style="stop-color:#C5130D"/>
		<stop  offset="0.97" style="stop-color:#C7130D"/>
		<stop  offset="0.99" style="stop-color:#CE140C"/>
		<stop  offset="1" style="stop-color:#D4140C"/>
	</linearGradient>
	<rect class="st0" width="1345" height="1165.4"/>
	
		<linearGradient id="SVGID_00000046310466432682620570000015084931541699595676_" gradientUnits="userSpaceOnUse" x1="4950.5615" y1="4340.5991" x2="5217.918" y2="3895.9209" gradientTransform="matrix(-0.1045 0.9945 0.9945 0.1045 -2383.6599 -5324.5874)">
		<stop  offset="0" style="stop-color:#C5130D"/>
		<stop  offset="0" style="stop-color:#C7130D"/>
		<stop  offset="0" style="stop-color:#D0140C"/>
		<stop  offset="0" style="stop-color:#D4140C"/>
		<stop  offset="0.24" style="stop-color:#D1140D"/>
		<stop  offset="0.38" style="stop-color:#C91311"/>
		<stop  offset="0.51" style="stop-color:#BA1318"/>
		<stop  offset="0.62" style="stop-color:#A61122"/>
		<stop  offset="0.72" style="stop-color:#8B102D"/>
		<stop  offset="0.81" style="stop-color:#6A0D3A"/>
		<stop  offset="0.9" style="stop-color:#450B46"/>
		<stop  offset="0.98" style="stop-color:#250A5E"/>
		<stop  offset="1" style="stop-color:#1B0965"/>
	</linearGradient>
	<path style="fill:url(#SVGID_00000046310466432682620570000015084931541699595676_);" d="M1344.8,0c0.1,0.1,0.1,0.2,0.2,0.2V0
		H1344.8z M910.1,199C828.5,122.9,767.5,54,733,0h-27c40.5,71.5,120.1,154.5,191.1,220.5c114.5,106.9,284.4,200.1,447.9,248.4v-27.5
		C1185.8,393.7,1021.3,302.9,910.1,199z M1091.1,239.4C997.4,180.8,921.5,100.1,883,17.9C880.2,12,877.6,6,875.2,0h-24
		c3.9,10.7,8.3,21.2,13.2,31.5c41.2,87.8,118.2,170,217,231.7c42.4,26.5,159.4,90.5,263.6,124.2v-27.9
		C1262.3,332.4,1164.7,285.3,1091.1,239.4z M1236.5,5.9c-2.5-2-4.9-4-7.4-5.9H970.4c21.5,60,81.3,137.2,162.4,202.8
		c61.5,49.7,152.3,93.4,212.2,98V123.1C1313.1,78.9,1273.2,35.7,1236.5,5.9z M1316.8,184c-13.3,30.1-91.1,9.5-137.8-21.8
		c-62.9-42.2-103.1-100.9-89.8-131.1c13.3-30.2,74.9-20.4,137.8,21.9C1273.2,84.1,1330,153.9,1316.8,184z M1306.5,0h-33
		c25.4,25.9,49.4,52.5,71.5,78.9v-36C1332.6,28.5,1319.8,14.2,1306.5,0z"/>
</g>
</svg>
