<svg id="main" xmlns="http://www.w3.org/2000/svg" viewBox="0 0 64 64"><defs><style>.cls-1{fill:#e7f0fb;}.cls-2{fill:#1a1a1a;}.cls-3{fill:#1a0b6d;}</style></defs><path class="cls-1" d="M52.06,52.81l-2.29.57a142.77,142.77,0,0,1-19.84,3q-4.11.36-8,.49H12V7.1H49.77V34.53c0,2,.09,4.11.29,6.32.12,1.24.26,2.51.44,3.79A76,76,0,0,0,52.06,52.81Z"/><path class="cls-2" d="M20.09,29.1c0-1.38.83-2.07,1.69-2.07a1.54,1.54,0,0,1,1.17.45l-.32.34a1.15,1.15,0,0,0-.84-.34c-.57,0-1.11.41-1.11,1.62s.36,1.63,1,1.63a1.5,1.5,0,0,0,.73-.19V29.35H21.7l-.07-.44H23v1.92a2.6,2.6,0,0,1-1.32.35C20.7,31.18,20.09,30.49,20.09,29.1Z"/><path class="cls-2" d="M25.51,30.7h.86v.41H24V30.7H25V28.46h-.91V28h1.45Zm-.27-3.39a.35.35,0,0,1-.37-.36.36.36,0,0,1,.37-.37.37.37,0,0,1,.38.37A.36.36,0,0,1,25.24,27.31Z"/><path class="cls-2" d="M28.71,31.11h-.62L27,28h.57l.85,2.58h0L29.26,28h.56Z"/><path class="cls-2" d="M31.19,29.76c0,.68.41,1,.88,1a1.19,1.19,0,0,0,.81-.29l.25.36a1.81,1.81,0,0,1-1.07.36,1.41,1.41,0,0,1-1.43-1.6c0-.93.52-1.61,1.34-1.61s1.29.58,1.29,1.52c0,.1,0,.2,0,.27Zm0-.39h1.55c0-.64-.29-1-.77-1S31.23,28.71,31.19,29.37Z"/><path class="cls-2" d="M34.41,31.11V28h.46l0,.42a1.35,1.35,0,0,1,1-.49c.59,0,.86.34.86.91v2.23h-.53V29.23c0-.6-.06-.84-.51-.84a1,1,0,0,0-.79.5v2.22Z"/><path class="cls-2" d="M38.84,30.13a.53.53,0,1,1,0,1.05.53.53,0,0,1,0-1.05Z"/><path class="cls-2" d="M41.67,30.13a.53.53,0,1,1-.53.52A.52.52,0,0,1,41.67,30.13Z"/><path class="cls-2" d="M25.9,37.75h-.7l-.43-2.93h0l-.5,2.93h-.73l-.47-4h.55l.3,3.38h0l.53-2.91h.64l.43,2.9h0L26,33.73h.51Z"/><path class="cls-2" d="M27.3,37.75v-4.3l.53-.06v1.68a1.3,1.3,0,0,1,1-.46c.59,0,.86.34.86.91v2.23h-.54v-2.2c0-.37-.16-.52-.51-.52a1.05,1.05,0,0,0-.79.49v2.23Z"/><path class="cls-2" d="M31.38,36.4c.05.68.41,1,.88,1a1.27,1.27,0,0,0,.82-.28l.24.35a1.71,1.71,0,0,1-1.07.37,1.41,1.41,0,0,1-1.43-1.6,1.43,1.43,0,0,1,1.34-1.61c.81,0,1.29.57,1.29,1.51,0,.11,0,.21,0,.28Zm0-.4h1.55c0-.63-.29-1-.77-1S31.42,35.34,31.38,36Z"/><path class="cls-2" d="M34.6,37.75V34.68h.46l0,.42a1.31,1.31,0,0,1,1-.49.79.79,0,0,1,.87.91v2.23h-.54V35.87c0-.6-.06-.84-.51-.84a1,1,0,0,0-.79.49v2.23Z"/><path class="cls-2" d="M39.17,36.76a.53.53,0,0,1,.53.53.53.53,0,1,1-1.06,0A.53.53,0,0,1,39.17,36.76Z"/><path class="cls-2" d="M42,36.76a.53.53,0,0,1,.53.53.53.53,0,0,1-1.06,0A.53.53,0,0,1,42,36.76Z"/><path class="cls-2" d="M25.15,40.83v3.55H24.6V40.83H23.35v-.46h3.06l-.06.46Z"/><path class="cls-2" d="M27.31,44.38v-4.3l.54-.06V41.7a1.28,1.28,0,0,1,1-.46.79.79,0,0,1,.87.91v2.23h-.54V42.19c0-.37-.16-.53-.51-.53a1,1,0,0,0-.79.5v2.22Z"/><path class="cls-2" d="M31.4,43c.05.68.41,1,.88,1a1.19,1.19,0,0,0,.81-.29l.25.36a1.81,1.81,0,0,1-1.07.36,1.41,1.41,0,0,1-1.43-1.6c0-.93.52-1.61,1.34-1.61s1.29.58,1.29,1.52c0,.1,0,.2,0,.27Zm0-.4H33c0-.63-.29-1-.77-1S31.44,42,31.4,42.63Z"/><path class="cls-2" d="M34.62,44.38V41.31h.46l0,.42a1.35,1.35,0,0,1,1-.49c.6,0,.86.34.86.91v2.23h-.53V42.5c0-.6-.06-.84-.51-.84a1,1,0,0,0-.79.5v2.22Z"/><path class="cls-2" d="M39.06,43.4a.53.53,0,1,1-.53.52A.52.52,0,0,1,39.06,43.4Z"/><path class="cls-2" d="M41.88,43.4a.53.53,0,1,1-.53.52A.52.52,0,0,1,41.88,43.4Z"/><path class="cls-3" d="M18.15,14.09v1.27h1.7v.84h-1.7v1.92H17V13.26h3.2l-.12.83Z"/><path class="cls-3" d="M21.85,16.58a.83.83,0,0,0,.89.84,1.5,1.5,0,0,0,.94-.33l.46.63a2.38,2.38,0,0,1-1.48.52,1.81,1.81,0,0,1-1.95-2,1.81,1.81,0,0,1,1.81-2,1.7,1.7,0,0,1,1.76,1.91,2.55,2.55,0,0,1,0,.4Zm0-.67h1.35c0-.52-.19-.89-.66-.89S21.89,15.29,21.84,15.91Z"/><path class="cls-3" d="M28.36,17c0,.28.07.38.24.45l-.23.73a1.07,1.07,0,0,1-.92-.49,1.61,1.61,0,0,1-1.22.51A1.16,1.16,0,0,1,25,17.07c0-.81.67-1.27,1.82-1.27h.5v-.13c0-.38-.28-.57-.74-.57a3.79,3.79,0,0,0-1,.19l-.26-.74a4.45,4.45,0,0,1,1.43-.28c1.14,0,1.66.45,1.66,1.32Zm-1.08,0v-.59H27c-.61,0-.89.18-.89.55a.45.45,0,0,0,.49.45A.8.8,0,0,0,27.28,17Z"/><path class="cls-3" d="M32.75,17.9a2.32,2.32,0,0,1-1.23.34,1.28,1.28,0,0,1-1.44-1.4V15.17H29.3V14.4h.78v-.81l1.12-.13v.94h1.2l-.11.77H31.2v1.67c0,.37.16.51.53.51a1.42,1.42,0,0,0,.65-.16Z"/><path class="cls-3" d="M34.65,14.4v2.54c0,.36.14.47.37.47a.79.79,0,0,0,.63-.4V14.4h1.12v3.72h-1l0-.44a1.36,1.36,0,0,1-1.14.56c-.72,0-1.07-.45-1.07-1.16V14.4Z"/><path class="cls-3" d="M40.62,18.12H37.78v-.77h.77V15.16h-.77V14.4h1.77l.09.69a1.09,1.09,0,0,1,1-.8,1.78,1.78,0,0,1,.47.06l-.19,1.08a1.42,1.42,0,0,0-.42,0c-.47,0-.73.37-.84.87v1.1h.94Z"/><path class="cls-3" d="M42.91,16.58a.83.83,0,0,0,.89.84,1.45,1.45,0,0,0,.93-.33l.47.63a2.38,2.38,0,0,1-1.48.52,1.81,1.81,0,0,1-1.95-2,1.81,1.81,0,0,1,1.81-2,1.7,1.7,0,0,1,1.76,1.91,2.55,2.55,0,0,1,0,.4Zm0-.67h1.35c0-.52-.19-.89-.67-.89S43,15.29,42.9,15.91Z"/></svg>