<svg id="main" xmlns="http://www.w3.org/2000/svg" viewBox="0 0 64 64"><defs><style>.cls-1{fill:#f4e7ec;}.cls-2{fill:#1a1a1a;}.cls-3{fill:#b20d0e;}</style></defs><path class="cls-1" d="M52,52.82c-.74.19-1.5.38-2.29.56a141.18,141.18,0,0,1-19.84,3q-4.11.36-8,.49h-10V7.11H49.75V34.54c0,2,.09,4.11.29,6.32.12,1.24.26,2.51.44,3.79A76,76,0,0,0,52,52.82Z"/><path class="cls-1" d="M11.94,57h-.12V7H49.87V34.54c0,2,.09,4.15.29,6.31.12,1.29.26,2.57.43,3.79a76,76,0,0,0,1.57,8.16l0,.1-.11,0c-.76.2-1.53.39-2.29.57a143.34,143.34,0,0,1-19.86,3c-2.7.23-5.38.39-8,.49Zm.11-.21h9.89c2.59-.1,5.26-.26,8-.49a142.49,142.49,0,0,0,19.82-3l2.18-.53a78.05,78.05,0,0,1-1.54-8.08c-.17-1.23-.32-2.51-.43-3.8-.2-2.17-.3-4.3-.3-6.33V7.21H12.05Z"/><path class="cls-2" d="M20.07,29.11c0-1.38.83-2.07,1.69-2.07a1.54,1.54,0,0,1,1.17.45l-.32.33a1.19,1.19,0,0,0-.84-.33c-.57,0-1.11.41-1.11,1.62s.36,1.63,1,1.63a1.5,1.5,0,0,0,.73-.19V29.36h-.75l-.07-.45H23v1.93a2.6,2.6,0,0,1-1.32.35C20.68,31.19,20.07,30.5,20.07,29.11Z"/><path class="cls-2" d="M25.49,30.71h.86v.41H24v-.41H25V28.47H24v-.42h1.45Zm-.27-3.39a.35.35,0,0,1-.37-.36.36.36,0,0,1,.37-.37.37.37,0,0,1,.38.37A.36.36,0,0,1,25.22,27.32Z"/><path class="cls-2" d="M28.69,31.12h-.62L27,28.05h.57l.85,2.58h0l.84-2.58h.56Z"/><path class="cls-2" d="M31.17,29.77c0,.68.41,1,.88,1a1.19,1.19,0,0,0,.81-.29l.25.36a1.81,1.81,0,0,1-1.07.36,1.41,1.41,0,0,1-1.43-1.6c0-.93.52-1.61,1.34-1.61s1.29.58,1.29,1.52c0,.1,0,.2,0,.27Zm0-.4h1.55c0-.63-.29-1-.77-1S31.21,28.72,31.17,29.37Z"/><path class="cls-2" d="M34.39,31.12V28.05h.46l0,.42a1.35,1.35,0,0,1,1-.49c.59,0,.86.34.86.91v2.23h-.53V29.24c0-.6-.06-.84-.51-.84a1,1,0,0,0-.79.5v2.22Z"/><path class="cls-2" d="M38.82,30.14a.53.53,0,1,1,0,1.05.53.53,0,0,1,0-1.05Z"/><path class="cls-2" d="M41.65,30.14a.53.53,0,1,1-.53.52A.52.52,0,0,1,41.65,30.14Z"/><path class="cls-2" d="M25.88,37.76h-.7l-.43-2.93h0l-.5,2.93H23.5l-.47-4h.55l.3,3.38h0l.53-2.91h.64l.43,2.9h0L26,33.74h.51Z"/><path class="cls-2" d="M27.28,37.76v-4.3l.53-.06v1.68a1.3,1.3,0,0,1,1-.46c.59,0,.86.33.86.91v2.23h-.54v-2.2c0-.37-.16-.52-.51-.52a1.05,1.05,0,0,0-.79.49v2.23Z"/><path class="cls-2" d="M31.36,36.41c.05.68.41,1,.88,1a1.27,1.27,0,0,0,.82-.28l.24.35a1.71,1.71,0,0,1-1.07.37,1.41,1.41,0,0,1-1.43-1.6,1.43,1.43,0,0,1,1.34-1.61c.81,0,1.29.57,1.29,1.51,0,.11,0,.21,0,.28Zm0-.4h1.55c0-.64-.29-1-.77-1S31.4,35.35,31.36,36Z"/><path class="cls-2" d="M34.58,37.76V34.69H35l0,.42a1.33,1.33,0,0,1,1-.49c.6,0,.87.33.87.91v2.23h-.54V35.88c0-.6-.06-.84-.51-.84a1,1,0,0,0-.79.49v2.23Z"/><path class="cls-2" d="M39.15,36.77a.53.53,0,0,1,.53.53.53.53,0,0,1-1.06,0A.53.53,0,0,1,39.15,36.77Z"/><path class="cls-2" d="M42,36.77a.53.53,0,0,1,.53.53.53.53,0,0,1-1.06,0A.53.53,0,0,1,42,36.77Z"/><path class="cls-2" d="M25.13,40.84v3.55h-.55V40.84H23.33v-.46h3.06l-.06.46Z"/><path class="cls-2" d="M27.29,44.39v-4.3l.54-.06v1.68a1.3,1.3,0,0,1,1-.46.79.79,0,0,1,.87.91v2.23h-.54V42.2c0-.37-.16-.53-.51-.53a1,1,0,0,0-.79.5v2.22Z"/><path class="cls-2" d="M31.38,43c.05.68.41,1,.88,1a1.23,1.23,0,0,0,.82-.29l.24.36a1.81,1.81,0,0,1-1.07.36,1.41,1.41,0,0,1-1.43-1.6c0-.93.52-1.61,1.34-1.61s1.29.58,1.29,1.52c0,.1,0,.2,0,.27Zm0-.4h1.55c0-.63-.29-1-.77-1S31.42,42,31.38,42.64Z"/><path class="cls-2" d="M34.6,44.39V41.32h.46l0,.42a1.35,1.35,0,0,1,1-.49c.6,0,.86.34.86.91v2.23h-.53V42.51c0-.6-.06-.84-.51-.84a1,1,0,0,0-.79.5v2.22Z"/><path class="cls-2" d="M39,43.41a.53.53,0,1,1-.53.52A.52.52,0,0,1,39,43.41Z"/><path class="cls-2" d="M41.86,43.41a.53.53,0,1,1-.53.52A.52.52,0,0,1,41.86,43.41Z"/><path class="cls-3" d="M23.52,14.37a13.49,13.49,0,0,1,.07,1.71l0,2.05h-1l.28-4.86H24l.51,3.05h0l.49-3.05h1.19l.28,4.86h-1l-.05-2.07a10.78,10.78,0,0,1,.06-1.69h0L25,17.3H24.1l-.55-2.93Z"/><path class="cls-3" d="M28.26,16.59a.83.83,0,0,0,.89.84,1.45,1.45,0,0,0,.93-.33l.47.63a2.38,2.38,0,0,1-1.48.52,1.81,1.81,0,0,1-1.95-2,1.8,1.8,0,0,1,1.81-2,1.7,1.7,0,0,1,1.76,1.91c0,.13,0,.29,0,.4Zm0-.67H29.6c0-.52-.19-.89-.67-.89S28.3,15.3,28.25,15.92Z"/><path class="cls-3" d="M34.88,17.91a2.32,2.32,0,0,1-1.22.34,1.28,1.28,0,0,1-1.45-1.4V15.18h-.78v-.77h.78V13.6l1.12-.13v.94h1.2l-.11.77H33.33v1.67c0,.37.16.51.53.51a1.42,1.42,0,0,0,.65-.16Z"/><path class="cls-3" d="M38.9,17.05c0,.28.07.38.25.45l-.23.73a1,1,0,0,1-.92-.49,1.64,1.64,0,0,1-1.23.51,1.16,1.16,0,0,1-1.27-1.17c0-.81.68-1.27,1.83-1.27h.49v-.13c0-.38-.27-.57-.74-.57a3.86,3.86,0,0,0-1,.19l-.26-.74a4.56,4.56,0,0,1,1.44-.28c1.13,0,1.65.45,1.65,1.32Zm-1.08,0v-.59h-.26c-.61,0-.89.18-.89.55a.44.44,0,0,0,.49.45A.77.77,0,0,0,37.82,17Z"/></svg>