<svg id="main" xmlns="http://www.w3.org/2000/svg" viewBox="0 0 64 64"><rect x="-14.93" y="-15.36" width="94.48" height="94.48" style="fill:none;stroke:#000;stroke-miterlimit:10"/><path d="M52.06,52.81l-2.29.57a142.65,142.65,0,0,1-19.84,3q-4.11.36-8,.49H12V7.1H49.77V34.53c0,2,.09,4.11.29,6.32.12,1.24.26,2.51.44,3.79A75.44,75.44,0,0,0,52.06,52.81Z" style="fill:#e7f0fb"/><path d="M20.09,29.1c0-1.38.83-2.07,1.69-2.07a1.54,1.54,0,0,1,1.17.45l-.32.34a1.15,1.15,0,0,0-.84-.34c-.57,0-1.11.41-1.11,1.62s.36,1.63,1,1.63a1.53,1.53,0,0,0,.73-.19V29.35H21.7l-.07-.44H23v1.92a2.66,2.66,0,0,1-1.32.35C20.7,31.18,20.09,30.49,20.09,29.1Z" style="fill:#1a1a1a"/><path d="M25.51,30.7h.86v.41H24V30.7h1V28.46h-.91V28h1.45Zm-.27-3.39a.35.35,0,0,1-.37-.33h0a.36.36,0,0,1,.35-.37h0a.38.38,0,0,1,.38.36h0a.36.36,0,0,1-.36.36h0Z" style="fill:#1a1a1a"/><path d="M28.71,31.11h-.62L27,28h.57l.85,2.58h0L29.26,28h.56Z" style="fill:#1a1a1a"/><path d="M31.19,29.76a.87.87,0,0,0,.75,1h.13a1.19,1.19,0,0,0,.81-.29l.25.36a1.79,1.79,0,0,1-1.07.36,1.41,1.41,0,0,1-1.44-1.38h0v-.22c0-.93.52-1.61,1.34-1.61s1.29.58,1.29,1.52v.27Zm0-.39h1.55c0-.64-.29-1-.77-1S31.23,28.71,31.19,29.37Z" style="fill:#1a1a1a"/><path d="M34.41,31.11V28h.46v.42a1.34,1.34,0,0,1,1-.49c.59,0,.86.34.86.91v2.23H36.2V29.23c0-.6-.06-.84-.51-.84a1,1,0,0,0-.79.5v2.22Z" style="fill:#1a1a1a"/><path d="M38.84,30.13A.53.53,0,0,1,39,31.18a.38.38,0,0,1-.15,0,.53.53,0,0,1-.45-.6h0A.52.52,0,0,1,38.84,30.13Z" style="fill:#1a1a1a"/><path d="M41.67,30.13a.53.53,0,1,1-.53.53h0a.52.52,0,0,1,.52-.52h0Z" style="fill:#1a1a1a"/><path d="M25.9,37.75h-.7l-.43-2.93h0l-.5,2.93h-.73l-.47-4h.55l.3,3.38h0l.53-2.91h.64l.43,2.9h0L26,33.73h.51Z" style="fill:#1a1a1a"/><path d="M27.3,37.75v-4.3l.53-.06v1.68a1.33,1.33,0,0,1,1-.46c.59,0,.86.34.86.91v2.23h-.54v-2.2c0-.37-.16-.52-.51-.52a1,1,0,0,0-.79.49v2.23Z" style="fill:#1a1a1a"/><path d="M31.38,36.4c.05.68.41,1,.88,1a1.22,1.22,0,0,0,.82-.28l.24.35a1.72,1.72,0,0,1-1.07.37,1.41,1.41,0,0,1-1.44-1.38h0v-.22a1.43,1.43,0,0,1,1.24-1.6h.1c.81,0,1.29.57,1.29,1.51v.28Zm0-.4h1.55c0-.63-.29-1-.77-1S31.42,35.34,31.38,36Z" style="fill:#1a1a1a"/><path d="M34.6,37.75V34.68h.46v.42a1.34,1.34,0,0,1,1-.49.78.78,0,0,1,.87.68h0a.81.81,0,0,1,0,.22v2.23h-.54V35.87c0-.6-.06-.84-.51-.84a1,1,0,0,0-.79.49v2.23Z" style="fill:#1a1a1a"/><path d="M39.17,36.76a.53.53,0,1,1-.53.53h0A.53.53,0,0,1,39.17,36.76Z" style="fill:#1a1a1a"/><path d="M42,36.76a.53.53,0,1,1-.53.53h0A.53.53,0,0,1,42,36.76Z" style="fill:#1a1a1a"/><path d="M25.15,40.83v3.55H24.6V40.83H23.35v-.46h3.06l-.06.46Z" style="fill:#1a1a1a"/><path d="M27.31,44.38v-4.3l.54-.06V41.7a1.24,1.24,0,0,1,1-.46.78.78,0,0,1,.87.68h0a.81.81,0,0,1,0,.22v2.23h-.54V42.19c0-.37-.16-.53-.51-.53a1,1,0,0,0-.79.5v2.22Z" style="fill:#1a1a1a"/><path d="M31.4,43c.05.68.41,1,.88,1a1.19,1.19,0,0,0,.81-.29l.25.36a1.79,1.79,0,0,1-1.07.36,1.41,1.41,0,0,1-1.44-1.38h0v-.22c0-.93.52-1.61,1.34-1.61s1.29.58,1.29,1.52V43Zm0-.4H33c0-.63-.29-1-.77-1S31.44,42,31.4,42.6Z" style="fill:#1a1a1a"/><path d="M34.62,44.38V41.31h.46v.42a1.34,1.34,0,0,1,1-.49c.6,0,.86.34.86.91v2.23h-.53V42.5c0-.6-.06-.84-.51-.84a1,1,0,0,0-.79.5v2.22Z" style="fill:#1a1a1a"/><path d="M39.06,43.4a.53.53,0,1,1-.53.53h0a.52.52,0,0,1,.52-.52h0Z" style="fill:#1a1a1a"/><path d="M41.88,43.4a.53.53,0,1,1-.53.53h0a.52.52,0,0,1,.52-.52h0Z" style="fill:#1a1a1a"/><path d="M18.15,14.09v1.27h1.7v.84h-1.7v1.92H17V13.26h3.2l-.12.83Z" style="fill:#1a0b6d"/><path d="M21.85,16.58a.82.82,0,0,0,.8.84h.09a1.54,1.54,0,0,0,.94-.33l.46.63a2.34,2.34,0,0,1-1.48.52,1.81,1.81,0,0,1-1.95-1.65,2,2,0,0,1,0-.35,1.81,1.81,0,0,1,1.61-2h.2a1.7,1.7,0,0,1,1.77,1.63h0a1.31,1.31,0,0,1,0,.28,2.67,2.67,0,0,1,0,.4Zm0-.67H23.2c0-.52-.19-.89-.66-.89s-.65.27-.7.89Z" style="fill:#1a0b6d"/><path d="M28.36,17c0,.28.07.38.24.45l-.23.73a1.07,1.07,0,0,1-.92-.49,1.6,1.6,0,0,1-1.22.51A1.16,1.16,0,0,1,25,17.11h0c0-.81.67-1.27,1.82-1.27h.5v-.13c0-.38-.28-.57-.74-.57a3.77,3.77,0,0,0-1,.19l-.26-.74a4.38,4.38,0,0,1,1.43-.28c1.14,0,1.66.45,1.66,1.32Zm-1.08,0v-.59H27c-.61,0-.89.18-.89.55a.45.45,0,0,0,.45.45h0A.8.8,0,0,0,27.28,17Z" style="fill:#1a0b6d"/><path d="M32.75,17.9a2.33,2.33,0,0,1-1.23.34,1.29,1.29,0,0,1-1.44-1.1,1.5,1.5,0,0,1,0-.3V15.17H29.3V14.4h.78v-.81l1.12-.13v.94h1.2l-.11.77H31.2v1.67c0,.37.16.51.53.51a1.45,1.45,0,0,0,.65-.16Z" style="fill:#1a0b6d"/><path d="M34.65,14.4v2.54c0,.36.14.47.37.47a.8.8,0,0,0,.63-.4V14.4h1.12v3.72h-1v-.44a1.38,1.38,0,0,1-1.14.56c-.72,0-1.07-.45-1.07-1.16V14.4Z" style="fill:#1a0b6d"/><path d="M40.62,18.12H37.78v-.77h.77V15.16h-.77V14.4h1.77l.09.69a1.09,1.09,0,0,1,1-.8,1.84,1.84,0,0,1,.47.06l-.19,1.08a1.48,1.48,0,0,0-.42,0c-.47,0-.73.37-.84.87v1.1h.94Z" style="fill:#1a0b6d"/><path d="M42.91,16.58a.82.82,0,0,0,.8.84h.09a1.43,1.43,0,0,0,.93-.33l.47.63a2.34,2.34,0,0,1-1.48.52,1.81,1.81,0,0,1-1.95-1.65,2,2,0,0,1,0-.35,1.81,1.81,0,0,1,1.61-2h.2a1.7,1.7,0,0,1,1.77,1.63h0a1.31,1.31,0,0,1,0,.28,2.67,2.67,0,0,1,0,.4Zm0-.67h1.35c0-.52-.19-.89-.67-.89s-.59.27-.69.89Z" style="fill:#1a0b6d"/></svg>