<svg id="main" xmlns="http://www.w3.org/2000/svg" xmlns:xlink="http://www.w3.org/1999/xlink" viewBox="0 0 64 64"><defs><style>.cls-1{fill:#fff;}.cls-2{fill:url(#linear-gradient);}.cls-3{fill:url(#linear-gradient-2);}</style><linearGradient id="linear-gradient" x1="13.97" y1="19.72" x2="50.56" y2="44.64" gradientUnits="userSpaceOnUse"><stop offset="0.43" stop-color="#e7f0fb"/><stop offset="0.55" stop-color="#ebedf7"/><stop offset="0.92" stop-color="#f4e7ec"/><stop offset="0.99" stop-color="#f4e7ec"/><stop offset="1" stop-color="#f4e7ec"/></linearGradient><linearGradient id="linear-gradient-2" x1="24.17" y1="12.44" x2="39.2" y2="37.44" gradientUnits="userSpaceOnUse"><stop offset="0" stop-color="#da150e"/><stop offset="0" stop-color="#dc150e"/><stop offset="0" stop-color="#e5160d"/><stop offset="0" stop-color="#e9160d"/><stop offset="0.24" stop-color="#e6160e"/><stop offset="0.38" stop-color="#de1513"/><stop offset="0.51" stop-color="#cf151b"/><stop offset="0.62" stop-color="#bb1326"/><stop offset="0.72" stop-color="#a01234"/><stop offset="0.81" stop-color="#7f1046"/><stop offset="0.9" stop-color="#590e5b"/><stop offset="0.98" stop-color="#2d0c73"/><stop offset="1" stop-color="#200b7a"/></linearGradient></defs><rect class="cls-1" x="2" y="2" width="60" height="60"/><rect class="cls-2" x="11.82" y="7" width="40.36" height="50"/><path class="cls-3" d="M44.88,18c-1.45-.13-6.25,4-9.76,9a43.91,43.91,0,0,0-3.06,4.9,32.14,32.14,0,0,0-3.62-6.07c-3.47-4.83-7.9-8.22-9.66-7.4-2.69,1.25-.86,11.19,1.15,16.1a29.73,29.73,0,0,0,5.13,8.63c1.71,1.9,3.19,2.84,4.5,2.84a2.58,2.58,0,0,0,1.09-.24C32.42,45,32.53,42,32.5,39.59a3.31,3.31,0,0,0,1.29,1.77c1,.6,2.43.33,4-.78A14.43,14.43,0,0,0,42.36,34c.86-2.23,3.77-11.49,1.25-12.62a1.16,1.16,0,0,0-.91.08c-2.06.82-7.28,6-10,12.25-.13-.38-.25-.74-.37-1.07a40.86,40.86,0,0,1,3.26-5.31c3.71-5.3,8.19-8.85,9.2-8.74,1.42.14,1.16,3.64,1,5.32l0,.29a35.27,35.27,0,0,1-4.43,14.7C38.94,43,36.76,45.4,35.58,45.4V46c1.85,0,4.47-3.69,6.35-6.78a36,36,0,0,0,4.52-15l0-.3C46.62,21.81,46.89,18.2,44.88,18ZM30.4,45.22c-1.27.56-2.91-.27-4.88-2.46a28.89,28.89,0,0,1-5-8.45C18.22,28.75,17.08,19.88,19,19a1,1,0,0,1,.36-.06c1.48,0,5.15,2.53,8.55,7.27a31,31,0,0,1,3.61,6.08c.05.11.1.22.15.35l-.28.58c0,.06-.05.12-.08.19-1.63-4.61-6.68-10.56-9.47-11.81a1.77,1.77,0,0,0-1.4-.16,2.06,2.06,0,0,0-1,1.23c-.89,2.37.17,7.41,1.73,10.64a23.8,23.8,0,0,0,3.25,5.09c2,2.11,3.69,3.28,4.79,3.28a1.19,1.19,0,0,0,.51-.1.9.9,0,0,0,.43-.3c.43-.53.58-1.64.44-3.27a3.89,3.89,0,0,0,.34-.77c0-.11.06-.28.1-.5a13.6,13.6,0,0,1,.29-1.4c.13.46.23.81.34,1.27,0,0,.08.32.22.8,0,.42,0,.91,0,1.46C31.92,41.1,32,44.51,30.4,45.22ZM23.11,32.63c-1.24-2.25-2.06-6-.82-6.59s4.06,2.22,5.32,4.5c1.7,3.07,2.06,6,.82,6.6S24.81,35.7,23.11,32.63Zm7.35,3.75a15.46,15.46,0,0,0-2.07-6.21c-1.68-3.05-5.43-6.78-7.08-6S20.73,30,22.39,33c1.8,3.25,4.17,5.6,5.9,6v0a2.28,2.28,0,0,0,.51,0,1.46,1.46,0,0,0,.56-.08,2.1,2.1,0,0,0,.66-.35c.08,2-.44,2.3-.42,2.3h-.07l-.06,0c-.41.22-1.91-.14-4.6-3A23.53,23.53,0,0,1,21.71,33C20.24,30,19.17,25,20,22.85a1.48,1.48,0,0,1,.72-.89,1.27,1.27,0,0,1,.89.15c2.72,1.22,7.9,7.42,9.29,11.87h0l.08.28A12.45,12.45,0,0,0,30.46,36.38Zm2.11.16c0-.11,0-.26.08-.44s0-.28.07-.45l.22.64A2.89,2.89,0,0,0,34.39,38a2.38,2.38,0,0,0,2-.17c1.35-.61,3.08-2.55,4.42-5.14s2.28-7,1-7.65-4.37,2.62-5.73,5.24c-1.57,3-2.11,6-1.42,7.17h-.07a2.48,2.48,0,0,1-1.07-1.39c-.16-.44-.26-.76-.38-1.12L33,34.6v0c2.55-6.35,7.86-11.73,9.9-12.55a.7.7,0,0,1,.43-.08c1.53.68.07,7.59-1.57,11.86a14.09,14.09,0,0,1-4.4,6.3c-1.3.94-2.5,1.21-3.28.74S32.92,39,32.65,38c-.06-.23-.11-.44-.17-.64A2.88,2.88,0,0,1,32.57,36.54Zm4.61-6.07c.57-1.36,2-3.1,2.7-2.8s.49,2.5-.09,3.87c-.77,1.84-2,3.1-2.7,2.8S36.41,32.31,37.18,30.47Zm-5,3.48.17.51,0,.13a6.69,6.69,0,0,0-.29,1.21c-.09-.34-.19-.69-.33-1.17l-.11-.36c.1-.27.21-.55.34-.83h0C32,33.59,32.1,33.77,32.16,34Z"/></svg>