<?xml version="1.0" encoding="utf-8"?>
<!-- Generator: Adobe Illustrator 26.0.2, SVG Export Plug-In . SVG Version: 6.00 Build 0)  -->
<svg version="1.1" id="Layer_1" xmlns="http://www.w3.org/2000/svg" xmlns:xlink="http://www.w3.org/1999/xlink" x="0px" y="0px"
	 viewBox="0 0 85 85" style="enable-background:new 0 0 85 85;" xml:space="preserve">
<style type="text/css">
	.st0{fill:#FFFFFF;}
</style>
<path class="st0" d="M77.9,4.1c-4-0.4-17.2,11-26.8,24.7c-3.1,4.3-5.9,8.8-8.4,13.4c-1.4-3.2-3.9-8.3-9.9-16.6
	C23.2,12.3,11.1,3,6.2,5.3C-1.2,8.7,3.9,36,9.4,49.5c2.6,6.4,6.9,15.8,14.1,23.7c4.7,5.2,8.8,7.8,12.4,7.8c1,0,2-0.2,3-0.6
	c4.8-2.1,5.2-10.2,5.1-16.9c0.6,2,1.8,3.7,3.5,4.9c2.8,1.7,6.7,0.9,10.9-2.1c5.1-3.7,9.6-10.1,12.7-18c2.3-6.1,10.3-31.5,3.4-34.6
	c-0.8-0.3-1.7-0.2-2.5,0.2c-5.6,2.3-19.9,16.5-27.4,33.6c-0.4-1.1-0.7-2-1-3c2.6-5.1,5.7-9.9,9-14.6C62.7,15.2,75,5.4,77.7,5.7
	c3.9,0.4,3.2,10,2.8,14.6v0.8c-1.1,14-5.8,29.8-12.2,40.3c-6.8,11.1-12.8,17.8-16,17.8V81c5.1,0,12.3-10.1,17.4-18.6
	c6.5-10.7,11.4-26.9,12.4-41.1l0.1-0.8C82.7,14.5,83.4,4.6,77.9,4.1z M38.1,78.8c-3.5,1.5-8-0.7-13.4-6.7c-7-7.8-11.2-17-13.8-23.2
	C4.7,33.6,1.6,9.3,6.9,6.8c0.3-0.1,0.6-0.2,1-0.2c4.1,0,14.1,7,23.4,20c6.1,8.5,8.6,13.6,9.9,16.7c0.1,0.3,0.3,0.6,0.4,1
	c-0.3,0.5-0.5,1.1-0.8,1.6c-0.1,0.2-0.1,0.3-0.2,0.5c-4.4-12.6-18.3-29-26-32.4c-1.2-0.7-2.5-0.8-3.8-0.4c-1.4,0.7-2.4,1.9-2.9,3.4
	C5.5,23.3,8.5,37.2,12.7,46c2.3,4.5,5.8,10.6,8.9,14c5.4,5.9,10.1,9,13.1,9c0.5,0,1-0.1,1.4-0.3c0.5-0.1,0.9-0.4,1.2-0.8
	c1.2-1.5,1.6-4.5,1.2-9c0.4-0.7,0.7-1.4,0.9-2.1c0.1-0.5,0.2-0.9,0.3-1.4c0.2-1.3,0.5-2.6,0.8-3.8c0.4,1.3,0.6,2.2,0.9,3.5
	c0,0,0.2,0.9,0.6,2.2c0,1.2,0,2.5,0,4C42.3,67.5,42.5,76.9,38.1,78.8z M18.1,44.3c-3.4-6.2-5.6-16.5-2.2-18.1
	c3.4-1.6,11.1,6.1,14.6,12.4c4.7,8.4,5.7,16.5,2.2,18.1S22.8,52.7,18.1,44.3z M38.3,54.5c-0.2-4.6-2.2-10.8-5.7-17.1
	C28,29.1,17.7,18.9,13.2,21s-1.6,15.9,3,24.1c4.9,8.9,11.4,15.4,16.2,16.6v0.1c0.5,0.1,0.9,0.1,1.4,0.1c0.5,0,1-0.1,1.5-0.2
	c0.7-0.2,1.3-0.5,1.8-1c0.2,5.6-1.2,6.3-1.2,6.3h-0.2l-0.2,0.1c-1.2,0.6-5.2-0.4-12.6-8.3c-3-3.2-6.6-9.3-8.6-13.6
	c-4.1-8.4-7-21.9-4.7-27.9c0.3-1,1-1.9,2-2.4c0.8-0.2,1.7,0,2.4,0.4c7.4,3.3,21.7,20.4,25.5,32.6l0,0l0.2,0.8
	C39.1,50.6,38.6,52.5,38.3,54.5z M44.1,55c0.1-0.4,0.2-0.8,0.2-1.2c0.1-0.4,0.1-0.8,0.2-1.2c0.2,0.5,0.4,1.1,0.6,1.7
	c0.6,2.1,2,3.8,4,4.8c1.8,0.7,3.9,0.5,5.6-0.5c3.7-1.7,8.4-7,12.1-14.1c3.7-7,6.3-19.2,2.6-21c-3.6-1.8-12,7.1-15.7,14.3
	c-4.3,8.3-5.9,16.4-3.9,19.7h-0.2c-1.4-0.9-2.5-2.3-3-3.9c-0.4-1.2-0.7-2.1-1-3.1l-0.3-1v-0.1c7-17.4,21.6-32.2,27.2-34.4
	c0.4-0.2,0.8-0.3,1.2-0.2c4.2,1.9,0.2,20.8-4.3,32.5c-2.8,7.6-7.3,13.9-12.1,17.3c-3.5,2.6-6.8,3.3-9,2c-2.2-1.3-3.2-5-4-7.9
	c-0.2-0.6-0.3-1.2-0.5-1.8C43.8,56.4,43.9,55.7,44.1,55z M56.7,38.3c1.6-3.7,5.4-8.5,7.5-7.7c2,0.8,1.3,6.9-0.2,10.6
	c-2.1,5.1-5.5,8.5-7.5,7.8C54.5,48.3,54.6,43.4,56.7,38.3z M43,47.8l0.5,1.4c0,0.1,0.1,0.2,0.1,0.4c-0.4,1.1-0.6,2.2-0.8,3.3
	c-0.2-0.9-0.5-1.9-0.9-3.2l-0.3-1c0.3-0.7,0.6-1.5,0.9-2.3l0,0C42.6,46.9,42.8,47.4,43,47.8z"/>
</svg>
