<?xml version="1.0" encoding="utf-8"?>
<!-- Generator: Adobe Illustrator 26.0.2, SVG Export Plug-In . SVG Version: 6.00 Build 0)  -->
<svg version="1.1" id="Layer_1" xmlns="http://www.w3.org/2000/svg" xmlns:xlink="http://www.w3.org/1999/xlink" x="0px" y="0px"
	 viewBox="0 0 1345 820" style="enable-background:new 0 0 1345 820;" xml:space="preserve">
<style type="text/css">
	.st0{fill:url(#SVGID_1_);}
	.st1{fill:url(#SVGID_00000023256631874960509420000018381768097055922110_);}
</style>
<linearGradient id="SVGID_1_" gradientUnits="userSpaceOnUse" x1="39.919" y1="94.5272" x2="1452.8358" y2="803.6263" gradientTransform="matrix(1 0 0 -1 0 822)">
	<stop  offset="0.43" style="stop-color:#200B7A"/>
	<stop  offset="0.5156" style="stop-color:#250B77"/>
	<stop  offset="0.5975" style="stop-color:#350C6E"/>
	<stop  offset="0.6769" style="stop-color:#4F0E5F"/>
	<stop  offset="0.7556" style="stop-color:#730F4A"/>
	<stop  offset="0.83" style="stop-color:#A1122F"/>
	<stop  offset="0.92" style="stop-color:#D9150F"/>
	<stop  offset="0.92" style="stop-color:#DA150E"/>
	<stop  offset="0.97" style="stop-color:#DC150E"/>
	<stop  offset="0.99" style="stop-color:#E3160D"/>
	<stop  offset="1" style="stop-color:#E9160D"/>
</linearGradient>
<rect class="st0" width="1345" height="820"/>
<linearGradient id="SVGID_00000132793540147616245580000002710192494307141254_" gradientUnits="userSpaceOnUse" x1="5690.0215" y1="-2341.7227" x2="5968.8589" y2="-1877.9491" gradientTransform="matrix(-0.1045 0.9945 -0.9945 -0.1045 -315.862 -5848.498)">
	<stop  offset="0" style="stop-color:#DA150E"/>
	<stop  offset="0" style="stop-color:#DC150E"/>
	<stop  offset="0" style="stop-color:#E5160D"/>
	<stop  offset="0" style="stop-color:#E9160D"/>
	<stop  offset="0.24" style="stop-color:#E6160E"/>
	<stop  offset="0.38" style="stop-color:#DE1513"/>
	<stop  offset="0.51" style="stop-color:#CF151B"/>
	<stop  offset="0.62" style="stop-color:#BB1326"/>
	<stop  offset="0.72" style="stop-color:#A01234"/>
	<stop  offset="0.81" style="stop-color:#7F1046"/>
	<stop  offset="0.9" style="stop-color:#590E5B"/>
	<stop  offset="0.98" style="stop-color:#2D0C73"/>
	<stop  offset="1" style="stop-color:#200B7A"/>
</linearGradient>
<path style="fill:url(#SVGID_00000132793540147616245580000002710192494307141254_);" d="M1272.2,0h-33.7
	c39.1,38.5,75,78.9,106.5,118.4V81.6C1322.5,54.3,1298.1,26.8,1272.2,0z M1216.5,20.9c-9.1-7.3-18.1-14.4-27.1-20.9H945.6
	c0.2,0.4,0.3,0.7,0.4,1.1c16.5,61.6,79.3,145.9,166.8,216.7c68.8,55.6,174.3,103.7,232.2,97.9v-148
	C1311.1,113.8,1261.4,57.3,1216.5,20.9z M1296.8,199c-13.3,30.1-91.1,9.5-137.8-21.8c-62.9-42.2-103.1-100.9-89.8-131.1
	c13.3-30.2,74.9-20.4,137.8,21.9C1253.2,99.1,1310,168.9,1296.8,199z M1071.1,254.4L1071.1,254.4C977.4,195.8,901.5,115.1,863,32.9
	c-5.1-10.7-9.5-21.7-13.4-32.9h-23.4c4.9,15.9,11,31.5,18.2,46.5c41.2,87.8,118.2,170,217,231.7c45.1,28.2,174.8,98.9,283.6,130.4
	v-27.8C1258.5,355.1,1150.7,304.1,1071.1,254.4z M890.1,214C800.7,130.7,736.1,56,703.9,0H678c37.2,74.7,123.1,164.8,199.1,235.5
	c119.2,111.2,298.3,207.7,467.8,254.1v-27.4C1179.6,416.2,1005.9,322.2,890.1,214z M1343.9,0h-33.2c4.4,4.7,9,9.5,13.6,14.5
	c6.9,7.4,13.9,14.9,20.7,22.5V1.2C1344.6,0.7,1344.3,0.4,1343.9,0z"/>
</svg>
