<svg id="Layer_1" data-name="Layer 1" xmlns="http://www.w3.org/2000/svg" xmlns:xlink="http://www.w3.org/1999/xlink" viewBox="0 0 1345 820"><defs><style>.cls-1{fill:url(#linear-gradient);}.cls-2{fill:url(#linear-gradient-2);}</style><linearGradient id="linear-gradient" x1="-108.51" y1="735.31" x2="1397.01" y2="108.23" gradientUnits="userSpaceOnUse"><stop offset="0.43" stop-color="#200b7a"/><stop offset="0.51" stop-color="#430d66"/><stop offset="0.65" stop-color="#831040"/><stop offset="0.78" stop-color="#b21325"/><stop offset="0.87" stop-color="#cf1414"/><stop offset="0.92" stop-color="#da150e"/><stop offset="0.97" stop-color="#dc150e"/><stop offset="0.99" stop-color="#e3160d"/><stop offset="1" stop-color="#e9160d"/></linearGradient><linearGradient id="linear-gradient-2" x1="3354.84" y1="-2184.65" x2="3751.29" y2="-1525.28" gradientTransform="translate(-443.67 -3477.58) rotate(96)" gradientUnits="userSpaceOnUse"><stop offset="0" stop-color="#da150e"/><stop offset="0" stop-color="#dc150e"/><stop offset="0" stop-color="#e5160d"/><stop offset="0" stop-color="#e9160d"/><stop offset="0.24" stop-color="#e6160e"/><stop offset="0.38" stop-color="#de1513"/><stop offset="0.51" stop-color="#cf151b"/><stop offset="0.62" stop-color="#bb1326"/><stop offset="0.72" stop-color="#a01234"/><stop offset="0.81" stop-color="#7f1046"/><stop offset="0.9" stop-color="#590e5b"/><stop offset="0.98" stop-color="#2d0c73"/><stop offset="1" stop-color="#200b7a"/></linearGradient></defs><rect class="cls-1" width="1345" height="820"/><path class="cls-2" d="M1039.37,27.88Q1021.27,13.21,1003.19,0H678.35c.18.54.37,1,.53,1.42C700.9,83.55,784.59,196,901.15,290.3c119,96.18,320.26,175.31,358.4,103C1297.72,320.68,1156.79,122.81,1039.37,27.88Zm107.07,237.45c-17.68,40.16-121.37,12.77-183.69-29C878.93,180.12,825.38,101.75,843.12,61.59s99.81-27.16,183.62,29.1C1088.32,132,1164,225.1,1146.44,265.33ZM1113.68,0h-44.93c121,119.24,218.63,251.7,276.25,353.56V295C1289.44,205,1209.46,99.07,1113.68,0Zm-268,339C720.72,261,619.55,153.42,568.27,43.9A447,447,0,0,1,550.34,0H519.27a477.49,477.49,0,0,0,24.2,62c54.92,117,157.61,226.67,289.21,308.88C913.47,421.3,1198,574.18,1345,565.18V530C1235.54,536.06,1000.57,435.71,845.64,339Zm448.84,297.15-13.93-2.93c-240.07-52-505.47-188.54-676.16-347.92C485.21,174.1,399.21,74.57,356.24,0H321.8C371.52,99.55,486,219.53,587.16,314c174.06,162.38,444.25,301.51,688.42,354.45l13.8,3c17,3.71,35.84,7.84,55.62,11.62V646.77C1326.27,643.18,1309,639.36,1294.48,636.18ZM1209.28,0H1165q8.91,9.4,18.11,19.24A2156.5,2156.5,0,0,1,1345,213.87v-51.5C1303.16,107.12,1257.43,52,1209.28,0Z"/></svg>