<?xml version="1.0" encoding="utf-8"?>
<!-- Generator: Adobe Illustrator 26.0.2, SVG Export Plug-In . SVG Version: 6.00 Build 0)  -->
<svg version="1.1" id="main" xmlns="http://www.w3.org/2000/svg" xmlns:xlink="http://www.w3.org/1999/xlink" x="0px" y="0px"
	 viewBox="0 0 64 64" style="enable-background:new 0 0 64 64;" xml:space="preserve">
<style type="text/css">
	.st0{fill:none;}
	.st1{fill:#FFFFFF;}
	.st2{fill:url(#SVGID_1_);}
</style>
<rect x="-18" y="-41" class="st0" width="116" height="125"/>
<rect x="11.8" y="7" class="st1" width="40.4" height="50"/>
<linearGradient id="SVGID_1_" gradientUnits="userSpaceOnUse" x1="22.4916" y1="57.7522" x2="40.7503" y2="27.3927" gradientTransform="matrix(1 0 0 -1 0 66)">
	<stop  offset="0" style="stop-color:#DA150E"/>
	<stop  offset="0" style="stop-color:#DC150E"/>
	<stop  offset="0" style="stop-color:#E5160D"/>
	<stop  offset="0" style="stop-color:#E9160D"/>
	<stop  offset="0.24" style="stop-color:#E6160E"/>
	<stop  offset="0.38" style="stop-color:#DE1513"/>
	<stop  offset="0.51" style="stop-color:#CF151B"/>
	<stop  offset="0.62" style="stop-color:#BB1326"/>
	<stop  offset="0.72" style="stop-color:#A01234"/>
	<stop  offset="0.81" style="stop-color:#7F1046"/>
	<stop  offset="0.9" style="stop-color:#590E5B"/>
	<stop  offset="0.98" style="stop-color:#2D0C73"/>
	<stop  offset="1" style="stop-color:#200B7A"/>
</linearGradient>
<path class="st2" d="M47.6,15c-1.7-0.2-7.6,4.8-11.8,10.9c-1.4,1.9-2.6,3.9-3.7,5.9c-1.2-2.6-2.7-5.1-4.4-7.4
	c-4.2-5.9-9.6-10-11.7-9c-3.3,1.5-1,13.6,1.4,19.6c1.5,3.8,3.6,7.4,6.2,10.5c2.1,2.3,3.9,3.4,5.5,3.4c0.4,0,0.9-0.1,1.3-0.3
	c2.1-1,2.3-4.5,2.2-7.5c0.3,0.9,0.8,1.6,1.6,2.1c1.3,0.7,2.9,0.4,4.8-0.9c2.6-2.1,4.5-4.8,5.6-8c1-2.7,4.6-13.9,1.5-15.3
	c-0.4-0.1-0.8-0.1-1.1,0.1c-2.5,1-8.9,7.3-12.1,14.9c-0.2-0.5-0.3-0.9-0.4-1.3c1.2-2.3,2.5-4.4,4-6.5c4.5-6.4,9.9-10.7,11.2-10.6
	c1.7,0.2,1.4,4.4,1.3,6.5v0.4c-0.5,6.3-2.3,12.3-5.4,17.8c-3,4.9-5.6,7.9-7.1,7.9V49c2.2,0,5.4-4.5,7.7-8.2c3.1-5.6,5-11.8,5.5-18.2
	v-0.4C49.7,19.6,50.1,15.2,47.6,15z M30.1,48c-1.5,0.7-3.5-0.3-5.9-3c-2.6-3.1-4.6-6.5-6.1-10.3c-2.8-6.7-4.2-17.5-1.8-18.6
	c0.1-0.1,0.3-0.1,0.4-0.1c1.8,0,6.2,3.1,10.4,8.9c1.7,2.3,3.2,4.8,4.4,7.4c0.1,0.1,0.1,0.3,0.2,0.4c0.1,0.2-0.2,0.5-0.3,0.7
	l-0.1,0.2c-2-5.6-8.1-12.9-11.5-14.4c-0.5-0.3-1.1-0.3-1.6-0.2c-0.6,0.3-1.1,0.8-1.3,1.5c-1.1,2.9,0.2,9,2.1,12.9
	c1,2.2,2.4,4.3,3.9,6.2c2.4,2.5,4.5,4,5.8,4c0.2,0,0.4,0,0.6-0.1c0.2-0.1,0.4-0.2,0.5-0.4c0.5-0.6,0.7-2,0.5-4
	c0.2-0.3,0.3-0.6,0.4-0.9c0.1-0.2,0.1-0.4,0.1-0.6c0.1-0.6,0.2-1.1,0.4-1.7c0.2,0.6,0.3,1,0.4,1.5c0,0,0.1,0.4,0.3,1
	c0.2,0.6,0,1.1,0,1.8C31.9,43,32,47.2,30.1,48z M21.2,32.8c-1.5-2.7-2.5-7.3-1-8c1.5-0.7,4.9,2.7,6.4,5.5c2.1,3.7,2.5,7.3,1,8
	C26.1,39,23.3,36.5,21.2,32.8L21.2,32.8z M30.1,37.3c-0.3-2.7-1.2-5.3-2.5-7.6c-2-3.7-6.6-8.2-8.6-7.3s-0.7,7,1.3,10.7
	c2.2,4,5.1,6.8,7.1,7.3l0,0c0.2,0,0.4,0,0.6,0c0.2,0,0.5,0,0.7-0.1c0.3-0.1,0.6-0.2,0.8-0.4c0.1,2.5-0.5,2.8-0.5,2.8h-0.1h-0.1
	c-0.5,0.3-2.3-0.2-5.6-3.7c-1.5-1.8-2.8-3.9-3.8-6c-1.8-3.7-3.1-9.7-2.1-12.4c0.1-0.5,0.5-0.8,0.9-1.1c0.4-0.1,0.8,0,1.1,0.2
	c3.3,1.5,9.6,9,11.3,14.4l0,0l0.1,0.3C30.4,35.5,30.2,36.4,30.1,37.3L30.1,37.3z M32.6,37.5c0-0.2,0.1-0.4,0.1-0.5
	c0-0.2,0-0.3,0.1-0.5c0.1,0.2,0.2,0.5,0.3,0.8c0.3,0.9,1,1.7,1.8,2.1c0.8,0.3,1.8,0.2,2.5-0.2c1.6-0.7,3.7-3.1,5.4-6.2
	c1.6-3.2,2.8-8.5,1.2-9.3c-1.6-0.8-5.3,3.2-6.9,6.3c-1.9,3.7-2.5,7.2-1.7,8.7h-0.1c-0.6-0.4-1.1-1-1.3-1.7c-0.2-0.5-0.3-0.9-0.5-1.4
	c0-0.1-0.1-0.3-0.1-0.5l0,0c3.1-7.7,9.5-14.3,12-15.2c0.3-0.1,0.5-0.1,0.5-0.1C47.7,20.7,46,29,44,34.2c-1,3-2.9,5.6-5.3,7.6
	c-1.6,1.2-3,1.5-4,0.9s-1.4-2.2-1.8-3.5c0-0.3-0.1-0.5-0.2-0.8C32.6,38.1,32.6,37.8,32.6,37.5L32.6,37.5z M38.3,30.1
	c0.7-1.6,2.4-3.8,3.3-3.4c0.9,0.4,0.6,3-0.1,4.7c-0.9,2.2-2.4,3.8-3.3,3.4C37.4,34.5,37.4,32.4,38.3,30.1z M32.2,34.4l0.2,0.6
	c0,0.1,0,0.1,0,0.2c-0.2,0.5-0.3,1-0.4,1.5l-0.4-1.4l-0.1-0.4c0.1-0.3,0.3-0.7,0.4-1l0,0C32,33.9,32.1,34.1,32.2,34.4L32.2,34.4z"/>
</svg>
