<svg id="Layer_1" data-name="Layer 1" xmlns="http://www.w3.org/2000/svg" xmlns:xlink="http://www.w3.org/1999/xlink" viewBox="0 0 285 141.73"><defs><style>.cls-1{fill:url(#linear-gradient);}.cls-2{fill:url(#linear-gradient-2);}</style><linearGradient id="linear-gradient" x1="-16.82" y1="137.23" x2="290.29" y2="9.31" gradientUnits="userSpaceOnUse"><stop offset="0.43" stop-color="#200b7a"/><stop offset="0.51" stop-color="#430d66"/><stop offset="0.65" stop-color="#831040"/><stop offset="0.78" stop-color="#b21325"/><stop offset="0.87" stop-color="#cf1414"/><stop offset="0.92" stop-color="#da150e"/><stop offset="0.97" stop-color="#dc150e"/><stop offset="0.99" stop-color="#e3160d"/><stop offset="1" stop-color="#e9160d"/></linearGradient><linearGradient id="linear-gradient-2" x1="-90.44" y1="11.4" x2="-26.73" y2="117.36" gradientTransform="translate(263.27 109.23) rotate(96)" gradientUnits="userSpaceOnUse"><stop offset="0" stop-color="#da150e"/><stop offset="0" stop-color="#dc150e"/><stop offset="0" stop-color="#e5160d"/><stop offset="0" stop-color="#e9160d"/><stop offset="0.24" stop-color="#e6160e"/><stop offset="0.38" stop-color="#de1513"/><stop offset="0.51" stop-color="#cf151b"/><stop offset="0.62" stop-color="#bb1326"/><stop offset="0.72" stop-color="#a01234"/><stop offset="0.81" stop-color="#7f1046"/><stop offset="0.9" stop-color="#590e5b"/><stop offset="0.98" stop-color="#2d0c73"/><stop offset="1" stop-color="#200b7a"/></linearGradient></defs><rect class="cls-1" width="285" height="141.74"/><path class="cls-2" d="M227.34,17.81c-8.2-7.13-15.25-12.9-21.83-17.81H198.3a334,334,0,0,1,26.31,21.05c34.08,29.63,55.46,63.34,54,70.27-2,9.69-26.09,5.37-37.69,3.29l-2-.35C203.76,88.05,165,71.78,140,52.78c-26.4-20.1-41.65-37-40.79-45.19l-4.16-.43c-1.35,12.8,22.33,33.73,42.43,49,25.44,19.36,64.93,36,100.62,42.26l2,.36c14.86,2.66,39.73,7.11,42.53-6.64C284.68,82.19,259.59,45.86,227.34,17.81ZM173.39,63c14.87,7.57,77,34.53,86.67,17.86.88-1.54.94-3.63.16-6.38-4-14.12-33.28-50.86-71.5-74.46H180.4c40.3,22.72,71.78,61.35,75.79,75.64.53,1.84.41,2.79.25,3-5.85,10.12-52.73-5-81.16-19.51-18.26-9.3-33-22.13-40.54-35.19C129.16,14.3,128.15,5.8,132,.66q.26-.35.54-.66h-5.08c-3.54,6.59-2.26,15.77,3.71,26.15C139.14,40.1,154.15,53.18,173.39,63Zm10-9.61c17.4,11.47,46.81,20.9,52.39,12.27s-15-32.24-32.18-43.56C183.67,8.92,163.7,3,154.8,7c.07-.16.1-.3.17-.46.81-1.76,4.69-5,10.44-6.44l.2,0H155.44a13.1,13.1,0,0,0-4.26,4.69,16.9,16.9,0,0,0-.27,14.24C154.13,28.72,166.36,42.12,183.39,53.37ZM174.91,26.1c2.58-4.79,14.59-3.24,26.84,3.47,9,4.92,20.07,16,17.49,20.82s-17.73,1.53-26.84-3.46C180.15,40.23,172.32,30.89,174.91,26.1Z"/></svg>