<svg id="main" xmlns="http://www.w3.org/2000/svg" xmlns:xlink="http://www.w3.org/1999/xlink" viewBox="0 0 104 40"><defs><linearGradient id="linear-gradient" x1="10.8" y1="1163.26" x2="28.45" y2="1192.62" gradientTransform="translate(0 -1166.24)" gradientUnits="userSpaceOnUse"><stop offset="0" stop-color="#da150e"/><stop offset="0" stop-color="#dc150e"/><stop offset="0" stop-color="#e5160d"/><stop offset="0" stop-color="#e9160d"/><stop offset="0.24" stop-color="#e6160e"/><stop offset="0.38" stop-color="#de1513"/><stop offset="0.51" stop-color="#cf151b"/><stop offset="0.62" stop-color="#bb1326"/><stop offset="0.72" stop-color="#a01234"/><stop offset="0.81" stop-color="#7f1046"/><stop offset="0.9" stop-color="#590e5b"/><stop offset="0.98" stop-color="#2d0c73"/><stop offset="1" stop-color="#200b7a"/></linearGradient></defs><rect x="21.08" y="-117.12" width="116" height="125" style="fill:none"/><rect x="1.95" y="2.01" width="98.18" height="35.98" style="fill:none"/><rect width="104" height="40" style="fill:none"/><path d="M50.85,32.85c-1.1,0-1.65-.4-1.65-1.19s.53-1.19,1.65-1.19h4.33a1.74,1.74,0,0,0,1.17-.53l.58-.53a1.4,1.4,0,0,0,.33-.94V25.33l-.44.43a3.1,3.1,0,0,1-1.89,1.16H52.08a2.46,2.46,0,0,1-1.78-.72l-1.47-1.29a2.47,2.47,0,0,1-.76-2.21V19.24a3.34,3.34,0,0,1,.81-2.46l1.74-1.34a2.19,2.19,0,0,1,1.5-.56h2.26a4.21,4.21,0,0,1,2.35,1.17l.53.43v-.21a1.27,1.27,0,0,1,1.12-1.39h.12c1,0,1.18.83,1.18,1.66V27.88c0,2.19-.21,2.59-1.16,3.38l-.79.66a3.77,3.77,0,0,1-3,1Zm1.57-15.69a1.08,1.08,0,0,0-.57.19l-1,.8c-.27.2-.29.69-.29,1.19v3c0,.49,0,1,.29,1.19l1,.8a1.1,1.1,0,0,0,.66.21h1.72c.29,0,.61-.23,1.08-.61l1.89-1.47a1.11,1.11,0,0,0,.23-.76V20a1.11,1.11,0,0,0-.23-.76l-1.89-1.47c-.47-.38-.79-.61-1.08-.61Z" style="fill:#200b7a"/><path d="M50.85,32.76c-1,0-1.55-.36-1.55-1.1s.49-1.1,1.55-1.1h4.33A1.92,1.92,0,0,0,56.41,30l.58-.55a1.36,1.36,0,0,0,.36-1V25.1l-.6.59a3.06,3.06,0,0,1-1.89,1.13H52.08a2.35,2.35,0,0,1-1.72-.7l-1.48-1.21a2.45,2.45,0,0,1-.72-2.13V19.24a3.11,3.11,0,0,1,.8-2.38l1.72-1.34A2.07,2.07,0,0,1,52.12,15h2.26a4.43,4.43,0,0,1,2.29,1.15l.68.55v-.4a1.17,1.17,0,0,1,1-1.29h.12c1,0,1.08.76,1.08,1.57v11.3c0,2.15-.19,2.53-1.13,3.31l-.78.66a3.79,3.79,0,0,1-2.91,1Zm1.57-15.69a1,1,0,0,0-.72.24l-1,.78c-.31.23-.33.75-.33,1.25v3c0,.51,0,1,.33,1.27l1,.77a1,1,0,0,0,.72.25h1.72A2,2,0,0,0,55.27,24l1.89-1.47a1.1,1.1,0,0,0,.27-.83V20a1.19,1.19,0,0,0-.27-.83l-1.89-1.48a2.08,2.08,0,0,0-1.13-.62Z" style="fill:#200b7a"/><path d="M69.9,27.9c-.41,0-.75-.4-1-.76l-1.25-1.89-1.26,1.89c-.25.36-.59.76-1,.76h-.9c-.76,0-1-.59-1.14-1.21L62.1,23l-.25-6.52a1.89,1.89,0,0,1,.36-1.4,1.07,1.07,0,0,1,.81-.3c1,0,1.19.91,1.21,1.7l.25,6,.71,2.08,1.25-2.12V20.36c0-.46,0-1.65,1.21-1.65s1.21,1.19,1.21,1.65v2.15l1.23,2.08.66-2.12.23-6c0-.79.19-1.7,1.21-1.7a1.21,1.21,0,0,1,.83.3,1.89,1.89,0,0,1,.36,1.4L73.21,23S72,26.67,72,26.8c-.21.63-.4,1.21-1.15,1.21Z" style="fill:#200b7a"/><path d="M69.9,27.8c-.36,0-.68-.37-.92-.71L67.65,25.2l-1.34,1.89c-.23.34-.55.71-.93.71h-.9c-.68,0-.85-.53-1.06-1.15,0-.09-1.21-3.65-1.23-3.78h0l-.25-6.46a1.72,1.72,0,0,1,.33-1.33A1,1,0,0,1,63,14.8c1,0,1.1.81,1.12,1.61l.24,6,.8,2.47,1.36-2.3V20.36c0-.72.11-1.55,1.11-1.55s1.12.83,1.12,1.55v2.15l1.36,2.4.77-2.3.25-6c0-.8.19-1.61,1.11-1.61a1,1,0,0,1,.76.28,1.76,1.76,0,0,1,.34,1.33L73.11,23l-1.24,3.8c-.21.63-.38,1.16-1.06,1.16Z" style="fill:#200b7a"/><path d="M80,27.9a2.56,2.56,0,0,1-2.12-.64l-1-.87a2.86,2.86,0,0,1-1.21-2.63V19.24a3.05,3.05,0,0,1,1.17-2.81l.83-.7a3.2,3.2,0,0,1,2.59-1h2.16A3.4,3.4,0,0,1,85,15.6l1,.74a3.33,3.33,0,0,1,1.23,3.06v1.89c0,1.34-.23,1.76-1.65,1.76H78v.73a1.06,1.06,0,0,0,.34.67l.59.64a2.06,2.06,0,0,0,1.55.41h5.06c1.12,0,1.65.4,1.65,1.2s-.55,1.19-1.65,1.19Zm4.85-7.22V19.24a1.13,1.13,0,0,0-.3-1l-.9-.78a1.72,1.72,0,0,0-1.12-.28h-2a1.93,1.93,0,0,0-1.2.26l-.81.59a1,1,0,0,0-.47,1v1.63Z" style="fill:#200b7a"/><path d="M80,27.8a2.46,2.46,0,0,1-2.06-.6l-1-.87a2.83,2.83,0,0,1-1.2-2.57V19.24a3,3,0,0,1,1.14-2.74l.83-.7a3.07,3.07,0,0,1,2.53-.92H82.4a3.41,3.41,0,0,1,2.57.83l1,.75a3.18,3.18,0,0,1,1.19,3v1.89c0,1.3-.19,1.66-1.55,1.66H78v.83a1.3,1.3,0,0,0,.36.74l.59.63a2.1,2.1,0,0,0,1.62.45h5.07c1.06,0,1.55.36,1.55,1.1s-.51,1.09-1.55,1.09Zm5-7V19.24a1.23,1.23,0,0,0-.32-1l-.91-.85a1.85,1.85,0,0,0-1.19-.3h-2a2,2,0,0,0-1.25.28l-.82.59a1.12,1.12,0,0,0-.58,1v1.72Z" style="fill:#200b7a"/><path d="M99.8,27.9c-1.15,0-1.19-1.21-1.21-1.61l-.24-7.16c0-1.32-.13-1.89-1.57-1.89H96a1.44,1.44,0,0,0-.68.11l-3.51,2.18v6.71c0,.45,0,1.62-1.21,1.62s-1.19-1.17-1.19-1.62v-9.7c0-.85,0-1.76,1.19-1.76s1.21.87,1.21,1.74v.26l1.89-1.21a3.85,3.85,0,0,1,2-.79h1.8a3,3,0,0,1,2.19.87,3.31,3.31,0,0,1,1.06,2.87l.26,7.56a2.1,2.1,0,0,1-.36,1.48A1.12,1.12,0,0,1,99.8,27.9Z" style="fill:#200b7a"/><path d="M99.8,27.8c-.94,0-1.09-.85-1.11-1.51l-.25-7.16c0-1.36-.13-2.06-1.66-2.06H96a1.41,1.41,0,0,0-.68.28l-3.53,2.18v6.8c0,.72-.11,1.53-1.12,1.53s-1.09-.81-1.09-1.53V16.54c0-.83,0-1.66,1.09-1.66s1.12.79,1.12,1.64v.42h.13l1.89-1.23a3.75,3.75,0,0,1,2-.78h1.75a3,3,0,0,1,2.14.83,3.31,3.31,0,0,1,1,2.84l.26,7.56a2,2,0,0,1-.34,1.4A1,1,0,0,1,99.8,27.8Z" style="fill:#200b7a"/><path d="M50.6,32.87c-1.3,0-1.45-.58-1.45-1s.17-1,1.45-1h4.29a1.87,1.87,0,0,0,1.27-.57l.58-.55a1.53,1.53,0,0,0,.4-1.08V25.09l-.76.76A3,3,0,0,1,54.51,27H51.82a2.26,2.26,0,0,1-1.66-.67L48.7,25A2.4,2.4,0,0,1,48,22.89v-3.5a3.1,3.1,0,0,1,.75-2.3l1.71-1.36a1.85,1.85,0,0,1,1.37-.53h2.23a4.07,4.07,0,0,1,2.21,1.14l.84.66v-.59a1.06,1.06,0,0,1,.91-1.2h.13c.81,0,1,.59,1,1.48V28.07c0,2.13-.19,2.49-1.09,3.25l-.77.66a3.5,3.5,0,0,1-2.83,1Zm1.55-15.72a1.1,1.1,0,0,0-.77.27l-1,.77c-.34.27-.36.8-.36,1.35v3c0,.55,0,1.08.36,1.34l1,.79a1.14,1.14,0,0,0,.77.26h1.71A2.25,2.25,0,0,0,55,24.3l1.87-1.48a1.26,1.26,0,0,0,.3-.91V20.16a1.3,1.3,0,0,0-.3-.92L55,17.77a2.19,2.19,0,0,0-1.18-.62Z" style="fill:#200b7a"/><path d="M69.47,27.9c-.31,0-.61-.36-.84-.68l-1.39-2.13-1.4,2.1c-.2.3-.51.68-.85.68H64.1c-.6,0-.75-.47-1-1.08l-1.22-3.7-.24-6.51a1.7,1.7,0,0,1,.29-1.26.94.94,0,0,1,.68-.25c.69,0,1,.46,1,1.51l.24,6,.85,2.57,1.47-2.54V20.52c0-1,.31-1.47,1-1.47s1,.45,1,1.47v2.22l1.5,2.44.84-2.54.25-6c0-1.08.34-1.53,1-1.53a1,1,0,0,1,.7.25,1.7,1.7,0,0,1,.29,1.26l-.18,6.49s-1.2,3.65-1.23,3.8c-.19.6-.34,1.08-1,1.08Z" style="fill:#200b7a"/><path d="M79.48,27.9a2.37,2.37,0,0,1-2-.59l-1-.88a2.71,2.71,0,0,1-1.14-2.5V19.39a2.89,2.89,0,0,1,1.09-2.67l.82-.7a2.93,2.93,0,0,1,2.49-1h2.09a3.25,3.25,0,0,1,2.49.81l1,.76a3.15,3.15,0,0,1,1.08,3v1.89c0,1.26-.14,1.58-1.45,1.58H77.34V24a1.23,1.23,0,0,0,.4.8l.57.62a2.06,2.06,0,0,0,1.68.5h5c1.3,0,1.45.54,1.45,1s-.15,1-1.45,1Zm5-6.87V19.39a1.31,1.31,0,0,0-.36-1.11l-.89-.78A1.79,1.79,0,0,0,82,17.15H80a2,2,0,0,0-1.28.3l-.82.59a1.2,1.2,0,0,0-.55,1.19v1.93Z" style="fill:#200b7a"/><path d="M99.1,27.9c-.65,0-1-.44-1-1.43l-.24-7.19c0-1.38-.15-2.16-1.74-2.16h-.79a1.53,1.53,0,0,0-.83.25l-3.59,2.24v6.84c0,1-.3,1.45-1,1.45s-1-.44-1-1.45V16.68c0-.83,0-1.57,1-1.57s1,.62,1,1.55v.58l.26-.14,1.88-1.23a3.63,3.63,0,0,1,1.87-.73h1.74a2.87,2.87,0,0,1,2.07.81,3.26,3.26,0,0,1,1,2.77l.25,7.59a1.92,1.92,0,0,1-.31,1.34A.77.77,0,0,1,99.1,27.9Z" style="fill:#200b7a"/><path d="M35,3.5c-1.68-.15-7.31,4.68-11.39,10.59a51.55,51.55,0,0,0-3.56,5.76,38.1,38.1,0,0,0-4.23-7.08c-4-5.69-9.22-9.68-11.27-8.71-3.14,1.46-1,13.14,1.34,19a35.09,35.09,0,0,0,6,10.15c2,2.24,3.73,3.34,5.26,3.34a3.18,3.18,0,0,0,1.17-.35c2.07-.92,2.2-4.38,2.16-7.27A3.83,3.83,0,0,0,22.09,31c1.21.72,2.83.4,4.6-.91a16.9,16.9,0,0,0,5.39-7.73c1-2.63,4.41-13.5,1.46-14.84a1.3,1.3,0,0,0-1.07.09C30,8.54,23.94,14.66,20.83,22c-.15-.45-.28-.87-.43-1.23a49.37,49.37,0,0,1,3.82-6.26C28.51,8.28,33.74,4.1,34.92,4.23c1.65.16,1.35,4.28,1.22,6.27v.38A42.1,42.1,0,0,1,31,28.15c-2.88,4.78-5.42,7.64-6.81,7.64v.7c2.16,0,5.22-4.34,7.42-8a42.82,42.82,0,0,0,5.28-17.65v-.34C37.07,8,37.37,3.74,35,3.5Zm-16.9,32c-1.48.67-3.4-.3-5.71-2.89a34.52,34.52,0,0,1-5.84-10c-2.66-6.52-4-17-1.7-18a.76.76,0,0,1,.42-.09c1.72,0,6,3,10,8.59a36.42,36.42,0,0,1,4.23,7.17c.06.12.11.26.17.41s-.22.46-.32.68l-.1.22C17.33,16.18,11.46,9.16,8.2,7.7a2,2,0,0,0-1.59-.17A2.38,2.38,0,0,0,5.37,9c-1,2.79.2,8.73,2,12.52a27.53,27.53,0,0,0,3.77,6c2.3,2.45,4.3,3.87,5.6,3.87a1.75,1.75,0,0,0,.6-.14,1,1,0,0,0,.49-.35c.5-.63.68-1.92.51-3.84a3.36,3.36,0,0,0,.4-.91,2.9,2.9,0,0,0,.12-.6c.09-.55.2-1.1.34-1.63.16.53.27.94.39,1.48,0,0,.1.39.26.95a6.19,6.19,0,0,1,0,1.72C19.9,30.68,20,34.71,18.13,35.53ZM9.59,20.72C8.15,18.07,7.16,13.65,8.65,13s4.73,2.6,6.2,5.29c2,3.62,2.44,7.07,1,7.78s-4.21-1.7-6.19-5.31Zm8.54,4.41a18.55,18.55,0,0,0-2.43-7.37c-2-3.57-6.35-8-8.28-7.07S6.75,17.51,8.63,21c2.1,3.84,4.88,6.6,6.88,7.12h0a3,3,0,0,0,.6,0,1.61,1.61,0,0,0,.65-.1,2,2,0,0,0,.76-.41c.1,2.45-.5,2.72-.48,2.72h-.15c-.49.25-2.23-.17-5.38-3.58A27.51,27.51,0,0,1,7.86,21c-1.73-3.59-3-9.39-2-12a1.78,1.78,0,0,1,.84-1,1.54,1.54,0,0,1,1,.17c3.15,1.45,9.21,8.74,10.84,14h0l.1.33a16.34,16.34,0,0,0-.5,2.69Zm2.44.18a3.06,3.06,0,0,1,.1-.51,1.37,1.37,0,0,1,.08-.53c.07.23.16.48.26.75a3.45,3.45,0,0,0,1.78,2,2.87,2.87,0,0,0,2.44-.21c1.55-.71,3.58-3,5.16-6.07s2.66-8.21,1.12-9-5.1,3.15-6.68,6.19C23,21.53,22.39,25,23.17,26.4h-.08a2.77,2.77,0,0,1-1.21-1.63c-.19-.52-.31-.89-.44-1.32A2.16,2.16,0,0,0,21.3,23h0c3-7.48,9.17-13.82,11.55-14.74a.85.85,0,0,1,.5-.1c1.79.81.08,8.93-1.83,14a16.48,16.48,0,0,1-5.14,7.37c-1.5,1.12-2.91,1.43-3.82.89s-1.4-2.16-1.71-3.41a2.84,2.84,0,0,0-.2-.76,4.51,4.51,0,0,1,0-.9Zm5.53-7.14c.66-1.59,2.32-3.69,3.16-3.3s.56,3-.11,4.56c-.9,2.17-2.32,3.69-3.16,3.31S25.1,20.34,26.1,18.17Zm-5.86,4.1.21.6a.38.38,0,0,0,0,.15,7.81,7.81,0,0,0-.37,1.42l-.38-1.36-.14-.44.4-1h0a6.26,6.26,0,0,0,.21.61Z" style="fill:url(#linear-gradient)"/></svg>