<svg id="main" xmlns="http://www.w3.org/2000/svg" viewBox="0 0 64 64"><rect x="-20" y="-21" width="108" height="108" style="fill:none;stroke:#000;stroke-miterlimit:10"/><path d="M52,52.93c-.74.19-1.5.38-2.28.56a139.16,139.16,0,0,1-19.78,3q-4.1.36-8,.49H12V7H49.76V34.56c0,2,.09,4.13.29,6.35.12,1.25.26,2.52.43,3.81A79,79,0,0,0,52,52.93Z" style="fill:#f4e7ec"/><path d="M11.94,57h-.12V7H49.87V34.54c0,2,.09,4.15.29,6.31.12,1.29.26,2.57.43,3.79a75.29,75.29,0,0,0,1.57,8.16v.1h-.11c-.76.2-1.53.39-2.29.57a143.16,143.16,0,0,1-19.86,3c-2.7.23-5.38.39-8,.49Zm.11-.21h9.89q3.89-.15,8-.49a142.6,142.6,0,0,0,19.82-3l2.18-.53a78.83,78.83,0,0,1-1.54-8.08c-.17-1.23-.32-2.51-.43-3.8-.2-2.17-.3-4.3-.3-6.33V7.21H12.05Z" style="fill:#f4e7ec"/><path d="M20.07,29.11c0-1.38.83-2.07,1.69-2.07a1.54,1.54,0,0,1,1.17.45l-.32.33a1.2,1.2,0,0,0-.84-.33c-.57,0-1.11.41-1.11,1.62s.36,1.63,1,1.63a1.53,1.53,0,0,0,.73-.19V29.36h-.75l-.07-.45H23v1.93a2.66,2.66,0,0,1-1.32.35C20.68,31.19,20.07,30.5,20.07,29.11Z" style="fill:#1a1a1a"/><path d="M25.49,30.71h.86v.41H24v-.41h1V28.47H24v-.42h1.45Zm-.27-3.39a.35.35,0,0,1-.37-.33h0a.36.36,0,0,1,.35-.37h0a.38.38,0,0,1,.38.36h0a.36.36,0,0,1-.36.36h0Z" style="fill:#1a1a1a"/><path d="M28.69,31.12h-.62L27,28.05h.57l.85,2.58h0l.84-2.58h.56Z" style="fill:#1a1a1a"/><path d="M31.17,29.77a.88.88,0,0,0,.72,1h.16a1.19,1.19,0,0,0,.81-.29l.25.36A1.78,1.78,0,0,1,32,31.2a1.41,1.41,0,0,1-1.44-1.38h0V29.6c0-.93.52-1.61,1.34-1.61s1.29.58,1.29,1.52v.27Zm0-.4h1.55c0-.63-.29-1-.77-1S31.21,28.72,31.17,29.37Z" style="fill:#1a1a1a"/><path d="M34.39,31.12V28.05h.46v.42a1.34,1.34,0,0,1,1-.49c.59,0,.86.34.86.91v2.23h-.53V29.24c0-.6-.06-.84-.51-.84a1,1,0,0,0-.79.5v2.22Z" style="fill:#1a1a1a"/><path d="M38.82,30.14A.53.53,0,1,1,39,31.19h-.15a.53.53,0,0,1-.45-.6h0A.52.52,0,0,1,38.82,30.14Z" style="fill:#1a1a1a"/><path d="M41.65,30.14a.53.53,0,1,1-.53.53h0a.52.52,0,0,1,.52-.52h0Z" style="fill:#1a1a1a"/><path d="M25.88,37.76h-.7l-.43-2.93h0l-.5,2.93H23.5l-.47-4h.55l.3,3.38h0l.53-2.91h.64l.43,2.9h0L26,33.74h.51Z" style="fill:#1a1a1a"/><path d="M27.28,37.76v-4.3l.53-.06v1.68a1.33,1.33,0,0,1,1-.46c.59,0,.86.33.86.91v2.23h-.54v-2.2c0-.37-.16-.52-.51-.52a1,1,0,0,0-.79.49v2.23Z" style="fill:#1a1a1a"/><path d="M31.36,36.41c.05.68.41,1,.88,1a1.22,1.22,0,0,0,.82-.28l.24.35a1.72,1.72,0,0,1-1.07.37,1.41,1.41,0,0,1-1.44-1.38h0v-.22A1.43,1.43,0,0,1,32,34.65h.1c.81,0,1.29.57,1.29,1.51v.28Zm0-.4h1.55c0-.64-.29-1-.77-1s-.74.34-.78,1Z" style="fill:#1a1a1a"/><path d="M34.58,37.76V34.69H35v.42a1.34,1.34,0,0,1,1-.49c.6,0,.87.33.87.91v2.23h-.54V35.88c0-.6-.06-.84-.51-.84a1,1,0,0,0-.79.49v2.23Z" style="fill:#1a1a1a"/><path d="M39.15,36.77a.53.53,0,1,1-.53.53h0A.53.53,0,0,1,39.15,36.77Z" style="fill:#1a1a1a"/><path d="M42,36.77a.53.53,0,1,1-.53.53h0A.53.53,0,0,1,42,36.77Z" style="fill:#1a1a1a"/><path d="M25.13,40.84v3.55h-.55V40.84H23.33v-.46h3.06l-.06.46Z" style="fill:#1a1a1a"/><path d="M27.29,44.39v-4.3l.54-.06v1.68a1.33,1.33,0,0,1,1-.46.78.78,0,0,1,.87.68h0a.81.81,0,0,1,0,.22v2.23h-.54V42.2c0-.37-.16-.53-.51-.53a1,1,0,0,0-.79.5v2.22Z" style="fill:#1a1a1a"/><path d="M31.38,43c.05.68.41,1,.88,1a1.23,1.23,0,0,0,.82-.29l.24.36a1.79,1.79,0,0,1-1.07.36,1.41,1.41,0,0,1-1.44-1.38h0v-.22c0-.93.52-1.61,1.34-1.61s1.29.58,1.29,1.52V43Zm0-.4h1.55c0-.63-.29-1-.77-1S31.42,42,31.38,42.6Z" style="fill:#1a1a1a"/><path d="M34.6,44.39V41.32h.46v.42a1.34,1.34,0,0,1,1-.49c.6,0,.86.34.86.91v2.23h-.53V42.51c0-.6-.06-.84-.51-.84a1,1,0,0,0-.79.5v2.22Z" style="fill:#1a1a1a"/><path d="M39,43.41a.53.53,0,1,1-.53.53h0a.52.52,0,0,1,.52-.52h0Z" style="fill:#1a1a1a"/><path d="M41.86,43.41a.53.53,0,1,1-.53.53h0a.52.52,0,0,1,.52-.52h0Z" style="fill:#1a1a1a"/><path d="M24.15,14.49a13.74,13.74,0,0,1,.06,1.57v1.86H23.3l.26-4.43h1l.5,2.79h0l.44-2.79h1.09l.26,4.43H26V16a10.84,10.84,0,0,1,.1-1.51h0l-.49,2.68h-.82l-.5-2.68Z" style="fill:#b20d0e"/><path d="M28.49,16.52a.75.75,0,0,0,.72.77h.09a1.33,1.33,0,0,0,.85-.31l.43.59a2.09,2.09,0,0,1-1.36.46,1.63,1.63,0,0,1-1.77-1.48h0a1.61,1.61,0,0,1,0-.31,1.64,1.64,0,0,1,1.42-1.83h.22a1.54,1.54,0,0,1,1.62,1.46h0a1.13,1.13,0,0,1,0,.26v.36Zm0-.61h1.22c0-.48-.17-.81-.62-.81s-.57.24-.61.81Z" style="fill:#b20d0e"/><path d="M34.53,17.72a2.07,2.07,0,0,1-1.11.31,1.17,1.17,0,0,1-1.32-1v0h0a1.41,1.41,0,0,1,0-.29V15.23h-.7v-.7h.7v-.74l1-.12v.86h1.09l-.09.7h-1v1.52c0,.35.14.47.48.47a1.35,1.35,0,0,0,.59-.14Z" style="fill:#b20d0e"/><path d="M38.21,17c0,.26.06.35.23.41l-.21.67a.9.9,0,0,1-.84-.45,1.52,1.52,0,0,1-1.12.46,1.05,1.05,0,0,1-1.16-.91V17c0-.73.62-1.16,1.67-1.16h.45v-.12c0-.35-.25-.52-.67-.52a4.14,4.14,0,0,0-.92.17l-.24-.67a4.55,4.55,0,0,1,1.32-.26c1,0,1.51.42,1.51,1.21Zm-1,0v-.54H37c-.55,0-.81.16-.81.5a.4.4,0,0,0,.38.42h.07a.69.69,0,0,0,.6-.43Z" style="fill:#b20d0e"/></svg>