<?xml version="1.0" encoding="utf-8"?>
<!-- Generator: Adobe Illustrator 26.0.2, SVG Export Plug-In . SVG Version: 6.00 Build 0)  -->
<svg version="1.1" id="main" xmlns="http://www.w3.org/2000/svg" xmlns:xlink="http://www.w3.org/1999/xlink" x="0px" y="0px"
	 viewBox="0 0 64 64" style="enable-background:new 0 0 64 64;" xml:space="preserve">
<style type="text/css">
	.st0{fill:none;stroke:#000000;stroke-miterlimit:10;}
	.st1{fill:#F4E7EC;}
	.st2{fill:#1A1A1A;}
	.st3{fill:#B20D0E;}
</style>
<rect x="-20" y="-21" class="st0" width="108" height="108"/>
<path class="st1" d="M52,50.9c-0.7,0.2-1.5,0.4-2.3,0.6c-6.5,1.5-13.1,2.5-19.8,3c-2.7,0.2-5.4,0.4-8,0.5H12V5h37.8v27.6
	c0,2,0.1,4.1,0.3,6.3c0.1,1.2,0.3,2.5,0.4,3.8C50.8,45.5,51.3,48.2,52,50.9z"/>
<path class="st1" d="M11.9,55h-0.1V5h38v27.5c0,2,0.1,4.2,0.3,6.3c0.1,1.3,0.3,2.6,0.4,3.8c0.4,2.7,0.9,5.5,1.6,8.2v0.1H52
	c-0.8,0.2-1.5,0.4-2.3,0.6c-6.5,1.5-13.2,2.5-19.9,3c-2.7,0.2-5.4,0.4-8,0.5L11.9,55z M12,54.8h9.9c2.6-0.1,5.3-0.3,8-0.5
	c6.7-0.5,13.3-1.5,19.8-3l2.2-0.5c-0.7-2.7-1.2-5.4-1.5-8.1c-0.2-1.2-0.3-2.5-0.4-3.8c-0.2-2.2-0.3-4.3-0.3-6.3V5.2H12.1L12,54.8z"
	/>
<path class="st2" d="M20.1,27.1c0-1.4,0.8-2.1,1.7-2.1c0.4,0,0.9,0.1,1.2,0.5l-0.3,0.3c-0.2-0.2-0.5-0.3-0.8-0.3
	c-0.6,0-1.1,0.4-1.1,1.6s0.4,1.6,1,1.6c0.3,0,0.5-0.1,0.7-0.2v-1.2h-0.8l-0.1-0.5H23v1.9c-0.4,0.2-0.9,0.4-1.3,0.4
	C20.7,29.2,20.1,28.5,20.1,27.1z"/>
<path class="st2" d="M25.5,28.7h0.9v0.4H24v-0.4h1v-2.2h-1V26h1.5L25.5,28.7z M25.2,25.3c-0.2,0-0.4-0.1-0.4-0.3c0,0,0,0,0,0l0,0
	c0-0.2,0.2-0.4,0.3-0.4c0,0,0,0,0,0l0,0c0.2,0,0.4,0.2,0.4,0.4l0,0C25.6,25.2,25.4,25.3,25.2,25.3C25.2,25.3,25.2,25.3,25.2,25.3
	L25.2,25.3L25.2,25.3z"/>
<path class="st2" d="M28.7,29.1h-0.6L27,26h0.6l0.9,2.6l0,0l0.8-2.6h0.6L28.7,29.1z"/>
<path class="st2" d="M31.2,27.8c-0.1,0.5,0.2,0.9,0.7,1H32c0.3,0,0.6-0.1,0.8-0.3l0.2,0.4c-0.3,0.2-0.7,0.4-1.1,0.4
	c-0.8,0-1.4-0.6-1.4-1.4c0,0,0,0,0,0l0,0v-0.2c0-0.9,0.5-1.6,1.3-1.6c0.8,0,1.3,0.6,1.3,1.5v0.3L31.2,27.8z M31.2,27.4h1.6
	c0-0.6-0.3-1-0.8-1S31.2,26.7,31.2,27.4z"/>
<path class="st2" d="M34.4,29.1V26h0.5v0.4c0.2-0.3,0.6-0.5,1-0.5c0.6,0,0.9,0.3,0.9,0.9v2.2h-0.5v-1.9c0-0.6-0.1-0.8-0.5-0.8
	c-0.3,0-0.6,0.2-0.8,0.5v2.2L34.4,29.1z"/>
<path class="st2" d="M38.8,28.1c0.3,0,0.6,0.1,0.6,0.4c0,0.3-0.1,0.6-0.4,0.6h-0.2c-0.3,0-0.5-0.3-0.5-0.6c0,0,0,0,0,0l0,0
	C38.4,28.4,38.6,28.2,38.8,28.1z"/>
<path class="st2" d="M41.7,28.1c0.3,0,0.5,0.2,0.5,0.5c0,0.3-0.2,0.5-0.5,0.5c-0.3,0-0.5-0.2-0.5-0.5l0,0l0,0
	C41.1,28.4,41.4,28.1,41.7,28.1L41.7,28.1L41.7,28.1L41.7,28.1z"/>
<path class="st2" d="M25.9,35.8h-0.7l-0.4-2.9l0,0l-0.5,2.9h-0.7l-0.5-4h0.5l0.3,3.4l0,0l0.5-2.9H25l0.4,2.9l0,0l0.5-3.4h0.5
	L25.9,35.8z"/>
<path class="st2" d="M27.3,35.8v-4.3l0.5-0.1v1.7c0.3-0.3,0.6-0.5,1-0.5c0.6,0,0.9,0.3,0.9,0.9v2.2h-0.5v-2.2c0-0.4-0.2-0.5-0.5-0.5
	c-0.3,0-0.6,0.2-0.8,0.5v2.2H27.3z"/>
<path class="st2" d="M31.4,34.4c0,0.7,0.4,1,0.9,1c0.3,0,0.6-0.1,0.8-0.3l0.2,0.3c-0.3,0.2-0.7,0.4-1.1,0.4c-0.8,0-1.4-0.6-1.4-1.4
	c0,0,0,0,0,0l0,0v-0.2c-0.1-0.8,0.4-1.5,1.2-1.6h0.1c0.8,0,1.3,0.6,1.3,1.5v0.3L31.4,34.4z M31.4,34h1.5c0-0.6-0.3-1-0.8-1
	S31.4,33.3,31.4,34z"/>
<path class="st2" d="M34.6,35.8v-3.1H35v0.4c0.2-0.3,0.6-0.5,1-0.5c0.6,0,0.9,0.3,0.9,0.9v2.2h-0.5v-1.9c0-0.6-0.1-0.8-0.5-0.8
	c-0.3,0-0.6,0.2-0.8,0.5v2.2L34.6,35.8z"/>
<path class="st2" d="M39.2,34.8c0.3,0,0.5,0.2,0.5,0.5c0,0.3-0.2,0.5-0.5,0.5c-0.3,0-0.5-0.2-0.5-0.5c0,0,0,0,0,0l0,0
	C38.6,35,38.9,34.8,39.2,34.8z"/>
<path class="st2" d="M42,34.8c0.3,0,0.5,0.2,0.5,0.5c0,0.3-0.2,0.5-0.5,0.5c-0.3,0-0.5-0.2-0.5-0.5c0,0,0,0,0,0l0,0
	C41.5,35,41.7,34.8,42,34.8z"/>
<path class="st2" d="M25.1,38.8v3.5h-0.5v-3.5h-1.2v-0.5h3.1l-0.1,0.5H25.1z"/>
<path class="st2" d="M27.3,42.4v-4.3l0.5-0.1v1.7c0.3-0.3,0.6-0.5,1-0.5c0.4-0.1,0.8,0.3,0.9,0.7c0,0,0,0,0,0l0,0c0,0.1,0,0.1,0,0.2
	v2.2h-0.5v-2.2c0-0.4-0.2-0.5-0.5-0.5c-0.3,0-0.6,0.2-0.8,0.5v2.2L27.3,42.4z"/>
<path class="st2" d="M31.4,41c0,0.7,0.4,1,0.9,1c0.3,0,0.6-0.1,0.8-0.3l0.2,0.4c-0.3,0.2-0.7,0.4-1.1,0.4c-0.8,0-1.4-0.6-1.4-1.4
	c0,0,0,0,0,0l0,0v-0.2c0-0.9,0.5-1.6,1.3-1.6c0.8,0,1.3,0.6,1.3,1.5V41H31.4z M31.4,40.6h1.6c0-0.6-0.3-1-0.8-1S31.4,40,31.4,40.6z"
	/>
<path class="st2" d="M34.6,42.4v-3.1h0.5v0.4c0.2-0.3,0.6-0.5,1-0.5c0.6,0,0.9,0.3,0.9,0.9v2.2h-0.5v-1.9c0-0.6-0.1-0.8-0.5-0.8
	c-0.3,0-0.6,0.2-0.8,0.5v2.2H34.6z"/>
<path class="st2" d="M39,41.4c0.3,0,0.5,0.2,0.5,0.5c0,0.3-0.2,0.5-0.5,0.5c-0.3,0-0.5-0.2-0.5-0.5c0,0,0,0,0,0l0,0
	C38.5,41.7,38.7,41.4,39,41.4L39,41.4L39,41.4L39,41.4z"/>
<path class="st2" d="M41.9,41.4c0.3,0,0.5,0.2,0.5,0.5c0,0.3-0.2,0.5-0.5,0.5c-0.3,0-0.5-0.2-0.5-0.5c0,0,0,0,0,0l0,0
	C41.3,41.7,41.6,41.4,41.9,41.4L41.9,41.4L41.9,41.4L41.9,41.4z"/>
<path class="st3" d="M24.1,12.5c0,0.5,0.1,1,0.1,1.6v1.9h-0.9l0.3-4.4h1l0.5,2.8l0,0l0.4-2.8h1.1l0.3,4.4H26V14c0-0.5,0-1,0.1-1.5
	l0,0l-0.5,2.7h-0.8l-0.5-2.7H24.1z"/>
<path class="st3" d="M28.5,14.5c0,0.4,0.3,0.8,0.7,0.8h0.1c0.3,0,0.6-0.1,0.9-0.3l0.4,0.6c-0.4,0.3-0.9,0.5-1.4,0.5
	c-0.9,0.1-1.7-0.6-1.8-1.5c0,0,0,0,0,0l0,0c0-0.1,0-0.2,0-0.3c-0.1-0.9,0.5-1.7,1.4-1.8h0.2c0.8,0,1.6,0.6,1.6,1.5c0,0,0,0,0,0l0,0
	c0,0.1,0,0.2,0,0.3v0.4L28.5,14.5z M28.5,13.9h1.2c0-0.5-0.2-0.8-0.6-0.8S28.5,13.3,28.5,13.9L28.5,13.9z"/>
<path class="st3" d="M34.5,15.7c-0.3,0.2-0.7,0.3-1.1,0.3c-0.6,0.1-1.2-0.4-1.3-1c0,0,0,0,0,0l0,0l0,0c0-0.1,0-0.2,0-0.3v-1.5h-0.7
	v-0.7h0.7v-0.7l1-0.1v0.9h1.1l-0.1,0.7h-1v1.5c0,0.4,0.1,0.5,0.5,0.5c0.2,0,0.4,0,0.6-0.1L34.5,15.7z"/>
<path class="st3" d="M38.2,15c0,0.3,0.1,0.4,0.2,0.4l-0.2,0.7c-0.3,0-0.7-0.2-0.8-0.5c-0.3,0.3-0.7,0.5-1.1,0.5
	c-0.6,0.1-1.1-0.3-1.2-0.9V15c0-0.7,0.6-1.2,1.7-1.2h0.5v-0.1c0-0.4-0.2-0.5-0.7-0.5c-0.3,0-0.6,0.1-0.9,0.2l-0.2-0.7
	c0.4-0.2,0.9-0.2,1.3-0.3c1,0,1.5,0.4,1.5,1.2L38.2,15z M37.2,15v-0.5H37c-0.5,0-0.8,0.2-0.8,0.5c0,0.2,0.2,0.4,0.4,0.4c0,0,0,0,0,0
	h0.1C36.9,15.4,37.1,15.2,37.2,15L37.2,15z"/>
</svg>
