<?xml version="1.0" standalone="no"?>
<!DOCTYPE svg PUBLIC "-//W3C//DTD SVG 20010904//EN"
 "http://www.w3.org/TR/2001/REC-SVG-20010904/DTD/svg10.dtd">
<svg version="1.0" xmlns="http://www.w3.org/2000/svg"
 width="365.000000pt" height="365.000000pt" viewBox="0 0 365.000000 365.000000"
 preserveAspectRatio="xMidYMid meet">
<metadata>
Created by potrace 1.11, written by Peter Selinger 2001-2013
</metadata>
<g transform="translate(0.000000,365.000000) scale(0.100000,-0.100000)"
fill="#000000" stroke="none">
<path d="M2975 2928 c-44 -16 -180 -106 -255 -169 -284 -235 -594 -616 -820
-1003 -34 -58 -64 -106 -66 -106 -2 0 -27 46 -55 101 -85 170 -253 426 -393
599 -149 184 -361 382 -510 475 -266 165 -385 96 -412 -240 -23 -288 100 -886
257 -1254 155 -360 339 -645 543 -838 204 -193 373 -232 499 -114 65 60 104
191 114 384 l6 130 20 -39 c76 -153 233 -176 423 -63 82 48 228 197 303 308
120 181 216 422 300 751 60 238 75 335 75 505 1 138 -1 154 -23 198 -47 96
-109 98 -243 7 -254 -171 -579 -571 -775 -955 -37 -73 -68 -123 -71 -115 -3 8
-10 29 -17 47 -13 30 -10 36 57 155 199 348 487 719 738 946 172 156 298 242
355 242 92 0 128 -157 106 -460 -45 -606 -215 -1132 -510 -1578 -176 -264
-299 -402 -402 -450 -52 -23 -59 -30 -57 -52 3 -21 7 -25 32 -22 115 12 323
236 529 567 272 438 430 965 466 1556 16 266 -13 428 -85 475 -31 21 -91 26
-129 12z m-2199 -117 c112 -54 230 -145 370 -285 232 -233 462 -556 604 -848
52 -105 52 -106 35 -138 l-17 -32 -42 94 c-202 448 -683 987 -914 1024 -73 11
-138 -44 -169 -144 -22 -70 -24 -297 -4 -412 21 -126 79 -335 122 -443 151
-382 434 -742 683 -869 81 -42 161 -45 200 -9 38 36 56 108 56 223 0 64 5 108
14 126 7 15 16 41 19 57 22 114 29 146 32 143 2 -2 13 -39 25 -83 20 -71 22
-106 23 -305 1 -255 -9 -336 -54 -427 -38 -80 -79 -107 -158 -105 -98 1 -204
63 -332 194 -154 157 -286 351 -409 603 -166 340 -256 634 -316 1035 -25 165
-26 444 -1 525 38 125 95 143 233 76z m89 -265 c256 -120 706 -682 840 -1049
l27 -76 -23 -86 -23 -87 -18 90 c-25 123 -68 245 -139 387 -79 159 -170 285
-304 421 -223 227 -385 284 -453 161 -28 -53 -23 -253 11 -389 97 -392 376
-798 633 -923 78 -38 124 -43 181 -20 19 8 38 15 41 15 10 0 -6 -145 -18 -173
-35 -74 -151 -30 -329 124 -177 152 -364 429 -470 694 -151 377 -187 826 -74
914 33 27 56 26 118 -3z m2059 -9 c29 -39 34 -205 11 -365 -35 -244 -146 -628
-240 -828 -109 -233 -287 -444 -438 -519 -135 -67 -215 -59 -282 29 -30 39
-67 140 -86 231 -12 59 -6 175 9 175 4 0 15 -21 24 -48 20 -55 77 -126 121
-148 16 -9 56 -16 88 -17 88 -1 154 37 270 152 235 234 401 601 403 891 1 152
-19 190 -101 190 -59 0 -137 -51 -243 -159 -157 -160 -286 -374 -358 -596 -50
-151 -66 -321 -37 -389 7 -16 6 -17 -13 -7 -29 16 -68 84 -98 176 -26 76 -26
77 -9 123 65 172 238 458 404 667 158 198 366 396 475 450 60 30 72 29 100 -8z
m-1871 -379 c70 -38 208 -170 284 -272 155 -209 258 -533 214 -669 -61 -183
-329 -26 -529 309 -144 243 -204 562 -121 645 29 29 81 24 152 -13z m1526
-137 c57 -57 29 -264 -56 -421 -86 -159 -185 -229 -239 -169 -29 32 -26 170 5
264 47 139 131 266 210 316 53 34 55 35 80 10z m-729 -594 c10 -36 9 -53 -2
-93 l-14 -49 -18 67 c-16 57 -17 72 -6 97 15 38 24 33 40 -22z"/>
</g>
</svg>
