<svg id="main" xmlns="http://www.w3.org/2000/svg" viewBox="0 0 64 64"><defs><style>.cls-1{fill:#e7f0fb;}.cls-2,.cls-4{fill:#1a0b6d;}.cls-2{stroke:#1a0b6d;stroke-miterlimit:10;stroke-width:0.15px;}.cls-3{fill:#1a1a1a;}</style></defs><title>gwenify</title><path class="cls-1" d="M54.21,57q-1.23.35-2.54.68a147.14,147.14,0,0,1-22,3.62c-3,.28-6,.48-8.83.59H9.77V2.13h41.9V35c0,2.39.11,4.94.33,7.59.12,1.49.28,3,.48,4.55A99.49,99.49,0,0,0,54.21,57Z"/><path class="cls-2" d="M9.77,62H9.64V2H51.8V35c0,2.43.11,5,.33,7.58.13,1.54.29,3.07.48,4.54A99.29,99.29,0,0,0,54.33,57l0,.12-.12,0c-.85.24-1.7.47-2.54.68a147.45,147.45,0,0,1-22,3.62c-3,.28-6,.48-8.83.59Zm.13-.26h11c2.86-.11,5.83-.31,8.81-.59a147.17,147.17,0,0,0,22-3.62c.8-.2,1.61-.42,2.42-.64-.71-3.1-1.29-6.36-1.71-9.69-.19-1.47-.35-3-.48-4.56-.22-2.6-.33-5.16-.33-7.6V2.26H9.9Z"/><path class="cls-3" d="M15,25.76c0-2,1.22-3.06,2.5-3.06a2.3,2.3,0,0,1,1.73.66l-.48.5a1.7,1.7,0,0,0-1.24-.49c-.84,0-1.64.6-1.64,2.39s.53,2.4,1.53,2.4a2.22,2.22,0,0,0,1.09-.28V26.13H17.32l-.09-.66h2v2.84a3.77,3.77,0,0,1-2,.53C15.86,28.83,15,27.81,15,25.76Z"/><path class="cls-3" d="M22.83,28.12H24.1v.61H20.65v-.61H22V24.81H20.69V24.2h2.14Zm-.4-5a.54.54,0,1,1,0-1.08.54.54,0,1,1,0,1.08Z"/><path class="cls-3" d="M27.4,28.73h-.92L24.85,24.2h.84L26.95,28h0l1.25-3.8H29Z"/><path class="cls-3" d="M30.93,26.73c.07,1,.61,1.45,1.3,1.45a1.82,1.82,0,0,0,1.21-.42l.36.53a2.6,2.6,0,0,1-1.59.54,2.08,2.08,0,0,1-2.11-2.37,2.1,2.1,0,0,1,2-2.37c1.19,0,1.91.85,1.91,2.24,0,.16,0,.3,0,.41Zm0-.59h2.29c0-.94-.43-1.43-1.14-1.43S31,25.18,30.93,26.15Z"/><path class="cls-3" d="M35.56,28.73V24.2h.68l.06.62a2,2,0,0,1,1.49-.72c.88,0,1.28.5,1.28,1.34v3.3h-.79V26c0-.89-.09-1.24-.75-1.24a1.55,1.55,0,0,0-1.17.73v3.29Z"/><path class="cls-3" d="M42,27.28a.78.78,0,1,1-.78.77A.77.77,0,0,1,42,27.28Z"/><path class="cls-3" d="M46,27.28a.78.78,0,1,1-.78.77A.77.77,0,0,1,46,27.28Z"/><path class="cls-3" d="M23.38,38.66h-1l-.64-4.33h0l-.73,4.33H19.86l-.71-5.93H20l.45,5h0l.78-4.3h.95l.64,4.28h0l.65-5h.75Z"/><path class="cls-3" d="M25.32,38.66V32.31l.79-.09V34.7A1.91,1.91,0,0,1,27.55,34c.88,0,1.28.5,1.28,1.34v3.3H28V35.41c0-.54-.23-.77-.75-.77a1.55,1.55,0,0,0-1.17.73v3.29Z"/><path class="cls-3" d="M31.23,36.66c.07,1,.61,1.46,1.3,1.46a1.82,1.82,0,0,0,1.21-.42l.36.53a2.6,2.6,0,0,1-1.59.54A2.08,2.08,0,0,1,30.4,36.4a2.1,2.1,0,0,1,2-2.37c1.19,0,1.91.85,1.91,2.24,0,.16,0,.3,0,.4Zm0-.58h2.29c0-.94-.43-1.43-1.14-1.43S31.29,35.1,31.23,36.08Z"/><path class="cls-3" d="M35.86,38.66V34.12h.68l.06.62A2,2,0,0,1,38.09,34c.88,0,1.28.5,1.28,1.34v3.3h-.79V35.88c0-.89-.09-1.24-.75-1.24a1.55,1.55,0,0,0-1.17.73v3.29Z"/><path class="cls-3" d="M42.6,37.2a.78.78,0,1,1-.78.77A.77.77,0,0,1,42.6,37.2Z"/><path class="cls-3" d="M46.6,37.2a.78.78,0,1,1-.78.77A.77.77,0,0,1,46.6,37.2Z"/><path class="cls-3" d="M22.34,43.35v5.24h-.82V43.35H19.68v-.69H24.2l-.09.69Z"/><path class="cls-3" d="M25.42,48.59V42.24l.79-.09v2.48a1.91,1.91,0,0,1,1.44-.68c.88,0,1.28.5,1.28,1.34v3.3h-.79V45.34c0-.54-.23-.77-.75-.77a1.55,1.55,0,0,0-1.17.73v3.29Z"/><path class="cls-3" d="M31.32,46.59c.07,1,.61,1.45,1.3,1.45a1.82,1.82,0,0,0,1.21-.42l.36.53a2.6,2.6,0,0,1-1.59.54,2.08,2.08,0,0,1-2.11-2.37,2.1,2.1,0,0,1,2-2.37c1.19,0,1.91.85,1.91,2.24,0,.16,0,.3,0,.41Zm0-.59h2.29c0-.94-.43-1.43-1.14-1.43S31.38,45,31.32,46Z"/><path class="cls-3" d="M36,48.59V44.05h.68l.06.62a2,2,0,0,1,1.49-.72c.88,0,1.28.5,1.28,1.34v3.3h-.79V45.81c0-.89-.09-1.24-.75-1.24a1.55,1.55,0,0,0-1.17.73v3.29Z"/><path class="cls-3" d="M42.36,47.13a.78.78,0,1,1-.78.77A.77.77,0,0,1,42.36,47.13Z"/><path class="cls-3" d="M46.36,47.13a.78.78,0,1,1-.78.77A.77.77,0,0,1,46.36,47.13Z"/><path class="cls-4" d="M18.15,11.78h-3v3.14h-.94V7.81h4.41v.77H15.16V11h3Z"/><path class="cls-4" d="M21.79,15A2.31,2.31,0,0,1,20,14.32a2.62,2.62,0,0,1-.67-1.89v-.17a3.16,3.16,0,0,1,.3-1.4,2.34,2.34,0,0,1,.84-1,2.11,2.11,0,0,1,1.17-.35,2,2,0,0,1,1.6.68,2.94,2.94,0,0,1,.57,1.94v.38H20.27a1.88,1.88,0,0,0,.46,1.26,1.43,1.43,0,0,0,1.11.48,1.58,1.58,0,0,0,.81-.2,2,2,0,0,0,.58-.52l.55.43A2.22,2.22,0,0,1,21.79,15Zm-.11-4.74a1.21,1.21,0,0,0-.92.4,1.93,1.93,0,0,0-.46,1.12h2.65v-.07a1.72,1.72,0,0,0-.37-1.07A1.13,1.13,0,0,0,21.68,10.28Z"/><path class="cls-4" d="M28.2,14.92a1.9,1.9,0,0,1-.13-.56,2,2,0,0,1-1.5.65,1.87,1.87,0,0,1-1.28-.44,1.43,1.43,0,0,1-.5-1.12,1.49,1.49,0,0,1,.63-1.28,3,3,0,0,1,1.77-.46h.88V11.3a1,1,0,0,0-.28-.75,1.14,1.14,0,0,0-.84-.28,1.32,1.32,0,0,0-.81.24.72.72,0,0,0-.33.59h-.91a1.24,1.24,0,0,1,.28-.76,1.92,1.92,0,0,1,.76-.58A2.56,2.56,0,0,1,27,9.54a2.09,2.09,0,0,1,1.43.46A1.64,1.64,0,0,1,29,11.26v2.43a3,3,0,0,0,.19,1.16v.08Zm-1.5-.69a1.59,1.59,0,0,0,.81-.22,1.33,1.33,0,0,0,.55-.57V12.36h-.71q-1.66,0-1.66,1A.82.82,0,0,0,26,14,1.09,1.09,0,0,0,26.7,14.23Z"/><path class="cls-4" d="M31.68,8.36V9.64h1v.7h-1v3.28a.73.73,0,0,0,.13.48.55.55,0,0,0,.45.16,2.19,2.19,0,0,0,.43-.06v.73A2.65,2.65,0,0,1,32,15a1.13,1.13,0,0,1-.91-.37,1.57,1.57,0,0,1-.31-1V10.34h-1v-.7h1V8.36Z"/><path class="cls-4" d="M37,14.4a1.92,1.92,0,0,1-1.55.62,1.65,1.65,0,0,1-1.29-.49,2.13,2.13,0,0,1-.45-1.45V9.64h.9v3.41q0,1.2,1,1.2A1.35,1.35,0,0,0,37,13.48V9.64h.9v5.28H37Z"/><path class="cls-4" d="M41.9,10.45a2.75,2.75,0,0,0-.44,0,1.19,1.19,0,0,0-1.21.76v3.75h-.9V9.64h.88v.61a1.41,1.41,0,0,1,1.26-.71.92.92,0,0,1,.4.07Z"/><path class="cls-4" d="M44.94,15a2.31,2.31,0,0,1-1.75-.71,2.62,2.62,0,0,1-.67-1.89v-.17a3.16,3.16,0,0,1,.3-1.4,2.34,2.34,0,0,1,.84-1,2.11,2.11,0,0,1,1.17-.35,2,2,0,0,1,1.6.68A2.94,2.94,0,0,1,47,12.16v.38H43.42a1.88,1.88,0,0,0,.46,1.26,1.43,1.43,0,0,0,1.11.48,1.58,1.58,0,0,0,.81-.2,2,2,0,0,0,.58-.52l.55.43A2.22,2.22,0,0,1,44.94,15Zm-.11-4.74a1.21,1.21,0,0,0-.92.4,1.93,1.93,0,0,0-.46,1.12H46.1v-.07a1.72,1.72,0,0,0-.37-1.07A1.13,1.13,0,0,0,44.83,10.28Z"/></svg>