<svg id="main" xmlns="http://www.w3.org/2000/svg" viewBox="0 0 64 64"><defs><style>.cls-1{fill:#f4e7ec;}.cls-2,.cls-4{fill:#c7132e;}.cls-2{stroke:#b20d0e;stroke-miterlimit:10;stroke-width:0.15px;}.cls-3{fill:#1a1a1a;}</style></defs><title>gherkin</title><path class="cls-1" d="M54.17,57q-1.23.35-2.54.68a147.14,147.14,0,0,1-22,3.62c-3,.28-6,.48-8.83.59H9.73V2.13h41.9V35c0,2.39.11,4.94.33,7.59.12,1.49.28,3,.48,4.55A99.49,99.49,0,0,0,54.17,57Z"/><path class="cls-2" d="M9.78,62H9.65V2H51.77V35c0,2.43.11,5,.33,7.58.13,1.54.29,3.07.48,4.54A99.38,99.38,0,0,0,54.3,57l0,.12-.12,0c-.85.24-1.7.47-2.54.68a147.17,147.17,0,0,1-22,3.62c-3,.28-6,.48-8.82.59Zm.13-.26H20.86c2.86-.11,5.82-.31,8.81-.59a146.89,146.89,0,0,0,21.95-3.62c.8-.2,1.61-.42,2.42-.64-.71-3.1-1.29-6.36-1.71-9.69-.19-1.47-.35-3-.48-4.56-.22-2.6-.33-5.16-.33-7.6V2.26H9.91Z"/><path class="cls-3" d="M14.92,25.89c0-2,1.22-3.06,2.5-3.06a2.3,2.3,0,0,1,1.73.66l-.48.5a1.7,1.7,0,0,0-1.24-.49c-.84,0-1.64.6-1.64,2.39s.53,2.4,1.53,2.4A2.22,2.22,0,0,0,18.41,28V26.26H17.29l-.09-.66h2v2.84a3.77,3.77,0,0,1-2,.53C15.82,29,14.92,27.94,14.92,25.89Z"/><path class="cls-3" d="M22.8,28.25h1.27v.61H20.62v-.61H22V24.94H20.66v-.61H22.8Zm-.4-5a.54.54,0,1,1,0-1.08.54.54,0,1,1,0,1.08Z"/><path class="cls-3" d="M27.37,28.86h-.92l-1.63-4.54h.84l1.25,3.8h0l1.25-3.8H29Z"/><path class="cls-3" d="M30.89,26.87c.07,1,.61,1.45,1.3,1.45a1.82,1.82,0,0,0,1.21-.42l.36.53a2.6,2.6,0,0,1-1.59.54,2.08,2.08,0,0,1-2.11-2.37,2.1,2.1,0,0,1,2-2.37c1.19,0,1.91.85,1.91,2.24,0,.16,0,.3,0,.41Zm0-.59h2.29c0-.94-.43-1.43-1.14-1.43S31,25.31,30.89,26.28Z"/><path class="cls-3" d="M35.53,28.86V24.33h.68l.06.62a2,2,0,0,1,1.49-.72c.88,0,1.28.5,1.28,1.34v3.3h-.79V26.08c0-.89-.09-1.24-.75-1.24a1.55,1.55,0,0,0-1.17.73v3.29Z"/><path class="cls-3" d="M41.93,27.41a.78.78,0,1,1-.78.77A.77.77,0,0,1,41.93,27.41Z"/><path class="cls-3" d="M45.94,27.41a.78.78,0,1,1-.78.77A.77.77,0,0,1,45.94,27.41Z"/><path class="cls-3" d="M23.35,38.79h-1l-.64-4.33h0l-.73,4.33H19.83l-.71-5.93h.82l.45,5h0l.78-4.3h.95l.64,4.28h0l.65-5h.75Z"/><path class="cls-3" d="M25.29,38.79V32.44l.79-.09v2.48a1.91,1.91,0,0,1,1.44-.68c.88,0,1.28.5,1.28,1.34v3.3H28V35.55c0-.54-.23-.77-.75-.77a1.55,1.55,0,0,0-1.17.73v3.29Z"/><path class="cls-3" d="M31.19,36.79c.07,1,.61,1.46,1.3,1.46a1.82,1.82,0,0,0,1.21-.42l.36.53a2.6,2.6,0,0,1-1.59.54,2.08,2.08,0,0,1-2.11-2.37,2.1,2.1,0,0,1,2-2.37c1.19,0,1.91.85,1.91,2.24,0,.16,0,.3,0,.4Zm0-.58h2.29c0-.94-.43-1.43-1.14-1.43S31.25,35.24,31.19,36.21Z"/><path class="cls-3" d="M35.83,38.79V34.26h.68l.06.62a2,2,0,0,1,1.49-.72c.88,0,1.28.5,1.28,1.34v3.3h-.79V36c0-.89-.09-1.24-.75-1.24a1.55,1.55,0,0,0-1.17.73v3.29Z"/><path class="cls-3" d="M42.56,37.34a.78.78,0,1,1-.78.77A.77.77,0,0,1,42.56,37.34Z"/><path class="cls-3" d="M46.57,37.34a.78.78,0,1,1-.78.77A.77.77,0,0,1,46.57,37.34Z"/><path class="cls-3" d="M22.31,43.48v5.24h-.82V43.48H19.65v-.69h4.52l-.09.69Z"/><path class="cls-3" d="M25.38,48.72V42.37l.79-.09v2.48a1.91,1.91,0,0,1,1.44-.68c.88,0,1.28.5,1.28,1.34v3.3H28.1V45.48c0-.54-.23-.77-.75-.77a1.55,1.55,0,0,0-1.17.73v3.29Z"/><path class="cls-3" d="M31.29,46.72c.07,1,.61,1.45,1.3,1.45a1.82,1.82,0,0,0,1.21-.42l.36.53a2.6,2.6,0,0,1-1.59.54,2.08,2.08,0,0,1-2.11-2.37,2.1,2.1,0,0,1,2-2.37c1.19,0,1.91.85,1.91,2.24,0,.16,0,.3,0,.41Zm0-.59h2.29c0-.94-.43-1.43-1.14-1.43S31.35,45.17,31.29,46.14Z"/><path class="cls-3" d="M35.92,48.72V44.19h.68l.06.62a2,2,0,0,1,1.49-.72c.88,0,1.28.5,1.28,1.34v3.3h-.79V45.94c0-.89-.09-1.24-.75-1.24a1.55,1.55,0,0,0-1.17.73v3.29Z"/><path class="cls-3" d="M42.33,47.27a.78.78,0,1,1-.78.77A.77.77,0,0,1,42.33,47.27Z"/><path class="cls-3" d="M46.33,47.27a.78.78,0,1,1-.78.77A.77.77,0,0,1,46.33,47.27Z"/><path class="cls-4" d="M19.56,14.1a2.18,2.18,0,0,1-1,.77,4.1,4.1,0,0,1-1.51.26,2.92,2.92,0,0,1-1.54-.41,2.72,2.72,0,0,1-1-1.16,4,4,0,0,1-.38-1.74V11.2a3.74,3.74,0,0,1,.75-2.49,2.61,2.61,0,0,1,2.11-.88,2.7,2.7,0,0,1,1.79.57A2.48,2.48,0,0,1,19.56,10h-.94A1.55,1.55,0,0,0,16.94,8.6a1.66,1.66,0,0,0-1.43.66A3.23,3.23,0,0,0,15,11.18v.58a3,3,0,0,0,.55,1.9,1.77,1.77,0,0,0,1.48.71,3.26,3.26,0,0,0,.92-.12,1.43,1.43,0,0,0,.65-.39V12.26H17V11.5h2.58Z"/><path class="cls-4" d="M22,10.39a1.92,1.92,0,0,1,1.56-.74q1.68,0,1.69,1.89V15h-.9v-3.5a1.22,1.22,0,0,0-.26-.84,1,1,0,0,0-.8-.27,1.3,1.3,0,0,0-.77.23,1.59,1.59,0,0,0-.52.62V15h-.9V7.54H22Z"/><path class="cls-4" d="M28.88,15.13a2.31,2.31,0,0,1-1.75-.71,2.62,2.62,0,0,1-.67-1.89v-.17a3.16,3.16,0,0,1,.3-1.4,2.34,2.34,0,0,1,.84-1,2.11,2.11,0,0,1,1.17-.35,2,2,0,0,1,1.6.68,2.94,2.94,0,0,1,.57,1.94v.38H27.36a1.88,1.88,0,0,0,.46,1.26,1.43,1.43,0,0,0,1.11.48,1.58,1.58,0,0,0,.81-.2,2,2,0,0,0,.58-.52l.55.43A2.22,2.22,0,0,1,28.88,15.13Zm-.11-4.74a1.21,1.21,0,0,0-.92.4,1.93,1.93,0,0,0-.46,1.12H30v-.07a1.72,1.72,0,0,0-.37-1.07A1.13,1.13,0,0,0,28.77,10.4Z"/><path class="cls-4" d="M34.68,10.56a2.75,2.75,0,0,0-.44,0,1.19,1.19,0,0,0-1.21.76V15h-.9V9.75H33v.61a1.41,1.41,0,0,1,1.26-.71.92.92,0,0,1,.4.07Z"/><path class="cls-4" d="M37.11,12.59l-.57.59V15h-.9V7.54h.9v4.54l.48-.58,1.65-1.74h1.1L37.71,12,40,15H38.95Z"/><path class="cls-4" d="M40.85,8.35A.54.54,0,0,1,41,8a.51.51,0,0,1,.4-.15.51.51,0,0,1,.4.15.53.53,0,0,1,.14.37.52.52,0,0,1-.14.37.52.52,0,0,1-.4.15.51.51,0,0,1-.4-.15A.52.52,0,0,1,40.85,8.35Zm1,6.68h-.9V9.75h.9Z"/><path class="cls-4" d="M44.19,9.75l0,.66a1.93,1.93,0,0,1,1.58-.76q1.68,0,1.69,1.89V15h-.9v-3.5a1.22,1.22,0,0,0-.26-.84,1,1,0,0,0-.8-.27,1.3,1.3,0,0,0-.77.23,1.59,1.59,0,0,0-.52.62V15h-.9V9.75Z"/></svg>