<svg id="Layer_1" data-name="Layer 1" xmlns="http://www.w3.org/2000/svg" xmlns:xlink="http://www.w3.org/1999/xlink" viewBox="0 0 1110.91 1140"><defs><style>.cls-1{fill:url(#linear-gradient);}</style><linearGradient id="linear-gradient" x1="534.48" y1="441.19" x2="937.05" y2="934.33" gradientTransform="translate(110.62 -76.82) rotate(10)" gradientUnits="userSpaceOnUse"><stop offset="0" stop-color="#f91509"/><stop offset="1" stop-color="#1a0b80"/></linearGradient></defs><title>gwen-logo-10</title><path class="cls-1" d="M1061.66,160.49C1009,146,804.71,266.93,642.27,429.28c-62.67,62.65-107.44,112.25-145,161-11.1-45.94-33.27-120.74-94.33-247.71C306.18,141.46,164.72-12.59,94,6.21-13.42,34.78-10.46,414.13,32,608.66,52,700.54,87.61,837,165.11,961,216,1042.28,264.71,1086.6,313,1095.12a99.76,99.76,0,0,0,41.63-1.49c70.43-17.46,93.86-125.41,108.67-216.18,5.36,28.7,15.35,55.92,36.28,73.86,33.87,29,87.6,27.93,151.25-3C728.7,910.56,804.46,835,864.22,735.47c46.14-76.88,214-400,128.22-458-7.92-5.34-19.1-6.43-34.13-3.3C876.91,291.1,650.16,449.59,509.92,662.1c-2.23-14.91-4.37-29.12-6.62-42,39.47-53.31,86.37-106.1,155.3-175,171.65-171.57,360.37-273.58,397-262.94,51.23,14.18,19,141.91,3.53,203.3l-2.68,10.75C1010,582,908.21,784,797,910.6c-117.66,134-214,209.43-257.56,201.74l-3.91,22.17c68.13,12,189.22-107.09,278.8-209.13,113.36-129.11,217.09-334.65,264.29-523.64l2.69-10.7C1101.16,312.34,1134.37,180.66,1061.66,160.49ZM349,1071.77c-50.43,12.48-105.73-28.7-164.4-122.51C108.94,828.26,74,694.28,54.33,604c-48-220.17-32.49-555.29,45.76-576.1a32.21,32.21,0,0,1,13.75-.18c54.69,9.64,173.53,127.06,268.41,324.39C444.64,481.9,465.75,556,476.19,600.42c1,4.28,2,9,3,14.09-4.73,6.45-9.38,12.94-13.89,19.48-1.52,2.18-2.78,4.26-4.21,6.41C430.83,459.46,282.83,206.57,187.82,142.14c-19.36-13.14-36.35-18.06-50.51-14.65-18.44,4.46-34.13,17.41-46.61,38.51C42.32,247.67,49,441.07,85.54,570.46c18.66,66.14,52.74,156.47,86.8,209.22C231,870.57,287.14,925.09,327.88,932.28a45,45,0,0,0,19.53-.55c3.89-.28,10.47-1.86,17.84-8.22,19.53-17,32-56.69,37.5-118a132.4,132.4,0,0,0,17.65-26.27c2-3.91,4.09-9.8,7-17.91,4.26-12,10.47-29.3,19.85-49.64,1.95,18,3.22,31.4,4.18,48.9,0,0,.88,12.6,2.91,31.2-3.08,15.24-5.9,33.45-9.09,53.78C432.14,929.38,412.33,1056.09,349,1071.77ZM161.69,559.33C130.41,468,124.87,323.51,174.54,310.18s135.37,108.44,167.1,201c42.64,124.36,36.9,235.91-12.84,249.18S204.33,683.65,161.69,559.33Zm247,186.3C416.5,683.47,405,595.67,373,502.5,330.69,379,216.42,216.73,150.19,234.46S91.33,444.79,133.06,566.66c45.15,131.66,117.34,234.19,178.32,262l-.52,1.27A87.36,87.36,0,0,0,329.54,835a58.17,58.17,0,0,0,21.22.38,72.45,72.45,0,0,0,26.6-8.66C367,903,346.2,909.2,346.77,909.3h0l-2.47-.24-2.32.74c-16.83,5.37-69.87-17.47-150.39-142.13C159,717.14,125.18,627,107.55,564.52,73,442.14,65.65,253.06,110.45,177.43c9.28-15.67,20.17-25.1,32.4-28.07,7.34-1.78,18.74,2.25,32.08,11.3,92.3,62.59,243.46,325.68,265.9,499l.63-.06,1.18,10.69A499.86,499.86,0,0,0,408.74,745.62Zm76.93,19.52c1.91-3.89,3.67-9.08,5.88-15.63,1.65-4.81,3.48-10.22,5.68-16.07,1.14,7.59,2.4,15.61,4.06,25,6.81,38.94,26.6,65.84,42.06,74.32,37,20.32,69.07,9.66,76.22,6.8,53.71-13.61,130.17-74.17,196.84-161.27C884.47,589.26,946,435.15,901.86,402S723.39,470.4,656.23,558.16c-78,102-117.11,206.82-99.42,256-.82-.41-1.56-.64-2.4-1.08-9.09-5-25.09-27-30.58-58.4-3-17.12-4.79-29.71-6.7-43.57-.66-4.66-1.35-9.48-2.08-14.64.18-.33.39-.66.58-1C651.17,477.3,882.39,313,963.12,296.27c10.07-2.1,15.1-1.1,16.44-.19,52.09,35.21-46.79,280.84-135.05,427.85-56.71,94.42-131,168.83-203.82,204.18-54.09,26.28-100.05,28.52-126.14,6.2-28-24-31.85-75.21-35-116.4-.68-8.76-1.31-17.13-2.12-24.92C480,780.92,482.65,771.29,485.66,765.14Zm210-194.22c29.78-46.4,93.45-101.63,118.2-86s1.54,95.6-28.64,142.62c-40.51,63.12-93.49,101.64-118.2,86S655.11,634.07,695.69,570.92ZM487.51,666.7l3,20.06c.26,1.74.52,3.44.76,5.1a265.94,265.94,0,0,0-18.78,42.75c-1.14-13.21-2.67-26.58-4.75-45.13l-1.56-14.18c5.36-9.28,11.22-18.8,18-28.54a4.6,4.6,0,0,1,.28-.4Q486,656.29,487.51,666.7Z"/></svg>