<svg id="main" xmlns="http://www.w3.org/2000/svg" viewBox="0 0 64 64"><defs><style>.cls-1{fill:#e7f0fb;}.cls-15,.cls-2{fill:#1a0b6d;}.cls-2{stroke:#1a0b6d;stroke-miterlimit:10;stroke-width:0.25px;}.cls-3{font-size:8.61px;fill:#1a1a1a;font-family:FiraMonoOT, Fira Mono OT;}.cls-4{letter-spacing:-0.01em;}.cls-5{letter-spacing:-0.05em;}.cls-6{letter-spacing:-0.01em;}.cls-7{letter-spacing:0.01em;}.cls-8{letter-spacing:-0.06em;}.cls-9{letter-spacing:-0.14em;}.cls-10{letter-spacing:0.02em;}.cls-11{letter-spacing:-0.02em;}.cls-12{letter-spacing:0.01em;}.cls-13{letter-spacing:-0.06em;}.cls-14{letter-spacing:-0.14em;}.cls-15{font-size:10.13px;font-family:Roboto-Regular, Roboto;}.cls-16{letter-spacing:0em;}.cls-17{letter-spacing:0em;}.cls-18{letter-spacing:0.01em;}.cls-19{letter-spacing:0em;}.cls-20{letter-spacing:0.01em;}.cls-21{letter-spacing:0em;}</style></defs><title>gwen-icon</title><path class="cls-1" d="M54.21,57q-1.23.35-2.54.68a147.14,147.14,0,0,1-22,3.62c-3,.28-6,.48-8.83.59H9.77V2.13h41.9V35c0,2.39.11,4.94.33,7.59.12,1.49.28,3,.48,4.55A99.49,99.49,0,0,0,54.21,57Z"/><path class="cls-2" d="M9.77,62H9.64V2H51.8V35c0,2.43.11,5,.33,7.58.13,1.54.29,3.07.48,4.54A99.29,99.29,0,0,0,54.33,57l0,.12-.12,0c-.85.24-1.7.47-2.54.68a147.45,147.45,0,0,1-22,3.62c-3,.28-6,.48-8.83.59Zm.13-.26h11c2.86-.11,5.83-.31,8.81-.59a147.17,147.17,0,0,0,22-3.62c.8-.2,1.61-.42,2.42-.64-.71-3.1-1.29-6.36-1.71-9.69-.19-1.47-.35-3-.48-4.56-.22-2.6-.33-5.16-.33-7.6V2.26H9.9Z"/><text class="cls-3" transform="translate(14.58 28.73)"><tspan class="cls-4">G</tspan><tspan class="cls-5" x="5.06" y="0">i</tspan><tspan class="cls-6" x="9.77" y="0">v</tspan><tspan class="cls-7" x="14.86" y="0">e</tspan><tspan class="cls-8" x="20.13" y="0">n</tspan><tspan class="cls-9" x="24.79" y="0">.</tspan><tspan x="28.79" y="0">.</tspan><tspan x="-0.63" y="9.93"> </tspan><tspan class="cls-10" x="4.54" y="9.93">W</tspan><tspan class="cls-7" x="9.9" y="9.93">he</tspan><tspan class="cls-11" x="20.43" y="9.93">n</tspan><tspan class="cls-9" x="25.42" y="9.93">.</tspan><tspan x="29.42" y="9.93">.</tspan><tspan x="-0.39" y="19.86"> </tspan><tspan class="cls-12" x="4.77" y="19.86">T</tspan><tspan class="cls-7" x="9.99" y="19.86">he</tspan><tspan class="cls-13" x="20.52" y="19.86">n</tspan><tspan class="cls-14" x="25.19" y="19.86">.</tspan><tspan x="29.19" y="19.86">.</tspan></text><text class="cls-15" transform="translate(13.16 14.74)"><tspan class="cls-16">F</tspan><tspan class="cls-17" x="5.58" y="0">e</tspan><tspan class="cls-18" x="10.98" y="0">a</tspan><tspan class="cls-19" x="16.55" y="0">t</tspan><tspan class="cls-20" x="19.87" y="0">u</tspan><tspan class="cls-21" x="25.54" y="0">r</tspan><tspan x="28.99" y="0">e</tspan></text></svg>