<svg id="main" xmlns="http://www.w3.org/2000/svg" viewBox="0 0 64 64"><defs><style>.cls-1{fill:#f4e7ec;}.cls-2,.cls-4{fill:#c7132e;}.cls-2{stroke:#b20d0e;stroke-miterlimit:10;stroke-width:0.15px;}.cls-3{fill:#1a1a1a;}</style></defs><title>gwen-icon</title><path class="cls-1" d="M54.17,57q-1.23.35-2.54.68a147.14,147.14,0,0,1-22,3.62c-3,.28-6,.48-8.83.59H9.73V2.13h41.9V35c0,2.39.11,4.94.33,7.59.12,1.49.28,3,.48,4.55A99.49,99.49,0,0,0,54.17,57Z"/><path class="cls-2" d="M9.78,62H9.65V2H51.77V35c0,2.43.11,5,.33,7.58.13,1.54.29,3.07.48,4.54A99.38,99.38,0,0,0,54.3,57l0,.12-.12,0c-.85.24-1.7.47-2.54.68a147.17,147.17,0,0,1-22,3.62c-3,.28-6,.48-8.82.59Zm.13-.26H20.86c2.86-.11,5.82-.31,8.81-.59a146.89,146.89,0,0,0,21.95-3.62c.8-.2,1.61-.42,2.42-.64-.71-3.1-1.29-6.36-1.71-9.69-.19-1.47-.35-3-.48-4.56-.22-2.6-.33-5.16-.33-7.6V2.26H9.91Z"/><path class="cls-3" d="M14.92,25.89c0-2,1.22-3.06,2.5-3.06a2.3,2.3,0,0,1,1.73.66l-.48.5a1.7,1.7,0,0,0-1.24-.49c-.84,0-1.64.6-1.64,2.39s.53,2.4,1.53,2.4A2.22,2.22,0,0,0,18.41,28V26.26H17.29l-.09-.66h2v2.84a3.77,3.77,0,0,1-2,.53C15.82,29,14.92,27.94,14.92,25.89Z"/><path class="cls-3" d="M22.8,28.25h1.27v.61H20.62v-.61H22V24.94H20.66v-.61H22.8Zm-.4-5a.54.54,0,1,1,0-1.08.54.54,0,1,1,0,1.08Z"/><path class="cls-3" d="M27.37,28.86h-.92l-1.63-4.54h.84l1.25,3.8h0l1.25-3.8H29Z"/><path class="cls-3" d="M30.89,26.87c.07,1,.61,1.45,1.3,1.45a1.82,1.82,0,0,0,1.21-.42l.36.53a2.6,2.6,0,0,1-1.59.54,2.08,2.08,0,0,1-2.11-2.37,2.1,2.1,0,0,1,2-2.37c1.19,0,1.91.85,1.91,2.24,0,.16,0,.3,0,.41Zm0-.59h2.29c0-.94-.43-1.43-1.14-1.43S31,25.31,30.89,26.28Z"/><path class="cls-3" d="M35.53,28.86V24.33h.68l.06.62a2,2,0,0,1,1.49-.72c.88,0,1.28.5,1.28,1.34v3.3h-.79V26.08c0-.89-.09-1.24-.75-1.24a1.55,1.55,0,0,0-1.17.73v3.29Z"/><path class="cls-3" d="M41.93,27.41a.78.78,0,1,1-.78.77A.77.77,0,0,1,41.93,27.41Z"/><path class="cls-3" d="M45.94,27.41a.78.78,0,1,1-.78.77A.77.77,0,0,1,45.94,27.41Z"/><path class="cls-3" d="M23.35,38.79h-1l-.64-4.33h0l-.73,4.33H19.83l-.71-5.93h.82l.45,5h0l.78-4.3h.95l.64,4.28h0l.65-5h.75Z"/><path class="cls-3" d="M25.29,38.79V32.44l.79-.09v2.48a1.91,1.91,0,0,1,1.44-.68c.88,0,1.28.5,1.28,1.34v3.3H28V35.55c0-.54-.23-.77-.75-.77a1.55,1.55,0,0,0-1.17.73v3.29Z"/><path class="cls-3" d="M31.19,36.79c.07,1,.61,1.46,1.3,1.46a1.82,1.82,0,0,0,1.21-.42l.36.53a2.6,2.6,0,0,1-1.59.54,2.08,2.08,0,0,1-2.11-2.37,2.1,2.1,0,0,1,2-2.37c1.19,0,1.91.85,1.91,2.24,0,.16,0,.3,0,.4Zm0-.58h2.29c0-.94-.43-1.43-1.14-1.43S31.25,35.24,31.19,36.21Z"/><path class="cls-3" d="M35.83,38.79V34.26h.68l.06.62a2,2,0,0,1,1.49-.72c.88,0,1.28.5,1.28,1.34v3.3h-.79V36c0-.89-.09-1.24-.75-1.24a1.55,1.55,0,0,0-1.17.73v3.29Z"/><path class="cls-3" d="M42.56,37.34a.78.78,0,1,1-.78.77A.77.77,0,0,1,42.56,37.34Z"/><path class="cls-3" d="M46.57,37.34a.78.78,0,1,1-.78.77A.77.77,0,0,1,46.57,37.34Z"/><path class="cls-3" d="M22.31,43.48v5.24h-.82V43.48H19.65v-.69h4.52l-.09.69Z"/><path class="cls-3" d="M25.38,48.72V42.37l.79-.09v2.48a1.91,1.91,0,0,1,1.44-.68c.88,0,1.28.5,1.28,1.34v3.3H28.1V45.48c0-.54-.23-.77-.75-.77a1.55,1.55,0,0,0-1.17.73v3.29Z"/><path class="cls-3" d="M31.29,46.72c.07,1,.61,1.45,1.3,1.45a1.82,1.82,0,0,0,1.21-.42l.36.53a2.6,2.6,0,0,1-1.59.54,2.08,2.08,0,0,1-2.11-2.37,2.1,2.1,0,0,1,2-2.37c1.19,0,1.91.85,1.91,2.24,0,.16,0,.3,0,.41Zm0-.59h2.29c0-.94-.43-1.43-1.14-1.43S31.35,45.17,31.29,46.14Z"/><path class="cls-3" d="M35.92,48.72V44.19h.68l.06.62a2,2,0,0,1,1.49-.72c.88,0,1.28.5,1.28,1.34v3.3h-.79V45.94c0-.89-.09-1.24-.75-1.24a1.55,1.55,0,0,0-1.17.73v3.29Z"/><path class="cls-3" d="M42.33,47.27a.78.78,0,1,1-.78.77A.77.77,0,0,1,42.33,47.27Z"/><path class="cls-3" d="M46.33,47.27a.78.78,0,1,1-.78.77A.77.77,0,0,1,46.33,47.27Z"/><path class="cls-4" d="M21.25,7.54l2.35,5.88L26,7.54h1.23v7.2h-.95v-2.8l.09-3L24,14.74h-.73L20.88,8.92l.09,3v2.8H20V7.54Z"/><path class="cls-4" d="M31,14.84a2.34,2.34,0,0,1-1.77-.71,2.65,2.65,0,0,1-.68-1.91V12a3.21,3.21,0,0,1,.3-1.42,2.38,2.38,0,0,1,.85-1,2.14,2.14,0,0,1,1.18-.35,2,2,0,0,1,1.62.69,3,3,0,0,1,.58,2v.38H29.5A1.9,1.9,0,0,0,30,13.61a1.45,1.45,0,0,0,1.12.49,1.59,1.59,0,0,0,.82-.2,2.06,2.06,0,0,0,.59-.52l.56.44A2.25,2.25,0,0,1,31,14.84ZM30.93,10a1.22,1.22,0,0,0-.93.4,2,2,0,0,0-.46,1.13h2.68v-.07a1.75,1.75,0,0,0-.38-1.08A1.15,1.15,0,0,0,30.93,10Z"/><path class="cls-4" d="M35.57,8.09v1.3h1v.71h-1v3.32a.74.74,0,0,0,.13.48.56.56,0,0,0,.45.16A2.18,2.18,0,0,0,36.6,14v.74a2.67,2.67,0,0,1-.7.1,1.14,1.14,0,0,1-.92-.37,1.59,1.59,0,0,1-.31-1.05V10.1h-1V9.39h1V8.09Z"/><path class="cls-4" d="M41,14.74a1.93,1.93,0,0,1-.13-.56,2,2,0,0,1-1.52.66,1.89,1.89,0,0,1-1.3-.45,1.45,1.45,0,0,1-.51-1.14,1.51,1.51,0,0,1,.64-1.3,3,3,0,0,1,1.79-.46h.89v-.42a1,1,0,0,0-.29-.76A1.15,1.15,0,0,0,39.7,10a1.33,1.33,0,0,0-.82.25.73.73,0,0,0-.33.6h-.92a1.26,1.26,0,0,1,.28-.77,1.93,1.93,0,0,1,.77-.59,2.59,2.59,0,0,1,1.07-.22,2.11,2.11,0,0,1,1.45.46A1.67,1.67,0,0,1,41.75,11v2.46a3,3,0,0,0,.19,1.17v.08ZM39.46,14a1.61,1.61,0,0,0,.82-.22,1.35,1.35,0,0,0,.56-.58v-1.1h-.72q-1.68,0-1.68,1a.84.84,0,0,0,.29.67A1.1,1.1,0,0,0,39.46,14Z"/></svg>