<svg id="Layer_1" data-name="Layer 1" xmlns="http://www.w3.org/2000/svg" viewBox="0 0 2460 1440"><defs><style>.cls-1{fill:#fff;}</style></defs><title>gwen-logo-w</title><path class="cls-1" d="M148.37,1395c-28,0-41.62-9.59-41.62-29.31,0-20,13.23-29.25,41.62-29.25h116c14.37,0,23.35-6.63,32.77-14.65L313,1307.52c6.31-6.26,9.92-16.24,9.92-27.42V1190l-16.34,16.09c-20.48,20.15-37.08,29.94-50.75,29.94H181.33c-13.23,0-28-2.22-46.22-18.32l-39.55-35c-17.25-15.78-19.14-30.14-19.14-57V1031c0-28.85,8.26-54,21-64l46.13-35.67c13.78-10.87,23.48-14.55,38.41-14.55h61.28c14.69,0,32.88,9.19,60.82,30.74l18.81,14.66V951.25c0-15.9,8-34.47,30.44-34.47,25.59,0,29.12,20,29.12,41.59v304.22c0,57.89-5.35,67.82-30.31,88.7l-21.09,17.51c-27.51,22.59-42.83,26.2-77.89,26.2Zm42.18-419.7c-8.2,0-14.62,2.06-19.64,6.28l-26.32,20.75c-7.94,6.38-8.61,20.24-8.61,33.88v80.41c0,13.65.66,27.51,8.59,33.92l26.49,20.87c4.94,4.13,11.31,6.14,19.48,6.14h46.14c8.24,0,17.3-6.11,30.17-16.65l48.72-39.52c6.38-5.45,7.33-16.28,7.33-22.26v-45.39c0-4.82-.7-16.61-7.21-22.18l-48.84-39.61C254,981.39,245,975.3,236.69,975.3Z"/><path class="cls-1" d="M659.18,1262.65c-10,0-18.52-10.31-24.85-19.3l-35.78-52.85-35.81,52.87c-6.32,9-14.8,19.28-24.81,19.28H513.54c-18.1,0-22.7-14.26-28-30.76-.81-2.49-32.84-97.74-33.16-98.7l-.23-.68-6.58-172.93c-.53-17.14,2.39-28.73,8.91-35.48,4.76-4.93,11.38-7.32,20.21-7.32,25.08,0,29.12,21.71,29.77,42.94l6.6,161.16,21.16,61.8,36.6-61.64v-57.6c0-19.36,3.38-41.59,29.77-41.59s29.77,22.22,29.77,41.59V1121l36.6,61.65,21.14-61.81,6.6-161.15c.47-15,2.74-25.11,7.15-31.9,4.83-7.44,12.24-11.05,22.63-11.05,8.84,0,15.45,2.39,20.21,7.32,6.52,6.74,9.43,18.35,8.9,35.49L745,1132.51l-.23.68c-.32,1-32.35,96.18-33.16,98.68-5.34,16.51-9.95,30.78-28,30.78Z"/><path class="cls-1" d="M928.78,1262.65c-26.35,0-36.21,0-55.46-16.43l-27-23.33c-25.15-22.13-31.65-36.23-31.65-68.62v-120c0-32.37,4.53-51.58,30.3-73.18l22.42-18.8c29.91-25.52,44.5-25.52,68.68-25.52h58c30.57,0,44.78,3.22,68.69,22.3l25.73,20.13c27.24,21.33,32.23,43.54,32.23,79.61v49.93c0,17.83-1.08,28.13-7,35-6.63,7.69-18.18,9.23-34.66,9.23H874.22v22.59c0,6.49,4.93,14.72,9.79,19.5l.15.15,15.6,16.66c9.65,10.23,23.81,12.28,43.53,12.28h135.75c28.41,0,41.64,9.29,41.64,29.25,0,19.69-13.62,29.27-41.64,29.27Zm132.36-188.26v-41.77c.05-10.5.1-20.4-8.46-28.23l-24.6-20.95c-8-7.17-20.35-8.14-31.41-8.14H943.3c-12,0-22.29,0-33.28,7.42l-21.84,15.65c-8.67,6.37-14,11.58-14,30v46Z"/><path class="cls-1" d="M1460.69,1262.65c-25.53,0-29.23-23-29.79-40.34l-6.6-192c-.58-17.07-1.55-32-7.53-41.31s-17.52-13.7-37.16-13.7h-21.07a40.68,40.68,0,0,0-20.72,6.11l-94.49,58.29v182c0,19.07-3.39,41-29.79,41s-29.78-21.89-29.78-41V961c0-22.36,2.3-44.19,29.78-44.19,26.18,0,29.79,20.93,29.79,43.55v11.48l3.06-1.58,51.2-33c17.15-10.8,34.13-20.47,53.68-20.47h46.79c23,0,38.07,5.82,57.46,22.26,25.58,21.67,26.39,45.43,27.41,75.5l6.86,203.36c.35,11.73-.21,28.35-9,37.48C1476,1260.28,1469.45,1262.65,1460.69,1262.65Z"/><path class="cls-1" d="M2315.21,50.12C2260.8,45,2080.65,199.56,1948.87,387.65,1898,460.23,1862.56,516.85,1834,571.41c-18.91-43.32-53.73-113.13-135.91-227.56C1567.91,162.57,1401.85,35.42,1335.5,66.21,1234.64,113,1303.43,486.08,1379,670.29c35.72,87,94.46,215.23,192.31,323.84,64.2,71.24,119.9,106.42,169,106.42a99.76,99.76,0,0,0,40.74-8.7c66.33-29.43,70.65-139.8,69.48-231.77,10.26,27.33,24.83,52.41,48.56,66.44,38.39,22.66,91.12,12.29,148.44-29.2,70.08-50.7,131.57-138.29,173.13-246.66,32.09-83.73,141.31-431.06,46.75-473.26-8.72-3.89-19.93-3-34.18,2.68-77.23,30.76-273,226.22-374.22,459.85-4.79-14.3-9.36-27.91-13.82-40.22,29.61-59.36,66.64-119.49,122.56-199.28C2107,201.66,2275.09,68.42,2313,72.54c52.92,5.07,43.39,136.45,38.78,199.6L2351,283.2c-13.45,191-78.65,407.56-166.17,551.59-92.6,152.39-174.34,243.4-218.61,243.4v22.51c69.18,0,167.75-138.32,238.25-254.37,89.22-146.83,155.68-367.27,169.35-561.58l.79-11C2380.49,192.81,2390.33,57.36,2315.21,50.12Zm-543.6,1021.19c-47.5,21-109.1-9.91-183.18-92.1-95.5-106-153.15-231.9-188.21-317.35-85.53-208.49-128.42-541.21-55-575.29A32.21,32.21,0,0,1,1358.75,84c55.53,0,193,95,320.67,272.85C1763.39,473.79,1797,543.07,1815,585c1.75,4,3.52,8.52,5.36,13.36-3.54,7.18-7,14.37-10.3,21.6-1.12,2.41-2,4.68-3,7-61.18-172.94-250.84-396.29-355.6-443.25-21.35-9.58-38.93-11.47-52.28-5.65-17.39,7.59-30.59,23.07-39.22,46-33.45,88.83,6.67,278.14,65.16,399.21,29.86,61.89,79.11,144.93,121.81,191,73.57,79.32,138.31,123.27,179.68,123.27a45,45,0,0,0,19.14-3.93c3.78-.95,10-3.65,16.14-11.2,16.29-20.08,21.71-61.39,16.45-122.7a132.39,132.39,0,0,0,12.82-28.94c1.27-4.2,2.32-10.36,3.77-18.85,2.11-12.55,5.23-30.68,10.93-52.33,5,17.35,8.63,30.36,12.61,47.43,0,0,3.05,12.25,8.28,30.22-.39,15.55,0,34,.38,54.54C1828.78,916.64,1831.27,1044.87,1771.61,1071.31ZM1498.18,599.18c-46.67-84.54-77.21-225.84-30.61-247.59s152.15,83.29,199.47,169c63.58,115.06,77.3,225.92,30.63,247.63S1561.76,714.21,1498.18,599.18Zm275.64,140.57c-3.15-62.55-29.76-147-77.4-233.23-63.12-114.27-203.83-254.24-266-225.27S1409,498.6,1471.26,611.37c67.33,121.82,156.22,210.26,221.11,227.07l-.29,1.34a87.36,87.36,0,0,0,19.27,1.76,58.17,58.17,0,0,0,21-3.31A72.45,72.45,0,0,0,1757,825.09c3,76.88-16.37,86.6-15.79,86.6h0l-2.48.19L1736.6,913c-15.64,8.21-71.84-5.07-172.78-113.85-40.89-44.1-89.85-127-118.06-185.47-55.28-114.51-95.35-299.45-64.35-381.71,6.42-17,15.51-28.23,27-33.27,6.92-3,18.85-1,33.55,5.56,101.76,45.62,296.32,278.45,348.51,445.21l.61-.17,3,10.33A499.86,499.86,0,0,0,1773.82,739.74ZM1853,745.6c1.21-4.16,2-9.58,3.07-16.41.79-5,1.65-10.67,2.81-16.81,2.44,7.28,5.07,15,8.34,23.89,13.47,37.16,37.62,60.22,54.32,65.89,40,13.58,69.69-2.48,76.25-6.54,50.54-22.73,115.31-95.65,165.85-193,51.57-99.46,85.45-261.93,36.18-286.9S2035.9,414.06,1985,512.15c-59.11,114-79.42,224-53.46,269.37-.88-.27-1.65-.36-2.55-.64-9.82-3.35-29.4-22.24-40.26-52.2-5.94-16.34-9.88-28.43-14.16-41.75L1870,672.87c.12-.36.27-.72.4-1.08,95.6-238.39,294.78-440.32,371.38-470.84,9.55-3.82,14.68-3.71,16.16-3,57.41,25.63,2.69,284.69-58.7,444.81-39.45,102.84-99.71,189-165.27,236.47-48.71,35.27-93.58,45.46-123.15,28-31.69-18.74-44.43-68.54-54.65-108.56-2.19-8.51-4.27-16.64-6.42-24.17C1850.12,762.13,1851.07,752.19,1853,745.6Zm173.11-227.74c21.27-50.86,74.38-116.31,101.48-105.18s18.12,93.88-3.44,145.43c-28.94,69.2-74.42,116.33-101.48,105.18S1997.08,587.1,2026.08,517.86ZM1837.69,648.34l6.44,19.23c.56,1.67,1.11,3.3,1.63,4.89a265.94,265.94,0,0,0-11.07,45.36c-3.42-12.81-7.24-25.71-12.51-43.62l-4-13.69c3.67-10.07,7.78-20.46,12.74-31.22a4.6,4.6,0,0,1,.21-.45Q1834.37,638.36,1837.69,648.34Z"/></svg>