<svg id="main" xmlns="http://www.w3.org/2000/svg" xmlns:xlink="http://www.w3.org/1999/xlink" viewBox="0 0 64 64"><defs><style>.cls-1{fill:url(#New_Gradient_Swatch_2);}.cls-2{fill:#1a0b6d;}</style><linearGradient id="New_Gradient_Swatch_2" x1="30.5" y1="11.49" x2="49.87" y2="33.62" gradientUnits="userSpaceOnUse"><stop offset="0" stop-color="#c53527"/><stop offset="1" stop-color="#201c83"/></linearGradient></defs><title>gwen-icon</title><path class="cls-1" d="M48.88,2C47,1.83,40.69,7.08,36.09,13.47a56.14,56.14,0,0,0-4,6.24A41.33,41.33,0,0,0,27.33,12C22.79,5.82,17,1.5,14.67,2.55c-3.52,1.59-1.12,14.27,1.52,20.52a37.57,37.57,0,0,0,6.72,11c2.24,2.42,4.19,3.62,5.9,3.62a3.55,3.55,0,0,0,1.42-.3c2.32-1,2.47-4.75,2.43-7.87a4.23,4.23,0,0,0,1.7,2.26c1.34.77,3.18.42,5.18-1a18.5,18.5,0,0,0,6-8.38c1.12-2.84,4.93-14.65,1.63-16.08A1.57,1.57,0,0,0,46,6.42C43.32,7.46,36.49,14.11,33,22c-.17-.49-.33-.95-.48-1.37a52.27,52.27,0,0,1,4.28-6.77C41.61,7.15,47.48,2.63,48.81,2.77c1.85.17,1.51,4.64,1.35,6.78l0,.38a44.1,44.1,0,0,1-5.8,18.74c-3.23,5.18-6.09,8.27-7.63,8.27v.76c2.42,0,5.86-4.7,8.32-8.64A44.89,44.89,0,0,0,50.93,10l0-.37C51.16,6.85,51.51,2.25,48.88,2Zm-19,34.7c-1.66.72-3.81-.34-6.4-3.13a36.85,36.85,0,0,1-6.57-10.78C13.94,15.7,12.45,4.4,15,3.24a1.15,1.15,0,0,1,.47-.09c1.94,0,6.74,3.23,11.2,9.27a39.94,39.94,0,0,1,4.74,7.75l.19.45-.36.73-.11.24C29,15.73,22.38,8.14,18.72,6.55a2.34,2.34,0,0,0-1.83-.19,2.61,2.61,0,0,0-1.37,1.56c-1.17,3,.23,9.45,2.28,13.56A30,30,0,0,0,22.05,28c2.57,2.69,4.83,4.19,6.27,4.19A1.61,1.61,0,0,0,29,32a1.08,1.08,0,0,0,.56-.38c.57-.68.76-2.09.57-4.17a4.49,4.49,0,0,0,.45-1,5.73,5.73,0,0,0,.13-.64c.07-.43.18-1,.38-1.78.18.59.3,1,.44,1.61,0,0,.11.42.29,1,0,.53,0,1.15,0,1.85C31.9,31.45,32,35.8,29.9,36.7Zm-9.55-16c-1.63-2.87-2.7-7.67-1.07-8.41s5.31,2.83,7,5.74c2.22,3.91,2.7,7.68,1.07,8.41S22.57,24.57,20.35,20.66ZM30,25.43a19.29,19.29,0,0,0-2.7-7.92c-2.2-3.88-7.12-8.64-9.29-7.65s-.75,7.39,1.43,11.22c2.35,4.14,5.46,7.14,7.72,7.71v0a3.17,3.17,0,0,0,.67.06,2.06,2.06,0,0,0,.73-.11,2.55,2.55,0,0,0,.86-.45c.11,2.61-.57,2.94-.55,2.94h-.09l-.08,0c-.55.28-2.51-.17-6-3.87a29.76,29.76,0,0,1-4.12-6.3c-1.93-3.89-3.33-10.17-2.25-13a1.87,1.87,0,0,1,.94-1.13,1.66,1.66,0,0,1,1.17.19c3.55,1.55,10.35,9.46,12.17,15.13h0l.11.35A16.6,16.6,0,0,0,30,25.43Zm2.76.2a4.66,4.66,0,0,0,.11-.56c0-.17.06-.36.1-.57.08.25.18.51.29.81a3.71,3.71,0,0,0,1.9,2.24,3.25,3.25,0,0,0,2.66-.22c1.76-.77,4-3.25,5.79-6.56s3-8.9,1.26-9.75-5.72,3.34-7.5,6.67c-2.06,3.87-2.77,7.61-1.87,9.15l-.09,0A3.13,3.13,0,0,1,34,25.06c-.21-.55-.34-1-.49-1.42l-.16-.48v0c3.34-8.1,10.29-15,13-16a1,1,0,0,1,.56-.1c2,.87.09,9.67-2.05,15.11a18,18,0,0,1-5.77,8c-1.7,1.2-3.27,1.54-4.3,1s-1.55-2.33-1.91-3.69c-.08-.29-.15-.57-.22-.82A4.26,4.26,0,0,1,32.74,25.63Zm6-7.74c.74-1.73,2.6-4,3.54-3.57s.63,3.19-.12,4.94c-1,2.35-2.6,4-3.54,3.57S37.77,20.25,38.79,17.9Zm-6.58,4.43.23.65.06.17a8.79,8.79,0,0,0-.39,1.54c-.12-.44-.25-.87-.44-1.48l-.14-.46c.13-.34.27-.7.45-1.06h0Z"/><path class="cls-2" d="M9.34,50.62a2.69,2.69,0,0,1,.7-2l1.48-1.11A1.85,1.85,0,0,1,12.78,47h2a3.81,3.81,0,0,1,2,1l.51.38v-.22a1,1,0,0,1,1-1.13c.89,0,1,.71,1,1.35v9.46c0,1.76-.15,2.12-1,2.8l-.67.55a3.29,3.29,0,0,1-2.53.83H11.7c-.59,0-1.39-.12-1.39-1s.72-1,1.39-1h3.71a1.49,1.49,0,0,0,1-.44l.51-.44a1.11,1.11,0,0,0,.3-.81V55.7l-.42.4a2.87,2.87,0,0,1-1.67.95H12.76a2.12,2.12,0,0,1-1.52-.59L10,55.38a2,2,0,0,1-.63-1.82Zm2,2.66c0,.4,0,.83.25,1l.84.65a.89.89,0,0,0,.59.18h1.48a1.79,1.79,0,0,0,.93-.5L17,53.38a.86.86,0,0,0,.21-.65V51.32a.86.86,0,0,0-.21-.65l-1.56-1.23a1.79,1.79,0,0,0-.93-.5H13.05a.89.89,0,0,0-.59.18l-.84.65c-.23.18-.25.61-.25,1Z"/><path class="cls-2" d="M27.11,53.4l1.1,1.8.63-1.8.21-5c0-.67.15-1.39,1-1.39s1,.73,1,1.39l-.21,5.39-1,2.87c-.21.59-.32,1.23-1,1.23H28c-.36,0-.65-.36-.84-.63l-1.1-1.57L25,57.26c-.19.26-.48.63-.84.63h-.78c-.72,0-.82-.65-1-1.23l-1-2.87-.21-5.39c0-.67.11-1.39,1-1.39s1,.73,1,1.39l.21,5L24,55.2l1.1-1.8V51.63c0-.67.15-1.35,1-1.35s1,.69,1,1.35Z"/><path class="cls-2" d="M36.66,57.88a2.21,2.21,0,0,1-1.81-.52L34,56.63a2.37,2.37,0,0,1-1-2.18V50.72a2.5,2.5,0,0,1,1-2.32l.72-.59A2.79,2.79,0,0,1,36.89,47h1.85a3,3,0,0,1,2.23.71l.82.63a2.69,2.69,0,0,1,1.05,2.52v1.55c0,1.11-.19,1.43-1.39,1.43H35v.65a.93.93,0,0,0,.3.56l.51.52a1.75,1.75,0,0,0,1.35.36h4.34c.67,0,1.39.14,1.39,1s-.8,1-1.39,1Zm-1.69-6h5.86V50.74c0-.36,0-.67-.25-.91l-.78-.65a1.48,1.48,0,0,0-1-.24H37.12a1.69,1.69,0,0,0-1,.22l-.7.48a.87.87,0,0,0-.42.89Z"/><path class="cls-2" d="M46.77,50.92v5.63c0,.67-.15,1.33-1,1.33s-1-.67-1-1.33V48.44c0-.71.08-1.43,1-1.43s1,.73,1,1.41v.26l1.64-1A3.41,3.41,0,0,1,50.17,47h1.5a2.62,2.62,0,0,1,1.88.71c.91.75.86,1.57.91,2.62l.21,6.09c0,.69-.08,1.45-1,1.45s-1-.67-1-1.31l-.21-6c0-1.19-.15-1.65-1.37-1.65H50.4a1.26,1.26,0,0,0-.63.18Z"/></svg>