<svg id="Layer_1" data-name="Layer 1" xmlns="http://www.w3.org/2000/svg" xmlns:xlink="http://www.w3.org/1999/xlink" viewBox="0 0 1120 1150"><defs><style>.cls-1{fill:url(#linear-gradient);}</style><linearGradient id="linear-gradient" x1="739.94" y1="1029.56" x2="1142.51" y2="1522.71" gradientTransform="translate(15 -686.93) rotate(10)" gradientUnits="userSpaceOnUse"><stop offset="0" stop-color="#f91509"/><stop offset="1" stop-color="#1a0b80"/></linearGradient></defs><title>gwen-logo</title><path class="cls-1" d="M1066.2,165.49C1013.5,151,809.25,271.93,646.81,434.28c-62.67,62.65-107.44,112.25-145,161-11.1-45.94-33.27-120.74-94.33-247.71C310.72,146.46,169.27-7.59,98.58,11.21-8.88,39.78-5.92,419.13,36.5,613.66,56.57,705.54,92.16,842,169.66,966c50.85,81.31,99.6,125.62,147.93,134.14a99.76,99.76,0,0,0,41.63-1.49c70.43-17.46,93.86-125.41,108.67-216.18,5.36,28.7,15.35,55.92,36.28,73.86,33.87,29,87.6,27.93,151.25-3C733.24,915.56,809,840,868.76,740.47c46.14-76.88,214-400,128.22-458-7.92-5.34-19.1-6.43-34.13-3.3C881.46,296.1,654.7,454.59,514.47,667.1c-2.23-14.91-4.37-29.12-6.62-42,39.47-53.31,86.37-106.1,155.3-175,171.65-171.57,360.37-273.58,397-262.94,51.23,14.18,19,141.91,3.53,203.3L1061,401.24C1014.56,587,912.75,789,801.55,915.6c-117.66,134-214,209.43-257.56,201.74l-3.91,22.17c68.13,12,189.22-107.09,278.8-209.13C932.24,801.26,1036,595.72,1083.17,406.73l2.69-10.7C1105.71,317.34,1138.92,185.66,1066.2,165.49ZM353.53,1076.77c-50.43,12.48-105.73-28.7-164.4-122.51-75.64-121-110.55-255-130.25-345.21-48-220.17-32.49-555.29,45.76-576.1a32.21,32.21,0,0,1,13.75-.18c54.69,9.64,173.53,127.06,268.41,324.39C449.19,486.9,470.29,561,480.74,605.42c1,4.28,2,9,3,14.09C479,626,474.31,632.44,469.8,639c-1.52,2.18-2.78,4.26-4.21,6.41C435.37,464.46,287.38,211.57,192.36,147.14,173,134,156,129.08,141.85,132.49c-18.44,4.46-34.13,17.41-46.61,38.51-48.37,81.67-41.73,275.07-5.15,404.46,18.66,66.14,52.74,156.47,86.8,209.22,58.68,90.89,114.81,145.42,155.55,152.6a45,45,0,0,0,19.53-.55c3.89-.28,10.47-1.86,17.84-8.22,19.53-17,32-56.69,37.5-118A132.4,132.4,0,0,0,425,784.25c2-3.91,4.09-9.8,7-17.91,4.26-12,10.47-29.3,19.85-49.64,1.95,18,3.22,31.4,4.18,48.9,0,0,.88,12.6,2.91,31.2-3.08,15.24-5.9,33.45-9.09,53.78C436.68,934.38,416.88,1061.09,353.53,1076.77ZM166.23,564.33C134.95,473,129.42,328.51,179.08,315.18s135.37,108.44,167.1,201c42.64,124.36,36.9,235.91-12.84,249.18S208.88,688.65,166.23,564.33Zm247,186.3c7.76-62.15-3.78-149.95-35.72-243.12C335.24,384,221,221.73,154.74,239.46S95.87,449.79,137.6,571.66c45.15,131.66,117.34,234.19,178.32,262l-.52,1.27A87.36,87.36,0,0,0,334.08,840a58.17,58.17,0,0,0,21.22.38,72.45,72.45,0,0,0,26.6-8.66C371.52,908,350.74,914.2,351.31,914.3h0l-2.47-.24-2.32.74c-16.83,5.37-69.87-17.47-150.39-142.13C163.54,722.14,129.72,632,112.09,569.52,77.53,447.14,70.19,258.06,115,182.43c9.28-15.67,20.17-25.1,32.4-28.07,7.34-1.78,18.74,2.25,32.08,11.3,92.3,62.59,243.46,325.68,265.9,499l.63-.06,1.18,10.69A499.86,499.86,0,0,0,413.28,750.62Zm76.93,19.52c1.91-3.89,3.67-9.08,5.88-15.63,1.65-4.81,3.48-10.22,5.68-16.07,1.14,7.59,2.4,15.61,4.06,25,6.81,38.94,26.6,65.84,42.06,74.32,37,20.32,69.07,9.66,76.22,6.8C677.83,830.91,754.28,770.35,821,683.26,889,594.26,950.59,440.15,906.41,407S727.93,475.4,660.77,563.16c-78,102-117.11,206.82-99.42,256-.82-.41-1.56-.64-2.4-1.08-9.09-5-25.09-27-30.58-58.4-3-17.12-4.79-29.71-6.7-43.57-.66-4.66-1.35-9.48-2.08-14.64.18-.33.39-.66.58-1C655.71,482.3,886.94,318,967.67,301.27c10.07-2.1,15.1-1.1,16.44-.19,52.09,35.21-46.79,280.84-135.05,427.85-56.71,94.42-131,168.83-203.82,204.18-54.09,26.28-100.05,28.52-126.14,6.2-28-24-31.85-75.21-35-116.4-.68-8.76-1.31-17.13-2.12-24.92C484.54,785.92,487.19,776.29,490.21,770.14Zm210-194.22c29.78-46.4,93.45-101.63,118.2-86s1.54,95.6-28.64,142.62c-40.51,63.12-93.49,101.64-118.2,86S659.66,639.07,700.24,575.92ZM492.05,671.7l3,20.06c.26,1.74.52,3.44.76,5.1A265.94,265.94,0,0,0,477,739.6c-1.14-13.21-2.67-26.58-4.75-45.13l-1.56-14.18c5.36-9.28,11.22-18.8,18-28.54a4.6,4.6,0,0,1,.28-.4Q490.51,661.29,492.05,671.7Z"/></svg>