<svg id="Layer_1" data-name="Layer 1" xmlns="http://www.w3.org/2000/svg" xmlns:xlink="http://www.w3.org/1999/xlink" viewBox="0 0 1110.91 752.62"><defs><style>.cls-1{fill:url(#linear-gradient);}</style><linearGradient id="linear-gradient" x1="491.91" y1="375.03" x2="842.37" y2="804.33" gradientTransform="matrix(0.98, 0.17, -0.17, 0.98, 111.19, -76.77)" gradientUnits="userSpaceOnUse"><stop offset="0" stop-color="#ed1409"/><stop offset="0.1" stop-color="#e5140e"/><stop offset="0.25" stop-color="#ce131a"/><stop offset="0.44" stop-color="#a9112f"/><stop offset="0.66" stop-color="#760f4c"/><stop offset="0.91" stop-color="#350c71"/><stop offset="1" stop-color="#1a0b80"/></linearGradient></defs><title>gwen-logo-10</title><path class="cls-1" d="M901.4,403.44c-44.24-33.13-178.24,68.31-245.31,155.95-52.94,69.21-87.93,139.73-99.38,193.24H751.6a700.89,700.89,0,0,0,64.45-73.31C884,590.44,945.52,436.54,901.4,403.44ZM784.94,628.7c-40.46,63-93.36,101.5-118,85.84S655,635.18,695.5,572.12c29.74-46.33,93.32-101.48,118-85.84S815.09,581.76,784.94,628.7Zm276-466.45c-52.64-14.47-256.6,106.29-418.83,268.43-62.59,62.56-107.3,112.09-144.83,160.8-11.09-45.89-33.23-120.59-94.2-247.38C306.52,143.25,165.25-10.61,94.65,8.18-12.65,36.71-9.7,415.55,32.66,609.82c8.85,40.55,20.74,89.79,37.92,142.81h24C76.45,697.89,64.1,646.88,55,605.21,7,385.33,22.57,50.67,100.7,29.89a32.09,32.09,0,0,1,13.73-.18c54.62,9.63,173.3,126.89,268.06,323.94,62.3,129.57,83.38,203.55,93.8,247.93,1,4.27,2,9,3,14.07-4.72,6.45-9.37,12.92-13.87,19.46-1.52,2.18-2.78,4.25-4.2,6.4-30.18-180.7-178-433.25-272.86-497.6-19.33-13.12-36.3-18-50.44-14.62-18.42,4.44-34.08,17.39-46.55,38.46C43,249.31,49.64,442.45,86.17,571.67c15.65,55.46,42.15,128,70.39,181h25.91C153,700.69,124,622,108.15,565.74c-34.51-122.22-41.84-311,2.91-386.57,9.26-15.65,20.14-25.07,32.36-28,7.33-1.78,18.71,2.25,32,11.28C267.62,224.93,418.58,487.66,441,660.72l.63-.06,1.18,10.68a498.75,498.75,0,0,0-33.86,75.26c7.75-62.07-3.78-149.75-35.68-242.79C331,380.47,216.88,218.41,150.74,236.12S92,446.17,133.63,567.87c25.12,73.23,58.6,137.43,93.86,184.75h59.9c-43.76-25.89-93.4-99.46-125.17-192.08-31.24-91.24-36.77-235.49,12.83-248.8S310.24,420,341.93,512.51c37.53,109.44,37.53,209,3,240.12H431c4-10.92,9.27-24.55,16.36-39.91,1.61,14.77,2.76,26.47,3.63,39.91H490.9c.24-.7.48-1.42.73-2.16,1.65-4.79,3.48-10.2,5.68-16,.85,5.7,1.77,11.64,2.89,18.21h23.14c-2.69-15.6-4.36-27.48-6.16-40.51-.66-4.65-1.35-9.47-2.08-14.62.18-.34.39-.66.59-1C651,478.63,881.95,314.58,962.57,297.85c10.06-2.11,15.08-1.1,16.42-.19,52,35.15-46.72,280.45-134.87,427.27q-8.51,14.16-17.52,27.69h27.21q5.06-8,10-16.17c46.08-76.78,213.72-399.43,128-457.33-7.91-5.33-19.07-6.42-34.08-3.3C876.48,292.69,650,451,510,663.19c-2.23-14.89-4.36-29.07-6.61-41.94,39.42-53.25,86.25-106,155.09-174.73,171.42-171.34,359.88-273.22,396.46-262.59,51.16,14.16,19,141.72,3.52,203l-2.67,10.74c-29.93,119.8-82.92,246.3-146.6,354.94h26.29c61.85-107.93,113.11-231.91,142.47-349.46l2.69-10.69C1100.42,313.9,1133.59,182.39,1061,162.25ZM472.6,735.59c-1.14-13.19-2.67-26.54-4.73-45.07l-1.56-14.16c5.35-9.27,11.2-18.77,17.95-28.49.08-.14.18-.27.28-.41,1,6.62,2,13.38,3.07,20.32l3,20c.26,1.75.52,3.45.76,5.09A266.71,266.71,0,0,0,472.6,735.59ZM901.4,403.44c-44.24-33.13-178.24,68.31-245.31,155.95-52.94,69.21-87.93,139.73-99.38,193.24H751.6a700.89,700.89,0,0,0,64.45-73.31C884,590.44,945.52,436.54,901.4,403.44ZM784.94,628.7c-40.46,63-93.36,101.5-118,85.84S655,635.18,695.5,572.12c29.74-46.33,93.32-101.48,118-85.84S815.09,581.76,784.94,628.7ZM901.4,403.44c-44.24-33.13-178.24,68.31-245.31,155.95-52.94,69.21-87.93,139.73-99.38,193.24H751.6a700.89,700.89,0,0,0,64.45-73.31C884,590.44,945.52,436.54,901.4,403.44ZM784.94,628.7c-40.46,63-93.36,101.5-118,85.84S655,635.18,695.5,572.12c29.74-46.33,93.32-101.48,118-85.84S815.09,581.76,784.94,628.7Z"/></svg>