<svg id="main" xmlns="http://www.w3.org/2000/svg" viewBox="0 0 64 64"><rect x="-14.93" y="-15.36" width="94.48" height="94.48" style="fill:none;stroke:#000;stroke-miterlimit:10"/><path d="M52,52.92l-2.29.57a140.8,140.8,0,0,1-19.81,3c-2.73.24-5.4.4-8,.49H12V7H49.71V34.56c0,2,.09,4.13.29,6.35.12,1.24.26,2.52.44,3.8A75.69,75.69,0,0,0,52,52.92Z" style="fill:#e7f0fb"/><path d="M20.09,29.1c0-1.38.83-2.07,1.69-2.07a1.54,1.54,0,0,1,1.17.45l-.32.34a1.15,1.15,0,0,0-.84-.34c-.57,0-1.11.41-1.11,1.62s.36,1.63,1,1.63a1.53,1.53,0,0,0,.73-.19V29.35H21.7l-.07-.44H23v1.92a2.66,2.66,0,0,1-1.32.35C20.7,31.18,20.09,30.49,20.09,29.1Z" style="fill:#1a1a1a"/><path d="M25.51,30.7h.86v.41H24V30.7h1V28.46h-.91V28h1.45Zm-.27-3.39a.35.35,0,0,1-.37-.33h0a.36.36,0,0,1,.35-.37h0a.38.38,0,0,1,.38.36h0a.36.36,0,0,1-.36.36h0Z" style="fill:#1a1a1a"/><path d="M28.71,31.11h-.62L27,28h.57l.85,2.58h0L29.26,28h.56Z" style="fill:#1a1a1a"/><path d="M31.19,29.76a.88.88,0,0,0,.72,1h.16a1.19,1.19,0,0,0,.81-.29l.25.36a1.79,1.79,0,0,1-1.07.36,1.41,1.41,0,0,1-1.44-1.38h0v-.22c0-.93.52-1.61,1.34-1.61s1.29.58,1.29,1.52v.27Zm0-.39h1.55c0-.64-.29-1-.77-1S31.23,28.71,31.19,29.37Z" style="fill:#1a1a1a"/><path d="M34.41,31.11V28h.46v.42a1.34,1.34,0,0,1,1-.49c.59,0,.86.34.86.91v2.23H36.2V29.23c0-.6-.06-.84-.51-.84a1,1,0,0,0-.79.5v2.22Z" style="fill:#1a1a1a"/><path d="M38.84,30.13A.53.53,0,0,1,39,31.18a.38.38,0,0,1-.15,0,.53.53,0,0,1-.45-.6h0A.52.52,0,0,1,38.84,30.13Z" style="fill:#1a1a1a"/><path d="M41.67,30.13a.53.53,0,1,1-.53.53h0a.52.52,0,0,1,.52-.52h0Z" style="fill:#1a1a1a"/><path d="M25.9,37.75h-.7l-.43-2.93h0l-.5,2.93h-.73l-.47-4h.55l.3,3.38h0l.53-2.91h.64l.43,2.9h0L26,33.73h.51Z" style="fill:#1a1a1a"/><path d="M27.3,37.75v-4.3l.53-.06v1.68a1.33,1.33,0,0,1,1-.46c.59,0,.86.34.86.91v2.23h-.54v-2.2c0-.37-.16-.52-.51-.52a1,1,0,0,0-.79.49v2.23Z" style="fill:#1a1a1a"/><path d="M31.38,36.4c.05.68.41,1,.88,1a1.22,1.22,0,0,0,.82-.28l.24.35a1.72,1.72,0,0,1-1.07.37,1.41,1.41,0,0,1-1.44-1.38h0v-.22a1.43,1.43,0,0,1,1.24-1.6h.1c.81,0,1.29.57,1.29,1.51v.28Zm0-.4h1.55c0-.63-.29-1-.77-1S31.42,35.34,31.38,36Z" style="fill:#1a1a1a"/><path d="M34.6,37.75V34.68h.46v.42a1.34,1.34,0,0,1,1-.49.78.78,0,0,1,.87.68h0a.81.81,0,0,1,0,.22v2.23h-.54V35.87c0-.6-.06-.84-.51-.84a1,1,0,0,0-.79.49v2.23Z" style="fill:#1a1a1a"/><path d="M39.17,36.76a.53.53,0,1,1-.53.53h0A.53.53,0,0,1,39.17,36.76Z" style="fill:#1a1a1a"/><path d="M42,36.76a.53.53,0,1,1-.53.53h0A.53.53,0,0,1,42,36.76Z" style="fill:#1a1a1a"/><path d="M25.15,40.83v3.55H24.6V40.83H23.35v-.46h3.06l-.06.46Z" style="fill:#1a1a1a"/><path d="M27.31,44.38v-4.3l.54-.06V41.7a1.24,1.24,0,0,1,1-.46.78.78,0,0,1,.87.68h0a.81.81,0,0,1,0,.22v2.23h-.54V42.19c0-.37-.16-.53-.51-.53a1,1,0,0,0-.79.5v2.22Z" style="fill:#1a1a1a"/><path d="M31.4,43c.05.68.41,1,.88,1a1.19,1.19,0,0,0,.81-.29l.25.36a1.79,1.79,0,0,1-1.07.36,1.41,1.41,0,0,1-1.44-1.38h0v-.22c0-.93.52-1.61,1.34-1.61s1.29.58,1.29,1.52V43Zm0-.4H33c0-.63-.29-1-.77-1S31.44,42,31.4,42.6Z" style="fill:#1a1a1a"/><path d="M34.62,44.38V41.31h.46v.42a1.34,1.34,0,0,1,1-.49c.6,0,.86.34.86.91v2.23h-.53V42.5c0-.6-.06-.84-.51-.84a1,1,0,0,0-.79.5v2.22Z" style="fill:#1a1a1a"/><path d="M39.06,43.4a.53.53,0,1,1-.53.53h0a.52.52,0,0,1,.52-.52h0Z" style="fill:#1a1a1a"/><path d="M41.88,43.4a.53.53,0,1,1-.53.53h0a.52.52,0,0,1,.52-.52h0Z" style="fill:#1a1a1a"/><path d="M19.17,14.22v1.17h1.57v.78H19.17v1.76H18.11V13.46h2.95l-.11.76Z" style="fill:#1a0b6d"/><path d="M22.58,16.52a.75.75,0,0,0,.74.77h.08a1.45,1.45,0,0,0,.87-.3l.42.58a2.19,2.19,0,0,1-1.36.48,1.68,1.68,0,0,1-1.8-1.53,1.71,1.71,0,0,1,0-.32A1.67,1.67,0,0,1,23,14.36h.2a1.56,1.56,0,0,1,1.63,1.49h0a1.13,1.13,0,0,1,0,.26,2.29,2.29,0,0,1,0,.37Zm0-.62h1.24c0-.48-.17-.82-.6-.82s-.6.25-.65.82Z" style="fill:#1a0b6d"/><path d="M28.58,16.9c0,.26.07.35.22.42l-.21.67a1,1,0,0,1-.85-.45,1.49,1.49,0,0,1-1.12.47,1.07,1.07,0,0,1-1.14-1h0c0-.74.62-1.17,1.68-1.17h.46v-.12c0-.35-.26-.52-.68-.52a3.25,3.25,0,0,0-.92.17l-.24-.68a4,4,0,0,1,1.32-.26c1,0,1.53.42,1.53,1.22Zm-1,0v-.54h-.26c-.57,0-.82.16-.82.51a.41.41,0,0,0,.41.41h0a.74.74,0,0,0,.68-.38Z" style="fill:#1a0b6d"/><path d="M32.63,17.73a2.18,2.18,0,0,1-1.14.32,1.18,1.18,0,0,1-1.32-1,1.22,1.22,0,0,1,0-.27V15.22h-.72v-.71h.72v-.75l1-.12v.87h1.1l-.1.71h-1v1.54c0,.34.15.47.49.47a1.56,1.56,0,0,0,.6-.15Z" style="fill:#1a0b6d"/><path d="M34.38,14.51v2.34c0,.33.13.43.34.43a.74.74,0,0,0,.58-.37v-2.4h1v3.42h-.92v-.4a1.28,1.28,0,0,1-1,.52.94.94,0,0,1-1-.87,1.34,1.34,0,0,1,0-.2V14.51Z" style="fill:#1a0b6d"/><path d="M39.88,17.93H37.26v-.7H38v-2h-.71v-.7H38.9l.08.63a1,1,0,0,1,.92-.74,1.54,1.54,0,0,1,.43.06l-.17,1a1.28,1.28,0,0,0-.39,0c-.43,0-.67.34-.77.8v1h.86Z" style="fill:#1a0b6d"/><path d="M42,16.52a.75.75,0,0,0,.74.77h.08a1.34,1.34,0,0,0,.86-.3l.43.58a2.15,2.15,0,0,1-1.36.48A1.68,1.68,0,0,1,41,16.52a1.71,1.71,0,0,1,0-.32,1.67,1.67,0,0,1,1.48-1.84h.19a1.56,1.56,0,0,1,1.63,1.49h0a1.13,1.13,0,0,1,0,.26,2.29,2.29,0,0,1,0,.37Zm0-.62h1.25c0-.48-.18-.82-.62-.82s-.54.25-.64.82Z" style="fill:#1a0b6d"/></svg>