<svg id="Layer_1" data-name="Layer 1" xmlns="http://www.w3.org/2000/svg" xmlns:xlink="http://www.w3.org/1999/xlink" viewBox="0 0 85.04 85.04"><defs><style>.cls-1{fill:url(#linear-gradient);}</style><linearGradient id="linear-gradient" x1="24.16" y1="-3.33" x2="59.4" y2="55.28" gradientUnits="userSpaceOnUse"><stop offset="0" stop-color="#da150e"/><stop offset="0" stop-color="#dc150e"/><stop offset="0" stop-color="#e5160d"/><stop offset="0" stop-color="#e9160d"/><stop offset="0.24" stop-color="#e6160e"/><stop offset="0.38" stop-color="#de1513"/><stop offset="0.51" stop-color="#cf151b"/><stop offset="0.62" stop-color="#bb1326"/><stop offset="0.72" stop-color="#a01234"/><stop offset="0.81" stop-color="#7f1046"/><stop offset="0.9" stop-color="#590e5b"/><stop offset="0.98" stop-color="#2d0c73"/><stop offset="1" stop-color="#200b7a"/></linearGradient></defs><path class="cls-1" d="M72.72,9.71c-3.4-.32-14.65,9.34-22.88,21.09a103.15,103.15,0,0,0-7.18,11.47c-1.18-2.7-3.36-7.06-8.49-14.21C26,16.74,15.67,8.8,11.52,10.72c-6.3,2.92-2,26.22,2.72,37.73,2.23,5.43,5.9,13.44,12,20.23,4,4.45,7.49,6.64,10.56,6.64a6.2,6.2,0,0,0,2.54-.54c4.14-1.84,4.41-8.73,4.34-14.48a7.71,7.71,0,0,0,3,4.15c2.4,1.42,5.69.77,9.27-1.82,4.38-3.17,8.22-8.64,10.82-15.41,2-5.23,8.82-26.92,2.92-29.56a2.75,2.75,0,0,0-2.14.17C62.77,19.75,50.54,32,44.22,46.55c-.3-.89-.59-1.74-.86-2.51A97,97,0,0,1,51,31.59c8.7-12.41,19.2-20.73,21.57-20.48,3.3.32,2.71,8.53,2.42,12.47l0,.69C74.11,36.2,70,49.73,64.57,58.72c-5.78,9.52-10.89,15.21-13.65,15.21v1.4c4.32,0,10.48-8.64,14.88-15.88,5.57-9.18,9.72-22.94,10.58-35.08l.05-.69C76.79,18.63,77.41,10.17,72.72,9.71Zm-34,63.79c-3,1.31-6.81-.62-11.44-5.76-6-6.62-9.56-14.48-11.75-19.82-5.35-13-8-33.8-3.44-35.93a2,2,0,0,1,.85-.16c3.46,0,12.05,5.93,20,17,5.25,7.31,7.35,11.63,8.48,14.25.1.26.22.54.33.84-.22.45-.44.9-.64,1.35-.07.15-.13.29-.19.44C37.16,35,25.31,21,18.77,18.06a4.1,4.1,0,0,0-3.27-.35,4.73,4.73,0,0,0-2.45,2.87C11,26.13,13.47,38,17.12,45.52c1.87,3.86,4.94,9,7.61,11.93,4.59,4.95,8.64,7.7,11.22,7.7a2.89,2.89,0,0,0,1.2-.25,2,2,0,0,0,1-.7c1-1.25,1.35-3.83,1-7.66a7.68,7.68,0,0,0,.8-1.81,10.69,10.69,0,0,0,.24-1.18c.13-.78.33-1.91.68-3.27.32,1.09.54,1.9.79,3,0,0,.19.76.52,1.88,0,1,0,2.12,0,3.41C42.33,63.84,42.49,71.85,38.76,73.5ZM21.68,44c-2.91-5.28-4.82-14.11-1.91-15.47s9.51,5.21,12.46,10.56c4,7.18,4.83,14.11,1.91,15.46S25.66,51.19,21.68,44ZM38.9,52.79c-.2-3.91-1.86-9.19-4.83-14.57-3.95-7.14-12.73-15.88-16.62-14.07S16.11,37.73,20,44.77C24.21,52.38,29.76,57.9,33.81,59V59a6.23,6.23,0,0,0,1.2.11,3.75,3.75,0,0,0,1.31-.21,4.5,4.5,0,0,0,1.54-.82c.19,4.8-1,5.41-1,5.41h-.15l-.13.07c-1,.51-4.49-.32-10.8-7.11a55.15,55.15,0,0,1-7.37-11.59c-3.45-7.15-6-18.7-4-23.84A3.45,3.45,0,0,1,16.08,19a3,3,0,0,1,2.1.35c6.35,2.85,18.5,17.39,21.76,27.81h0l.19.64A31.46,31.46,0,0,0,38.9,52.79Zm5,.36c.07-.26.12-.59.19-1s.1-.67.17-1.05c.15.45.32.93.52,1.49a6.78,6.78,0,0,0,3.4,4.12,5.72,5.72,0,0,0,4.76-.41c3.15-1.42,7.2-6,10.36-12.06s5.33-16.36,2.26-17.92S55.27,32.45,52.09,38.57c-3.69,7.12-5,14-3.34,16.83l-.16,0a5.74,5.74,0,0,1-2.51-3.26c-.37-1-.62-1.78-.89-2.61l-.28-.88a.25.25,0,0,1,0-.07c6-14.89,18.41-27.5,23.2-29.41a1.77,1.77,0,0,1,1-.19c3.58,1.6.17,17.79-3.67,27.79C63,53.15,59.24,58.53,55.15,61.5c-3,2.2-5.85,2.84-7.69,1.75S44.68,59,44,56.47c-.13-.54-.26-1-.4-1.51A8.31,8.31,0,0,1,43.85,53.15ZM54.66,38.93C56,35.75,59.3,31.66,61,32.36s1.13,5.86-.22,9.08C59,45.76,56.13,48.71,54.44,48S52.85,43.25,54.66,38.93ZM42.89,47.08l.4,1.2c0,.1.07.21.1.31a17.34,17.34,0,0,0-.69,2.83c-.21-.8-.45-1.61-.78-2.73l-.25-.85c.23-.63.49-1.28.8-2v0C42.62,46.26,42.75,46.66,42.89,47.08Z"/></svg>