<svg id="main" xmlns="http://www.w3.org/2000/svg" xmlns:xlink="http://www.w3.org/1999/xlink" viewBox="0 0 64 64"><defs><linearGradient id="linear-gradient" x1="24.49" y1="5.48" x2="38.9" y2="29.44" gradientUnits="userSpaceOnUse"><stop offset="0" stop-color="#da150e"/><stop offset="0" stop-color="#dc150e"/><stop offset="0" stop-color="#e5160d"/><stop offset="0" stop-color="#e9160d"/><stop offset="0.24" stop-color="#e6160e"/><stop offset="0.38" stop-color="#de1513"/><stop offset="0.51" stop-color="#cf151b"/><stop offset="0.62" stop-color="#bb1326"/><stop offset="0.72" stop-color="#a01234"/><stop offset="0.81" stop-color="#7f1046"/><stop offset="0.9" stop-color="#590e5b"/><stop offset="0.98" stop-color="#2d0c73"/><stop offset="1" stop-color="#200b7a"/></linearGradient></defs><rect x="-18" y="-41" width="116" height="125" style="fill:none"/><rect x="11.82" y="7" width="40.36" height="50" style="fill:#fff"/><path d="M19.47,53.2q-.87,0-.87-.63c0-.43.28-.63.87-.63h2.29a.92.92,0,0,0,.62-.28l.31-.28a.72.72,0,0,0,.17-.5V49.22l-.23.23a1.65,1.65,0,0,1-1,.61H20.12a1.3,1.3,0,0,1-.94-.38L18.4,49a1.31,1.31,0,0,1-.4-1.17V46a1.74,1.74,0,0,1,.43-1.3l.92-.71a1.14,1.14,0,0,1,.79-.3h1.2a2.29,2.29,0,0,1,1.24.62l.28.23v-.11a.67.67,0,0,1,.66-.74c.55,0,.62.44.62.88v6c0,1.16-.11,1.37-.61,1.79l-.42.35a2,2,0,0,1-1.57.53Zm.83-8.3A.54.54,0,0,0,20,45l-.52.42c-.14.11-.15.37-.15.63v1.58c0,.26,0,.52.15.63l.52.42a.56.56,0,0,0,.35.11h.91c.15,0,.32-.12.57-.32l1-.78a.58.58,0,0,0,.12-.4v-.9a.56.56,0,0,0-.12-.4l-1-.78c-.25-.2-.42-.32-.57-.32Z" style="fill:#200b7a"/><path d="M19.47,53.15c-.55,0-.82-.19-.82-.58s.26-.58.82-.58h2.29a1,1,0,0,0,.65-.29l.31-.29a.74.74,0,0,0,.19-.53V49.1l-.32.31a1.63,1.63,0,0,1-1,.6H20.12a1.26,1.26,0,0,1-.91-.37L18.43,49a1.28,1.28,0,0,1-.38-1.13V46a1.64,1.64,0,0,1,.42-1.26l.91-.71a1.1,1.1,0,0,1,.76-.29h1.2a2.33,2.33,0,0,1,1.21.61l.36.29v-.21a.62.62,0,0,1,.61-.69c.5,0,.57.4.57.83v6c0,1.14-.1,1.34-.6,1.75l-.41.35a2,2,0,0,1-1.54.52Zm.83-8.3a.53.53,0,0,0-.38.13l-.52.41c-.16.12-.17.4-.17.66v1.59c0,.27,0,.55.17.67l.52.41a.53.53,0,0,0,.38.13h.91a1.07,1.07,0,0,0,.6-.33l1-.78a.58.58,0,0,0,.14-.44v-.9a.62.62,0,0,0-.14-.44l-1-.78a1.07,1.07,0,0,0-.6-.33Z" style="fill:#200b7a"/><path d="M19.47,53.1c-.69,0-.77-.31-.77-.53s.09-.53.77-.53h2.29a1,1,0,0,0,.68-.3l.31-.29a.77.77,0,0,0,.21-.57V49l-.4.4a1.65,1.65,0,0,1-1,.58H20.12a1.22,1.22,0,0,1-.88-.35l-.78-.7a1.24,1.24,0,0,1-.36-1.09V46a1.64,1.64,0,0,1,.4-1.22l.91-.71a1,1,0,0,1,.73-.28h1.2a2.23,2.23,0,0,1,1.18.6l.44.35v-.31a.57.57,0,0,1,.56-.64c.43,0,.52.31.52.78v6c0,1.12-.1,1.31-.58,1.71l-.41.35a1.91,1.91,0,0,1-1.51.51Zm.83-8.3a.6.6,0,0,0-.41.14l-.52.41c-.18.14-.19.42-.19.71v1.58c0,.29,0,.57.19.71l.52.41a.6.6,0,0,0,.41.14h.91a1.16,1.16,0,0,0,.63-.34l1-.78A.65.65,0,0,0,23,47.3v-.9a.65.65,0,0,0-.16-.48l-1-.78a1.16,1.16,0,0,0-.63-.34Z" style="fill:#200b7a"/><path d="M19.47,53.05c-.64,0-.72-.26-.72-.48s.08-.48.72-.48h2.29a1,1,0,0,0,.71-.32l.32-.28a.88.88,0,0,0,.22-.61v-2l-.49.48a1.53,1.53,0,0,1-.93.57H20.12a1.18,1.18,0,0,1-.85-.34l-.78-.69c-.31-.29-.34-.54-.34-1.06V46a1.62,1.62,0,0,1,.38-1.19l.91-.7a1,1,0,0,1,.7-.27h1.2a2.16,2.16,0,0,1,1.14.59l.53.41v-.41c0-.29.14-.59.51-.59s.47.2.47.73v6c0,1.11-.09,1.28-.56,1.68l-.42.34a1.84,1.84,0,0,1-1.47.5Zm.83-8.3a.68.68,0,0,0-.45.15l-.51.41c-.2.15-.21.45-.21.74v1.59c0,.3,0,.6.2.75l.53.41a.63.63,0,0,0,.44.15h.91a1.15,1.15,0,0,0,.66-.35l1-.79A.67.67,0,0,0,23,47.3v-.9a.7.7,0,0,0-.17-.51l-1-.79a1.15,1.15,0,0,0-.66-.35Z" style="fill:#200b7a"/><path d="M29.55,50.58c-.22,0-.4-.21-.53-.4l-.66-1-.67,1c-.13.19-.31.4-.53.4h-.48c-.4,0-.5-.31-.6-.64L25.42,48l-.13-3.45a1,1,0,0,1,.19-.74.58.58,0,0,1,.43-.16c.54,0,.63.48.64.9l.13,3.19.38,1.1.66-1.12V46.59c0-.24,0-.87.64-.87s.64.63.64.87v1.14l.65,1.1L30,47.71l.12-3.17c0-.42.1-.9.64-.9a.62.62,0,0,1,.44.16,1,1,0,0,1,.19.74L31.3,48s-.65,1.93-.66,2c-.11.33-.21.64-.61.64Z" style="fill:#200b7a"/><path d="M29.55,50.53c-.19,0-.36-.2-.49-.38l-.7-1-.71,1c-.12.18-.29.38-.49.38h-.48c-.36,0-.45-.28-.56-.61,0-.05-.64-1.93-.65-2h0l-.13-3.42a.9.9,0,0,1,.17-.7.54.54,0,0,1,.4-.15c.5,0,.58.43.59.85l.13,3.19L27.05,49l.72-1.22V46.59c0-.38.06-.82.59-.82s.59.44.59.82v1.14L29.67,49l.41-1.22.13-3.19c0-.42.1-.85.59-.85a.51.51,0,0,1,.4.15.94.94,0,0,1,.18.7L31.25,48l-.66,2c-.11.33-.2.61-.56.61Z" style="fill:#200b7a"/><path d="M29.55,50.48c-.17,0-.33-.19-.45-.36L28.36,49l-.75,1.1c-.11.16-.27.36-.45.36h-.48c-.32,0-.4-.25-.51-.57,0,0-.65-1.95-.65-1.95l-.13-3.42a.92.92,0,0,1,.16-.67.49.49,0,0,1,.36-.13c.37,0,.52.24.54.8l.13,3.2L27,49.07l.79-1.34V46.59c0-.54.16-.77.54-.77s.54.23.54.77v1.17l.78,1.31.45-1.34.13-3.18c0-.57.18-.81.54-.81a.54.54,0,0,1,.37.13.92.92,0,0,1,.16.67l-.13,3.4s-.64,1.92-.66,2c-.1.32-.18.57-.51.57Z" style="fill:#200b7a"/><path d="M29.55,50.43c-.15,0-.3-.19-.41-.34l-.78-1.16-.79,1.16c-.1.15-.26.34-.41.34h-.48c-.27,0-.35-.19-.46-.54l-.66-2-.12-3.4a.86.86,0,0,1,.14-.63.45.45,0,0,1,.33-.12c.34,0,.47.21.49.76l.13,3.2L27,49.18l.85-1.42V46.59c0-.51.14-.72.49-.72s.49.21.49.72v1.17l.84,1.42.49-1.43.13-3.2c0-.55.16-.76.49-.76a.42.42,0,0,1,.33.12.86.86,0,0,1,.15.63l-.13,3.4-.66,2c-.11.35-.18.54-.46.54Z" style="fill:#200b7a"/><path d="M34.87,50.58a1.34,1.34,0,0,1-1.12-.34l-.54-.46a1.52,1.52,0,0,1-.64-1.39V46a1.62,1.62,0,0,1,.62-1.49l.44-.37A1.69,1.69,0,0,1,35,43.64h1.14a1.8,1.8,0,0,1,1.39.46l.51.39a1.76,1.76,0,0,1,.65,1.62v1c0,.71-.12.93-.87.93h-4v.39a.54.54,0,0,0,.18.35l.31.34a1.1,1.1,0,0,0,.82.22h2.68c.59,0,.87.21.87.63s-.29.63-.87.63Zm2.57-3.82V46a.61.61,0,0,0-.16-.52l-.48-.41a.89.89,0,0,0-.59-.15H35.16a1,1,0,0,0-.63.14l-.43.31a.54.54,0,0,0-.25.55v.86Z" style="fill:#200b7a"/><path d="M34.87,50.53a1.31,1.31,0,0,1-1.09-.32l-.53-.46a1.49,1.49,0,0,1-.63-1.36V46a1.59,1.59,0,0,1,.6-1.45l.44-.37A1.65,1.65,0,0,1,35,43.69h1.14a1.8,1.8,0,0,1,1.36.44l.51.4a1.69,1.69,0,0,1,.63,1.58v1c0,.69-.1.88-.82.88h-4v.44a.68.68,0,0,0,.19.39l.31.33a1.11,1.11,0,0,0,.86.24h2.68c.56,0,.82.19.82.58s-.27.58-.82.58Zm2.62-3.72V46a.66.66,0,0,0-.17-.55L36.84,45a1,1,0,0,0-.63-.16H35.16a1.06,1.06,0,0,0-.66.15l-.43.31a.59.59,0,0,0-.27.59v.91Z" style="fill:#200b7a"/><path d="M34.87,50.48a1.28,1.28,0,0,1-1.06-.31l-.53-.46a1.43,1.43,0,0,1-.61-1.32V46a1.51,1.51,0,0,1,.58-1.41l.44-.37a1.61,1.61,0,0,1,1.33-.5h1.14a1.73,1.73,0,0,1,1.33.43l.51.4a1.64,1.64,0,0,1,.61,1.54v1c0,.66-.07.83-.77.83H33.75v.49a.63.63,0,0,0,.21.42l.31.33a1.11,1.11,0,0,0,.89.26h2.68c.69,0,.77.29.77.53s-.08.53-.77.53Zm2.67-3.62V46a.7.7,0,0,0-.19-.59L36.87,45a1,1,0,0,0-.66-.18H35.16a1.07,1.07,0,0,0-.68.16l-.44.31a.64.64,0,0,0-.29.63v1Z" style="fill:#200b7a"/><path d="M34.87,50.43a1.23,1.23,0,0,1-1-.3l-.53-.46a1.4,1.4,0,0,1-.59-1.28V46a1.48,1.48,0,0,1,.56-1.37l.45-.38A1.56,1.56,0,0,1,35,43.79h1.14a1.7,1.7,0,0,1,1.3.42l.51.4a1.61,1.61,0,0,1,.59,1.5v1c0,.64-.06.78-.72.78H33.7v.54a.72.72,0,0,0,.22.46l.31.33a1.17,1.17,0,0,0,.93.27h2.68c.64,0,.72.24.72.48s-.08.48-.72.48Zm.29-5.68a1.1,1.1,0,0,0-.71.17l-.43.31a.67.67,0,0,0-.32.67v1h3.89V46a.77.77,0,0,0-.2-.63l-.49-.41a1,1,0,0,0-.69-.19Z" style="fill:#200b7a"/><path d="M45.37,50.58c-.61,0-.63-.64-.64-.85l-.13-3.79c0-.7-.07-1-.83-1h-.41A.74.74,0,0,0,43,45l-1.86,1.15,0,3.55c0,.24,0,.86-.64.86s-.63-.62-.63-.86V44.57c0-.45,0-.93.63-.93s.64.46.64.92v.14l1-.64a2,2,0,0,1,1.08-.42h.93a1.57,1.57,0,0,1,1.16.46,1.74,1.74,0,0,1,.56,1.52l.14,4a1.13,1.13,0,0,1-.19.78A.58.58,0,0,1,45.37,50.58Z" style="fill:#200b7a"/><path d="M45.37,50.53c-.5,0-.58-.45-.59-.8l-.13-3.79c0-.72-.07-1.09-.88-1.09h-.41A.78.78,0,0,0,43,45l-1.87,1.15v3.6c0,.38-.06.81-.59.81s-.58-.43-.58-.81V44.57c0-.44,0-.88.58-.88s.59.42.59.87v.22l.07,0,1-.65a2,2,0,0,1,1.06-.41h.93a1.57,1.57,0,0,1,1.13.44,1.73,1.73,0,0,1,.54,1.5l.14,4a1.07,1.07,0,0,1-.18.74A.54.54,0,0,1,45.37,50.53Z" style="fill:#200b7a"/><path d="M45.37,50.48c-.35,0-.52-.23-.54-.75l-.13-3.79c0-.73-.08-1.14-.93-1.14h-.41a.83.83,0,0,0-.44.13L41,46.11l0,3.61c0,.53-.16.76-.54.76s-.53-.23-.53-.76V44.57c0-.44,0-.83.53-.83s.54.33.54.82v.3l.14-.07,1-.65a2,2,0,0,1,1-.4h.93a1.51,1.51,0,0,1,1.1.43,1.68,1.68,0,0,1,.52,1.46l.14,4a1,1,0,0,1-.17.7A.45.45,0,0,1,45.37,50.48Z" style="fill:#200b7a"/><path d="M45.37,50.43c-.32,0-.47-.21-.49-.7l-.13-3.79c0-.74-.08-1.19-1-1.19h-.41a.88.88,0,0,0-.46.14L41,46.07v3.65c0,.51-.14.71-.49.71s-.48-.2-.48-.71V44.57c0-.5.07-.78.48-.78s.49.21.49.77v.38l.21-.1,1-.66a2,2,0,0,1,1-.39h.93a1.47,1.47,0,0,1,1.07.42,1.64,1.64,0,0,1,.5,1.42l.14,4a1,1,0,0,1-.15.67A.47.47,0,0,1,45.37,50.43Z" style="fill:#200b7a"/><path d="M44.33,10.81c-1.38-.13-6,3.81-9.34,8.62a42.2,42.2,0,0,0-2.93,4.69,31.11,31.11,0,0,0-3.47-5.81c-3.32-4.63-7.56-7.88-9.25-7.09-2.57,1.19-.82,10.72,1.11,15.43a28.3,28.3,0,0,0,4.91,8.27c1.63,1.82,3.05,2.72,4.31,2.72a2.7,2.7,0,0,0,1-.22c1.69-.75,1.8-3.57,1.77-5.92a3.12,3.12,0,0,0,1.24,1.69c1,.58,2.32.32,3.78-.74a13.89,13.89,0,0,0,4.42-6.3c.82-2.14,3.61-11,1.19-12.09a1.09,1.09,0,0,0-.87.07c-2,.78-7,5.77-9.55,11.74-.12-.36-.23-.71-.35-1a39.58,39.58,0,0,1,3.13-5.1c3.55-5.07,7.84-8.48,8.81-8.37,1.35.13,1.1,3.48,1,5.1l0,.28A34,34,0,0,1,41,30.85c-2.36,3.89-4.45,6.22-5.58,6.22v.57c1.77,0,4.28-3.53,6.08-6.49A34.65,34.65,0,0,0,45.83,16.8l0-.28C46,14.45,46.25,11,44.33,10.81ZM30.47,36.89c-1.22.54-2.79-.25-4.68-2.35A28.08,28.08,0,0,1,21,26.43c-2.18-5.32-3.28-13.82-1.4-14.69a.71.71,0,0,1,.34-.07c1.42,0,4.93,2.43,8.18,7a30,30,0,0,1,3.46,5.83c.05.1.09.22.14.34s-.18.37-.26.55l-.08.18C29.81,21.13,25,15.42,22.3,14.22A1.69,1.69,0,0,0,21,14.08a2,2,0,0,0-1,1.17c-.85,2.27.17,7.11,1.67,10.2a22.68,22.68,0,0,0,3.1,4.88c1.88,2,3.53,3.15,4.59,3.15a1.3,1.3,0,0,0,.49-.1.9.9,0,0,0,.41-.29c.41-.51.55-1.57.42-3.13a3.12,3.12,0,0,0,.32-.74,3.7,3.7,0,0,0,.1-.49,12,12,0,0,1,.28-1.33c.13.44.22.77.32,1.21,0,0,.08.31.21.77s0,.87,0,1.4C31.92,32.94,32,36.22,30.47,36.89Zm-7-12.06c-1.19-2.16-2-5.77-.78-6.32s3.88,2.12,5.09,4.31c1.62,2.94,2,5.77.78,6.33S25.11,27.77,23.49,24.83Zm7,3.59a14.88,14.88,0,0,0-2-6c-1.61-2.91-5.2-6.49-6.79-5.75s-.54,5.55,1,8.43c1.72,3.12,4,5.37,5.64,5.8v0a2.77,2.77,0,0,0,.49,0,1.31,1.31,0,0,0,.53-.08,1.76,1.76,0,0,0,.63-.34c.08,2-.41,2.21-.4,2.21h-.06l-.06,0c-.4.21-1.83-.13-4.41-2.91a22.51,22.51,0,0,1-3-4.74c-1.41-2.92-2.43-7.65-1.64-9.75a1.42,1.42,0,0,1,.69-.85,1.23,1.23,0,0,1,.86.14c2.59,1.17,7.56,7.12,8.89,11.38h0l.08.27A13.23,13.23,0,0,0,30.52,28.42Zm2,.15a4,4,0,0,0,.08-.42c0-.13,0-.27.07-.43.06.19.13.39.21.61A2.81,2.81,0,0,0,34.29,30a2.37,2.37,0,0,0,2-.17c1.28-.58,2.94-2.44,4.23-4.93s2.18-6.69.92-7.33-4.18,2.51-5.48,5c-1.51,2.91-2,5.72-1.36,6.88l-.07,0a2.3,2.3,0,0,1-1-1.33c-.15-.42-.25-.73-.36-1.07,0-.11-.07-.23-.11-.36v0c2.43-6.09,7.52-11.25,9.47-12,.24-.1.37-.1.41-.08,1.47.66.07,7.27-1.5,11.36a13.44,13.44,0,0,1-4.21,6c-1.24.91-2.39,1.17-3.14.72s-1.14-1.75-1.4-2.77c0-.22-.11-.43-.16-.62A3.24,3.24,0,0,1,32.54,28.57ZM37,22.75c.54-1.29,1.9-3,2.59-2.68s.46,2.4-.09,3.71c-.74,1.77-1.9,3-2.59,2.69S36.22,24.52,37,22.75Zm-4.81,3.34.17.49a.56.56,0,0,0,0,.12,6.17,6.17,0,0,0-.28,1.16l-.32-1.11-.11-.35c.1-.26.2-.52.33-.8h0C32,25.75,32.09,25.92,32.15,26.09Z" style="fill:url(#linear-gradient)"/></svg>