<?xml version="1.0" encoding="utf-8"?>
<!-- Generator: Adobe Illustrator 26.0.2, SVG Export Plug-In . SVG Version: 6.00 Build 0)  -->
<svg version="1.1" id="main" xmlns="http://www.w3.org/2000/svg" xmlns:xlink="http://www.w3.org/1999/xlink" x="0px" y="0px"
	 viewBox="0 0 64 64" style="enable-background:new 0 0 64 64;" xml:space="preserve">
<style type="text/css">
	.st0{fill:none;}
	.st1{fill:#FFFFFF;}
</style>
<rect x="-18" y="-41" class="st0" width="116" height="125"/>
<path class="st1" d="M47.5,15.2C45.7,15,40,20,35.7,26c-1.4,1.9-2.6,3.8-3.7,5.9c-0.6-1.4-1.7-3.6-4.4-7.3
	c-4.2-5.8-9.5-9.9-11.6-8.9c-3.2,1.5-1,13.4,1.4,19.3c1.1,2.8,3,6.9,6.2,10.4c2,2.3,3.8,3.4,5.4,3.4c0.5,0,0.9-0.1,1.3-0.3
	c2.1-1,2.3-4.5,2.2-7.4c0.3,0.9,0.8,1.7,1.6,2.1c1.2,0.7,2.9,0.4,4.8-0.9c2.2-1.6,4.2-4.4,5.5-7.9c1-2.7,4.5-13.8,1.5-15.1
	c-0.4-0.1-0.7-0.1-1.1,0.1c-2.5,1-8.7,7.2-12,14.7c-0.2-0.5-0.3-0.9-0.4-1.3c1.1-2.2,2.4-4.4,3.9-6.4c4.5-6.4,9.8-10.6,11-10.5
	c1.7,0.2,1.4,4.4,1.2,6.4v0.4c-0.4,6.1-2.5,13-5.3,17.6c-3,4.9-5.6,7.8-7,7.8v0.7c2.2,0,5.4-4.4,7.6-8.1c2.9-4.7,5-11.8,5.4-18v-0.3
	C49.6,19.8,49.9,15.4,47.5,15.2z M30.1,47.9c-1.5,0.7-3.5-0.3-5.9-2.9c-3.1-3.4-4.9-7.4-6-10.1c-2.7-6.7-4.1-17.3-1.8-18.4
	c0.1-0.1,0.3-0.1,0.4-0.1c1.8,0,6.2,3,10.3,8.7c2.7,3.7,3.8,6,4.3,7.3c0.1,0.1,0.1,0.3,0.2,0.4c-0.1,0.2-0.2,0.5-0.3,0.7
	c0,0.1-0.1,0.1-0.1,0.2c-2-5.5-8-12.7-11.4-14.2c-0.7-0.3-1.2-0.4-1.7-0.2c-0.6,0.3-1.1,0.8-1.3,1.5c-1.1,2.8,0.2,8.9,2.1,12.8
	c1,2,2.5,4.6,3.9,6.1c2.4,2.5,4.4,3.9,5.7,3.9c0.2,0,0.4,0,0.6-0.1s0.4-0.2,0.5-0.4c0.5-0.6,0.7-2,0.5-3.9c0.2-0.3,0.3-0.6,0.4-0.9
	c0.1-0.2,0.1-0.4,0.1-0.6c0.1-0.4,0.2-1,0.3-1.7c0.2,0.5,0.3,1,0.4,1.5c0,0,0.1,0.4,0.3,1v1.7C31.9,42.9,32,47,30.1,47.9z
	 M21.3,32.8c-1.5-2.7-2.5-7.2-1-7.9s4.9,2.7,6.4,5.4c2,3.7,2.5,7.2,1,7.9C26.2,38.9,23.4,36.4,21.3,32.8z M30.2,37.3
	c-0.1-2-1-4.7-2.5-7.5c-2-3.7-6.5-8.1-8.5-7.2s-0.7,7,1.3,10.6c2.2,3.9,5,6.7,7.1,7.3l0,0c0.2,0,0.4,0.1,0.6,0.1s0.5,0,0.7-0.1
	c0.3-0.1,0.6-0.2,0.8-0.4c0.1,2.5-0.5,2.8-0.5,2.8H29h-0.1c-0.5,0.3-2.3-0.2-5.5-3.6c-1.3-1.4-2.9-4.1-3.8-5.9
	c-1.8-3.7-3.1-9.6-2.1-12.2c0.1-0.5,0.4-0.8,0.9-1.1c0.2-0.1,0.6,0,1.1,0.2c3.3,1.5,9.5,8.9,11.1,14.2l0,0l0.1,0.3
	C30.5,35.5,30.3,36.4,30.2,37.3L30.2,37.3z M32.7,37.5c0-0.2,0.1-0.3,0.1-0.5s0.1-0.3,0.1-0.5c0.1,0.2,0.2,0.5,0.3,0.8
	c0.4,1.2,1.2,1.9,1.7,2.1c0.8,0.3,1.7,0.2,2.4-0.2c1.6-0.7,3.7-3.1,5.3-6.2c1.6-3.2,2.7-8.4,1.2-9.2c-1.6-0.8-5.2,3.1-6.9,6.3
	c-1.9,3.7-2.5,7.2-1.7,8.6h-0.1c-0.3-0.1-1-0.7-1.3-1.7c-0.2-0.5-0.3-0.9-0.5-1.3l-0.1-0.4l0,0C36.3,27.5,42.7,21,45.1,20
	c0.2-0.1,0.3-0.1,0.5-0.1c1.8,0.8,0.1,9.1-1.9,14.2c-1.3,3.3-3.2,6.1-5.3,7.6c-1.6,1.1-3,1.5-3.9,0.9c-1-0.6-1.4-2.2-1.8-3.5
	c-0.1-0.3-0.1-0.5-0.2-0.8C32.6,38.1,32.6,37.8,32.7,37.5L32.7,37.5z M38.2,30.2c0.7-1.6,2.4-3.7,3.2-3.4c0.9,0.3,0.6,3-0.1,4.7
	c-0.9,2.2-2.4,3.7-3.2,3.4C37.3,34.5,37.3,32.4,38.2,30.2L38.2,30.2z M32.2,34.4l0.2,0.6l0.1,0.2c-0.2,0.5-0.3,1-0.4,1.4
	c-0.1-0.4-0.2-0.8-0.4-1.4l-0.1-0.4c0.1-0.3,0.3-0.7,0.4-1l0,0L32.2,34.4z"/>
</svg>
