<?xml version="1.0" encoding="utf-8"?>
<!-- Generator: Adobe Illustrator 26.0.2, SVG Export Plug-In . SVG Version: 6.00 Build 0)  -->
<svg version="1.1" id="Layer_1" xmlns="http://www.w3.org/2000/svg" xmlns:xlink="http://www.w3.org/1999/xlink" x="0px" y="0px"
	 viewBox="0 0 85 85" style="enable-background:new 0 0 85 85;" xml:space="preserve">
<style type="text/css">
	.st0{fill:#FFFFFF;}
</style>
<path class="st0" d="M75.7,6.5c-3.7-0.4-16.1,10.3-25.1,23.1c-2.9,4-5.5,8.2-7.9,12.6c-1.3-3-3.7-7.8-9.3-15.6
	c-9-12.5-20.3-21.2-24.9-19c-6.9,3.2-2.2,28.8,3,41.4c2.4,6,6.5,14.8,13.2,22.2c4.4,4.9,8.2,7.3,11.6,7.3c0.9,0,1.9-0.2,2.8-0.6
	c4.5-2,4.9-9.6,4.8-15.8c0.6,1.9,1.7,3.5,3.3,4.6c2.6,1.6,6.3,0.8,10.2-2c4.8-3.5,9-9.5,11.9-16.9c2.2-5.7,9.7-29.5,3.2-32.4
	c-0.7-0.3-1.6-0.2-2.3,0.2c-5.2,2.2-18.6,15.5-25.7,31.5c-0.4-1-0.7-1.9-0.9-2.8c2.4-4.8,5.3-9.3,8.4-13.7C61.4,16.9,73,7.7,75.5,8
	c3.7,0.4,3,9.4,2.6,13.7v0.7c-1,13.1-5.4,27.9-11.4,37.8c-6.4,10.4-12,16.7-15,16.7v1.7c4.8,0,11.5-9.5,16.3-17.4
	c6.1-10,10.7-25.2,11.6-38.5l0.1-0.7C80.2,16.3,80.8,7,75.7,6.5z M38.4,76.5c-3.3,1.4-7.5-0.7-12.6-6.3
	c-6.6-7.3-10.5-15.9-12.9-21.7C7.1,34.2,4.2,11.4,9.1,9C9.4,9,9.7,8.9,10.1,8.9c3.8,0,13.2,6.6,21.9,18.7c5.7,8,8.1,12.7,9.3,15.7
	c0.1,0.3,0.3,0.6,0.4,0.9c-0.3,0.5-0.5,1-0.7,1.5c-0.1,0.2-0.1,0.3-0.2,0.5C36.6,34.3,23.6,19,16.4,15.8c-1.1-0.7-2.3-0.7-3.6-0.4
	c-1.3,0.7-2.2,1.8-2.7,3.2c-2.2,5.9,0.6,18.9,4.5,27.2c2.2,4.2,5.4,9.9,8.3,13.1c5.1,5.5,9.5,8.4,12.3,8.4c0.5,0,0.9-0.1,1.3-0.3
	c0.5-0.1,0.8-0.4,1.1-0.7c1.1-1.4,1.5-4.2,1.1-8.4c0.4-0.7,0.7-1.3,0.8-2c0.1-0.5,0.2-0.8,0.3-1.3c0.2-1.2,0.5-2.4,0.7-3.6
	c0.4,1.2,0.6,2.1,0.8,3.3c0,0,0.2,0.8,0.6,2.1c0,1.1,0,2.3,0,3.7C42.3,65.9,42.5,74.7,38.4,76.5z M19.6,44.2
	c-3.2-5.8-5.2-15.5-2.1-17c3.2-1.5,10.4,5.7,13.7,11.6c4.4,7.9,5.3,15.5,2.1,17S24,52.1,19.6,44.2z M38.6,53.7
	c-0.2-4.3-2.1-10.1-5.3-16c-4.3-7.8-14-17.3-18.2-15.4s-1.5,14.9,2.8,22.6c4.6,8.3,10.7,14.4,15.2,15.6v0.1c0.5,0.1,0.8,0.1,1.3,0.1
	s0.9-0.1,1.4-0.2c0.7-0.2,1.2-0.5,1.7-0.9c0.2,5.2-1.1,5.9-1.1,5.9h-0.2l-0.2,0.1c-1.1,0.6-4.9-0.4-11.8-7.8
	c-2.8-3-6.2-8.7-8.1-12.7c-3.8-7.9-6.6-20.5-4.4-26.1c0.3-0.9,0.9-1.8,1.9-2.2c0.7-0.2,1.6,0,2.2,0.4c6.9,3.1,20.3,19.1,23.9,30.6
	l0,0l0.2,0.7C39.3,50.1,38.8,51.9,38.6,53.7z M44,54.2c0.1-0.4,0.2-0.7,0.2-1.1c0.1-0.4,0.1-0.7,0.2-1.1c0.2,0.5,0.4,1,0.6,1.6
	c0.6,2,1.9,3.6,3.7,4.5c1.7,0.7,3.7,0.5,5.2-0.5c3.5-1.6,7.9-6.6,11.3-13.2c3.5-6.6,5.9-18,2.4-19.7C64.3,23,56.5,31.4,53,38.1
	c-4,7.8-5.5,15.4-3.7,18.5h-0.2c-1.3-0.8-2.3-2.2-2.8-3.7c-0.4-1.1-0.7-2-0.9-2.9l-0.3-0.9V49c6.6-16.3,20.2-30.2,25.5-32.2
	c0.4-0.2,0.7-0.3,1.1-0.2c3.9,1.8,0.2,19.5-4,30.5c-2.6,7.1-6.8,13-11.3,16.2c-3.3,2.4-6.4,3.1-8.4,1.9c-2.1-1.2-3-4.7-3.7-7.4
	c-0.2-0.6-0.3-1.1-0.5-1.7C43.7,55.5,43.8,54.9,44,54.2z M55.8,38.6c1.5-3.5,5.1-8,7-7.2c1.9,0.7,1.2,6.5-0.2,9.9
	c-2,4.8-5.2,8-7,7.3C53.7,47.9,53.8,43.3,55.8,38.6z M43,47.5l0.5,1.3c0,0.1,0.1,0.2,0.1,0.4c-0.4,1-0.6,2.1-0.7,3.1
	c-0.2-0.8-0.5-1.8-0.8-3l-0.3-0.9c0.3-0.7,0.6-1.4,0.8-2.2l0,0C42.6,46.6,42.8,47.1,43,47.5z"/>
</svg>
