<svg id="main" xmlns="http://www.w3.org/2000/svg" viewBox="0 0 104 40"><rect x="2.69" y="2.01" width="95.45" height="35.98" style="fill:none"/><rect width="104" height="40" style="fill:none"/><path d="M50.85,32.85c-1.1,0-1.65-.4-1.65-1.19s.53-1.19,1.65-1.19h4.33a1.74,1.74,0,0,0,1.17-.53l.58-.53a1.36,1.36,0,0,0,.33-.94V25.33l-.44.43a3.1,3.1,0,0,1-1.89,1.16H52.08a2.46,2.46,0,0,1-1.78-.72l-1.47-1.29a2.47,2.47,0,0,1-.76-2.21V19.24a3.32,3.32,0,0,1,.81-2.46l1.74-1.34a2.17,2.17,0,0,1,1.5-.56h2.26a4.21,4.21,0,0,1,2.35,1.17l.53.43v-.21a1.27,1.27,0,0,1,1.12-1.39h.12c1,0,1.18.83,1.18,1.66V27.88c0,2.19-.21,2.59-1.16,3.38l-.79.66a3.78,3.78,0,0,1-3,1Zm1.57-15.69a1.05,1.05,0,0,0-.57.19l-1,.8c-.27.2-.29.69-.29,1.19v3c0,.49,0,1,.29,1.19l1,.8a1.1,1.1,0,0,0,.66.21h1.72c.29,0,.61-.23,1.08-.61l1.89-1.47a1.11,1.11,0,0,0,.23-.76V20a1.11,1.11,0,0,0-.23-.76l-1.89-1.47c-.47-.38-.79-.61-1.08-.61Z" style="fill:#fff"/><path d="M50.85,32.76c-1,0-1.55-.36-1.55-1.1s.49-1.1,1.55-1.1h4.33A1.9,1.9,0,0,0,56.41,30l.58-.55a1.39,1.39,0,0,0,.36-1V25.1l-.6.59a3.08,3.08,0,0,1-1.89,1.13H52.08a2.35,2.35,0,0,1-1.72-.7l-1.48-1.21a2.45,2.45,0,0,1-.72-2.13V19.24a3.11,3.11,0,0,1,.8-2.38l1.72-1.34A2.06,2.06,0,0,1,52.12,15h2.26a4.43,4.43,0,0,1,2.29,1.15l.68.55v-.4a1.17,1.17,0,0,1,1-1.29h.12c1,0,1.08.76,1.08,1.57V27.88c0,2.15-.19,2.53-1.13,3.31l-.78.66a3.79,3.79,0,0,1-2.91,1Zm1.57-15.69a1,1,0,0,0-.72.24l-1,.78c-.31.23-.33.75-.33,1.25v3c0,.51,0,1,.33,1.27l1,.77a1,1,0,0,0,.72.25h1.72A2,2,0,0,0,55.27,24l1.89-1.47a1.1,1.1,0,0,0,.27-.83V20a1.19,1.19,0,0,0-.27-.83l-1.89-1.48a2.08,2.08,0,0,0-1.13-.62Z" style="fill:#fff"/><path d="M50.85,32.66c-1.31,0-1.46-.58-1.46-1s.17-1,1.46-1h4.33a1.89,1.89,0,0,0,1.28-.57l.59-.55a1.48,1.48,0,0,0,.4-1.07V24.91l-.76.76a3.1,3.1,0,0,1-1.89,1.09H52.08a2.28,2.28,0,0,1-1.67-.66l-1.47-1.32a2.35,2.35,0,0,1-.68-2.06V19.24a3.07,3.07,0,0,1,.76-2.3l1.72-1.35a1.93,1.93,0,0,1,1.38-.53h2.26a4.23,4.23,0,0,1,2.23,1.14l.84.66v-.59a1.07,1.07,0,0,1,.93-1.2h.12c.82,0,1,.59,1,1.48V27.88c0,2.12-.19,2.48-1.1,3.23l-.77.66a3.6,3.6,0,0,1-2.86,1ZM52.42,17a1.18,1.18,0,0,0-.78.27l-1,.77c-.34.27-.36.8-.36,1.34v3c0,.55,0,1.08.36,1.34l1,.78a1.17,1.17,0,0,0,.78.26h1.72a2.21,2.21,0,0,0,1.19-.64l1.89-1.47a1.22,1.22,0,0,0,.3-.91V20a1.22,1.22,0,0,0-.3-.91l-1.89-1.47A2.23,2.23,0,0,0,54.14,17Z" style="fill:#fff"/><path d="M69.9,27.9c-.41,0-.75-.4-1-.76l-1.25-1.89-1.26,1.89c-.25.36-.59.76-1,.76h-.9c-.76,0-1-.59-1.14-1.21L62.1,23l-.25-6.52a1.9,1.9,0,0,1,.36-1.4,1.07,1.07,0,0,1,.81-.3c1,0,1.19.91,1.21,1.7l.25,6,.71,2.08,1.25-2.12V20.36c0-.46,0-1.65,1.21-1.65s1.21,1.19,1.21,1.65v2.15l1.23,2.08.66-2.12.23-6c0-.79.19-1.7,1.21-1.7a1.21,1.21,0,0,1,.83.3,1.9,1.9,0,0,1,.36,1.4L73.21,23S72,26.67,72,26.8c-.21.63-.4,1.21-1.15,1.21Z" style="fill:#fff"/><path d="M69.9,27.8c-.36,0-.68-.37-.92-.71L67.65,25.2l-1.34,1.89c-.23.34-.55.71-.93.71h-.9c-.68,0-.85-.53-1.06-1.15,0-.09-1.21-3.65-1.23-3.78h0l-.25-6.46a1.72,1.72,0,0,1,.33-1.33A1,1,0,0,1,63,14.8c.95,0,1.1.81,1.12,1.61l.24,6,.8,2.47,1.36-2.3V20.36c0-.72.11-1.55,1.11-1.55s1.12.83,1.12,1.55v2.15l1.36,2.4.77-2.3.25-6c0-.8.19-1.61,1.11-1.61a1,1,0,0,1,.76.28,1.76,1.76,0,0,1,.34,1.33L73.11,23,71.87,26.8c-.21.63-.38,1.16-1.06,1.16Z" style="fill:#fff"/><path d="M69.9,27.71c-.32,0-.62-.36-.85-.68l-1.4-2.12L66.23,27c-.2.3-.51.68-.85.68h-.9c-.61,0-.76-.47-1-1.08l-1.23-3.68L62,16.44a1.71,1.71,0,0,1,.3-1.26.94.94,0,0,1,.68-.25c.7,0,1,.46,1,1.51l.25,6L65.08,25l1.49-2.53V20.36c0-1,.31-1.46,1-1.46s1,.44,1,1.46v2.21L70.09,25l.85-2.53.25-6c0-1.08.34-1.53,1-1.53a1,1,0,0,1,.7.25,1.71,1.71,0,0,1,.3,1.26L73,22.91s-1.21,3.63-1.24,3.78c-.19.6-.34,1.08-1,1.08Z" style="fill:#fff"/><path d="M80,27.9a2.56,2.56,0,0,1-2.12-.64l-1-.87a2.87,2.87,0,0,1-1.21-2.63V19.24a3.05,3.05,0,0,1,1.17-2.81l.83-.7a3.22,3.22,0,0,1,2.59-1h2.16a3.4,3.4,0,0,1,2.62.87l1,.74a3.33,3.33,0,0,1,1.23,3.06v1.89c0,1.34-.23,1.76-1.65,1.76H78v.73a1.06,1.06,0,0,0,.34.67l.59.64a2.06,2.06,0,0,0,1.55.41h5.06c1.12,0,1.65.4,1.65,1.2s-.55,1.19-1.65,1.19Zm4.85-7.22V19.24a1.14,1.14,0,0,0-.3-1l-.9-.78a1.72,1.72,0,0,0-1.12-.28h-2a1.93,1.93,0,0,0-1.2.26l-.81.59a1,1,0,0,0-.47,1v1.63Z" style="fill:#fff"/><path d="M80,27.8a2.46,2.46,0,0,1-2.06-.6l-1-.87a2.81,2.81,0,0,1-1.2-2.57V19.24a3,3,0,0,1,1.14-2.74l.83-.7a3.07,3.07,0,0,1,2.53-.92h2.16a3.41,3.41,0,0,1,2.57.83l1,.75a3.19,3.19,0,0,1,1.19,3v1.89c0,1.3-.19,1.66-1.55,1.66H78v.83a1.3,1.3,0,0,0,.36.74l.59.63a2.1,2.1,0,0,0,1.62.45h5.07c1.06,0,1.55.36,1.55,1.1s-.51,1.09-1.55,1.09Zm5-7V19.24a1.24,1.24,0,0,0-.32-1l-.91-.85a1.85,1.85,0,0,0-1.19-.3h-2a2,2,0,0,0-1.25.28l-.82.59A1.13,1.13,0,0,0,77.93,19v1.72Z" style="fill:#fff"/><path d="M80,27.71a2.43,2.43,0,0,1-2-.59l-1-.87a2.69,2.69,0,0,1-1.15-2.49V19.24a2.85,2.85,0,0,1,1.1-2.66l.83-.7a3,3,0,0,1,2.51-1H82.4a3.3,3.3,0,0,1,2.51.81l1,.76A3.08,3.08,0,0,1,87,19.41V21.3c0,1.25-.14,1.57-1.46,1.57H77.84v.93a1.21,1.21,0,0,0,.4.79l.58.62a2.09,2.09,0,0,0,1.69.5h5.06c1.31,0,1.46.54,1.46,1s-.15,1-1.46,1Zm5-6.84V19.24a1.3,1.3,0,0,0-.36-1.11l-.9-.78A1.87,1.87,0,0,0,82.49,17h-2a2.08,2.08,0,0,0-1.29.3l-.83.59a1.2,1.2,0,0,0-.55,1.19V21Z" style="fill:#fff"/><path d="M99.8,27.9c-1.15,0-1.19-1.21-1.21-1.61l-.24-7.16c0-1.32-.13-1.89-1.57-1.89H96a1.46,1.46,0,0,0-.68.11l-3.51,2.18v6.71c0,.45,0,1.62-1.21,1.62s-1.19-1.17-1.19-1.62v-9.7c0-.85,0-1.76,1.19-1.76s1.21.87,1.21,1.74v.26l1.89-1.21a3.81,3.81,0,0,1,2-.79H97.5a3,3,0,0,1,2.19.87,3.31,3.31,0,0,1,1.06,2.87l.26,7.56a2.1,2.1,0,0,1-.36,1.48A1.12,1.12,0,0,1,99.8,27.9Z" style="fill:#fff"/><path d="M99.8,27.8c-.94,0-1.09-.85-1.11-1.51l-.25-7.16c0-1.36-.13-2.06-1.66-2.06H96a1.45,1.45,0,0,0-.68.28l-3.53,2.18v6.8c0,.72-.11,1.53-1.12,1.53s-1.09-.81-1.09-1.53V16.54c0-.83,0-1.66,1.09-1.66s1.12.79,1.12,1.64v.42h.13l1.89-1.23a3.79,3.79,0,0,1,2-.78h1.75a3,3,0,0,1,2.14.83,3.29,3.29,0,0,1,1,2.84l.26,7.56a2,2,0,0,1-.34,1.4A1,1,0,0,1,99.8,27.8Z" style="fill:#fff"/><path d="M99.8,27.71c-.66,0-1-.44-1-1.42l-.24-7.16c0-1.38-.15-2.16-1.76-2.16H96a1.64,1.64,0,0,0-.83.25l-3.63,2.23v6.82c0,1-.3,1.44-1,1.44s-1-.44-1-1.44V16.54c0-.83,0-1.57,1-1.57s1,.62,1,1.55v.57l.27-.14,1.89-1.22A3.74,3.74,0,0,1,95.59,15h1.76a2.89,2.89,0,0,1,2.08.81,3.21,3.21,0,0,1,1,2.76l.26,7.56a1.9,1.9,0,0,1-.32,1.33A.82.82,0,0,1,99.8,27.71Z" style="fill:#fff"/><path d="M34.9,3.7c-1.68-.15-7.29,4.63-11.35,10.48A51.57,51.57,0,0,0,20,19.87a37.6,37.6,0,0,0-4.22-7c-4-5.63-9.18-9.58-11.23-8.62-3.13,1.45-1,13,1.34,18.75a34.69,34.69,0,0,0,6,10.05c2,2.21,3.71,3.3,5.24,3.3A3.14,3.14,0,0,0,18.3,36c2.06-.91,2.19-4.33,2.15-7.19A3.75,3.75,0,0,0,22,30.89c1.21.71,2.82.39,4.59-.9a16.76,16.76,0,0,0,5.37-7.65c1-2.6,4.39-13.36,1.45-14.69a1.31,1.31,0,0,0-1.06.09c-2.43.94-8.5,7-11.6,14.26-.15-.44-.28-.86-.43-1.21a48.55,48.55,0,0,1,3.8-6.2C28.4,8.43,33.61,4.29,34.79,4.42c1.64.16,1.34,4.23,1.21,6.2V11a41.32,41.32,0,0,1-5.15,17.09c-2.87,4.73-5.4,7.56-6.78,7.56v.69c2.15,0,5.2-4.29,7.39-7.88A42.17,42.17,0,0,0,36.72,11v-.34C36.93,8.13,37.23,3.93,34.9,3.7ZM18.06,35.39c-1.48.66-3.39-.3-5.69-2.86a34,34,0,0,1-5.82-9.85c-2.65-6.46-4-16.79-1.7-17.85a.85.85,0,0,1,.42-.08c1.72,0,6,3,9.93,8.5a36.22,36.22,0,0,1,4.21,7.09c.06.12.11.26.17.41s-.22.45-.32.67l-.1.22c-1.9-5.4-7.75-12.34-11-13.79a2,2,0,0,0-1.58-.17A2.4,2.4,0,0,0,5.34,9.1c-1,2.76.2,8.64,2,12.39a27.41,27.41,0,0,0,3.76,5.93c2.29,2.43,4.29,3.83,5.58,3.83a1.79,1.79,0,0,0,.6-.13,1.06,1.06,0,0,0,.49-.35c.5-.62.67-1.9.51-3.8a3.61,3.61,0,0,0,.39-.9,2.94,2.94,0,0,0,.12-.59c.09-.55.2-1.09.34-1.62.16.53.27.93.39,1.47,0,0,.1.38.26.94a6,6,0,0,1,0,1.7C19.82,30.59,19.92,34.58,18.06,35.39ZM9.55,20.74c-1.44-2.63-2.43-7-.94-7.68s4.71,2.57,6.18,5.23c2,3.58,2.43,7,1,7.7s-4.19-1.68-6.16-5.25Zm8.51,4.36a18.14,18.14,0,0,0-2.43-7.29c-2-3.54-6.32-7.89-8.25-7s-.66,6.75,1.21,10.24c2.09,3.8,4.86,6.53,6.86,7.05h0a2.91,2.91,0,0,0,.59,0,1.61,1.61,0,0,0,.65-.1,2,2,0,0,0,.76-.41c.1,2.43-.5,2.69-.48,2.69h-.15c-.49.25-2.22-.16-5.36-3.54A27.19,27.19,0,0,1,7.82,21c-1.72-3.55-3-9.29-2-11.84a1.75,1.75,0,0,1,.84-1,1.54,1.54,0,0,1,1,.17c3.14,1.43,9.18,8.65,10.8,13.83h0l.1.33a16,16,0,0,0-.49,2.66Zm2.43.18c0-.17.07-.34.1-.51a1.25,1.25,0,0,1,.08-.52c.07.23.16.47.26.74a3.42,3.42,0,0,0,1.77,2,2.88,2.88,0,0,0,2.43-.21c1.55-.7,3.57-3,5.14-6s2.65-8.13,1.12-8.9S26.31,15,24.73,18c-1.84,3.54-2.43,7-1.65,8.36H23a2.79,2.79,0,0,1-1.21-1.62c-.19-.51-.31-.88-.44-1.3a2.07,2.07,0,0,0-.13-.43h0c2.95-7.4,9.13-13.67,11.5-14.58a.84.84,0,0,1,.5-.1c1.79.8.08,8.83-1.82,13.8a16.33,16.33,0,0,1-5.12,7.29c-1.5,1.11-2.9,1.42-3.81.88s-1.39-2.13-1.7-3.37a3,3,0,0,0-.2-.75,4.41,4.41,0,0,1,0-.89ZM26,18.21c.66-1.57,2.31-3.65,3.15-3.26s.56,2.92-.11,4.51c-.9,2.15-2.31,3.65-3.15,3.27S25,20.36,26,18.21Zm-5.84,4.06.21.59a.38.38,0,0,0,0,.15A7.65,7.65,0,0,0,20,24.42l-.38-1.35-.14-.43c.12-.31.25-.63.4-1h0a4.83,4.83,0,0,0,.21.6Z" style="fill:#fff"/></svg>