<svg id="main" xmlns="http://www.w3.org/2000/svg" viewBox="0 0 64 64"><defs><style>.cls-1{fill:#f4e7ec;}.cls-2{font-size:5.83px;fill:#1a1a1a;font-family:FiraMonoOT, Fira Mono OT;}.cls-3{letter-spacing:0em;}.cls-4{letter-spacing:-0.03em;}.cls-5{letter-spacing:0.01em;}.cls-6{letter-spacing:0.03em;}.cls-7{letter-spacing:-0.04em;}.cls-8{letter-spacing:-0.12em;}.cls-9{letter-spacing:0.04em;}.cls-10{letter-spacing:-0.02em;}.cls-11{letter-spacing:0.02em;}.cls-12{letter-spacing:-0.04em;}.cls-13{letter-spacing:0em;}.cls-14{font-size:7px;fill:#b20d0e;font-family:FiraMonoOT-Bold, Fira Mono OT;font-weight:700;}.cls-15{letter-spacing:0.02em;}.cls-16{letter-spacing:0em;}.cls-17{letter-spacing:0.01em;}</style></defs><path class="cls-1" d="M52,52.82c-.74.19-1.5.38-2.29.56a141.18,141.18,0,0,1-19.84,3q-4.11.36-8,.49h-10V7.11H49.75V34.54c0,2,.09,4.11.29,6.32.12,1.24.26,2.51.44,3.79A76,76,0,0,0,52,52.82Z"/><path class="cls-1" d="M11.94,57h-.12V7H49.87V34.54c0,2,.09,4.15.29,6.31.12,1.29.26,2.57.43,3.79a76,76,0,0,0,1.57,8.16l0,.1-.11,0c-.76.2-1.53.39-2.29.57a143.34,143.34,0,0,1-19.86,3c-2.7.23-5.38.39-8,.49Zm.11-.21h9.89c2.59-.1,5.26-.26,8-.49a142.49,142.49,0,0,0,19.82-3l2.18-.53a78.05,78.05,0,0,1-1.54-8.08c-.17-1.23-.32-2.51-.43-3.8-.2-2.17-.3-4.3-.3-6.33V7.21H12.05Z"/><text class="cls-2" transform="translate(19.82 31.12)"><tspan class="cls-3">G</tspan><tspan class="cls-4" x="3.51" y="0">i</tspan><tspan class="cls-5" x="6.81" y="0">v</tspan><tspan class="cls-6" x="10.34" y="0">e</tspan><tspan class="cls-7" x="14" y="0">n</tspan><tspan class="cls-8" x="17.25" y="0">.</tspan><tspan x="20.07" y="0">.</tspan><tspan x="-0.32" y="6.63"> </tspan><tspan class="cls-9" x="3.18" y="6.63">W</tspan><tspan class="cls-6" x="6.89" y="6.63">he</tspan><tspan class="cls-10" x="14.19" y="6.63">n</tspan><tspan class="cls-8" x="17.57" y="6.63">.</tspan><tspan x="20.39" y="6.63">.</tspan><tspan x="-0.21" y="13.27"> </tspan><tspan class="cls-11" x="3.29" y="13.27">T</tspan><tspan class="cls-6" x="6.9" y="13.27">he</tspan><tspan class="cls-12" x="14.21" y="13.27">n</tspan><tspan class="cls-8" x="17.46" y="13.27">.</tspan><tspan class="cls-13" x="20.28" y="13.27">.</tspan></text><text class="cls-14" transform="translate(22.44 18.13)"><tspan class="cls-15">M</tspan><tspan class="cls-16" x="4.36" y="0">e</tspan><tspan class="cls-17" x="8.55" y="0">t</tspan><tspan x="12.82" y="0">a</tspan></text></svg>