<svg id="Layer_1" data-name="Layer 1" xmlns="http://www.w3.org/2000/svg" viewBox="0 0 90.99 90.99"><defs><style>.cls-1{fill:#fff;}</style></defs><path class="cls-1" d="M75.69,17.65C72.29,17.33,61,27,52.81,38.73a103.47,103.47,0,0,0-7.17,11.48C44.46,47.5,42.28,43.14,37.15,36,29,24.67,18.64,16.73,14.5,18.65c-6.3,2.93-2,26.23,2.72,37.73,2.23,5.44,5.9,13.45,12,20.23,4,4.45,7.49,6.65,10.55,6.65a6.29,6.29,0,0,0,2.55-.55c4.14-1.83,4.41-8.73,4.34-14.47a7.79,7.79,0,0,0,3,4.15c2.4,1.41,5.69.77,9.27-1.83,4.38-3.16,8.22-8.63,10.81-15.4,2-5.23,8.83-26.93,2.92-29.56a2.72,2.72,0,0,0-2.13.16c-4.82,1.93-17,14.13-23.37,28.73-.3-.9-.59-1.75-.87-2.52A97.24,97.24,0,0,1,54,39.53c8.7-12.42,19.2-20.74,21.57-20.48,3.3.32,2.71,8.52,2.42,12.47l0,.69C77.09,44.14,73,57.66,67.55,66.66c-5.78,9.52-10.89,15.2-13.65,15.2v1.41c4.32,0,10.47-8.64,14.88-15.89,5.57-9.17,9.72-22.94,10.57-35.08l.05-.68C79.77,26.56,80.39,18.1,75.69,17.65ZM41.74,81.43c-3,1.32-6.82-.62-11.44-5.75-6-6.62-9.57-14.49-11.76-19.82-5.34-13-8-33.81-3.43-35.94a2.1,2.1,0,0,1,.84-.16c3.47,0,12.05,5.94,20,17.05,5.25,7.3,7.35,11.63,8.47,14.25.11.25.22.53.34.83-.22.45-.44.9-.65,1.35-.07.15-.12.29-.19.44C40.13,42.88,28.29,28.93,21.74,26a4.09,4.09,0,0,0-3.26-.36A4.75,4.75,0,0,0,16,28.52c-2.09,5.55.41,17.37,4.07,24.93C22,57.32,25,62.51,27.71,65.38c4.59,5,8.63,7.7,11.22,7.7a2.7,2.7,0,0,0,1.19-.25,1.81,1.81,0,0,0,1-.7c1-1.25,1.36-3.83,1-7.66a8.38,8.38,0,0,0,.8-1.81,10.4,10.4,0,0,0,.24-1.17,32.87,32.87,0,0,1,.68-3.27c.31,1.08.54,1.89.79,3,0,0,.19.77.51,1.89,0,1,0,2.12,0,3.4C45.31,71.77,45.47,79.78,41.74,81.43ZM24.66,51.94c-2.91-5.28-4.82-14.1-1.91-15.46s9.5,5.2,12.46,10.55c4,7.19,4.83,14.11,1.91,15.47S28.63,59.13,24.66,51.94Zm17.22,8.78C41.68,56.81,40,51.54,37,46.15,33.1,39,24.31,30.27,20.43,32.08S19.09,45.66,23,52.7c4.2,7.61,9.76,13.14,13.81,14.19l0,.08a5.09,5.09,0,0,0,1.21.11,3.53,3.53,0,0,0,1.31-.21,4.59,4.59,0,0,0,1.54-.82c.19,4.8-1,5.41-1,5.41h-.15l-.14.07c-1,.52-4.48-.31-10.79-7.11-2.55-2.75-5.61-7.93-7.37-11.58-3.46-7.15-6-18.7-4-23.84a3.39,3.39,0,0,1,1.69-2.08,2.86,2.86,0,0,1,2.09.35c6.36,2.85,18.51,17.39,21.77,27.8h0l.19.65A30.33,30.33,0,0,0,41.88,60.72Zm4.94.37a7.15,7.15,0,0,0,.19-1q.08-.47.18-1.05c.15.46.32.94.52,1.49a6.74,6.74,0,0,0,3.39,4.12,5.63,5.63,0,0,0,4.76-.41c3.16-1.42,7.21-6,10.36-12s5.34-16.36,2.26-17.92S58.25,40.38,55.07,46.51c-3.69,7.11-5,14-3.34,16.82l-.16,0A5.74,5.74,0,0,1,49.05,60c-.37-1-.61-1.77-.88-2.61l-.29-.88,0-.06c6-14.89,18.41-27.51,23.2-29.41a1.64,1.64,0,0,1,1-.19c3.59,1.6.17,17.78-3.66,27.78C66,61.08,62.22,66.47,58.12,69.43c-3,2.2-5.84,2.84-7.69,1.75S47.66,66.9,47,64.4c-.14-.53-.27-1-.4-1.51A7.72,7.72,0,0,1,46.82,61.09ZM57.63,46.86C59,43.69,62.28,39.6,64,40.29s1.13,5.87-.21,9.09C62,53.7,59.11,56.64,57.42,56S55.82,51.19,57.63,46.86ZM45.87,55l.4,1.2c0,.11.07.21.1.31a17.34,17.34,0,0,0-.69,2.83c-.21-.8-.45-1.6-.78-2.72l-.25-.86c.23-.63.49-1.28.79-2l0,0C45.59,54.19,45.73,54.6,45.87,55Z"/></svg>