<?xml version="1.0" encoding="utf-8"?>
<!-- Generator: Adobe Illustrator 26.0.2, SVG Export Plug-In . SVG Version: 6.00 Build 0)  -->
<svg version="1.1" id="main" xmlns="http://www.w3.org/2000/svg" xmlns:xlink="http://www.w3.org/1999/xlink" x="0px" y="0px"
	 viewBox="0 0 64 40" style="enable-background:new 0 0 64 40;" xml:space="preserve">
<style type="text/css">
	.st0{fill:none;}
	.st1{fill:#FFFFFF;}
	.st2{fill:url(#SVGID_1_);}
</style>
<rect x="-18" y="-53" class="st0" width="116" height="125"/>
<rect x="11.8" class="st1" width="40.4" height="40"/>
<linearGradient id="SVGID_1_" gradientUnits="userSpaceOnUse" x1="22.557" y1="-968.3207" x2="40.767" y2="-998.5907" gradientTransform="matrix(1 0 0 -1 0 -972)">
	<stop  offset="0" style="stop-color:#DA150E"/>
	<stop  offset="0" style="stop-color:#DC150E"/>
	<stop  offset="0" style="stop-color:#E5160D"/>
	<stop  offset="0" style="stop-color:#E9160D"/>
	<stop  offset="0.24" style="stop-color:#E6160E"/>
	<stop  offset="0.38" style="stop-color:#DE1513"/>
	<stop  offset="0.51" style="stop-color:#CF151B"/>
	<stop  offset="0.62" style="stop-color:#BB1326"/>
	<stop  offset="0.72" style="stop-color:#A01234"/>
	<stop  offset="0.81" style="stop-color:#7F1046"/>
	<stop  offset="0.9" style="stop-color:#590E5B"/>
	<stop  offset="0.98" style="stop-color:#2D0C73"/>
	<stop  offset="1" style="stop-color:#200B7A"/>
</linearGradient>
<path class="st2" d="M47.5,3C45.7,2.8,40,7.8,35.8,13.9c-1.4,1.9-2.6,3.9-3.7,5.9c-1.2-2.6-2.6-5.1-4.4-7.4c-4.2-5.9-9.5-10-11.6-9
	c-3.2,1.5-1,13.6,1.4,19.5c1.4,3.8,3.5,7.4,6.2,10.5c2,2.3,3.8,3.5,5.4,3.5c0.4,0,0.9-0.1,1.2-0.3c2.1-1,2.3-4.5,2.2-7.5
	c0.3,0.9,0.8,1.6,1.5,2.1c1.3,0.7,2.9,0.4,4.7-0.9c2.6-2.1,4.5-4.9,5.5-8c1-2.7,4.5-13.9,1.5-15.3c-0.2,0-0.6,0-0.9,0.2
	c-2.5,1-8.8,7.3-12,14.9c-0.2-0.5-0.3-0.9-0.4-1.3c1.1-2.2,2.5-4.4,3.9-6.5c4.5-6.4,9.8-10.8,11-10.6c1.7,0.2,1.4,4.4,1.3,6.5v0.4
	c-0.4,6.3-2.2,12.4-5.2,17.9c-3,4.9-5.6,7.9-7,7.9V37c2.2,0,5.4-4.5,7.6-8.2c3.1-5.6,5-11.8,5.4-18.2v-0.4C49.6,7.6,49.9,3.2,47.5,3
	z M30.1,36c-1.5,0.7-3.5-0.3-5.9-3c-2.6-3.1-4.6-6.5-6-10.3C15.5,16,14.1,5.3,16.4,4.2c0.1-0.1,0.3-0.1,0.4-0.1
	c1.8,0,6.2,3.1,10.3,8.9c1.7,2.3,3.2,4.8,4.4,7.4c0.1,0.1,0.1,0.3,0.2,0.4s-0.2,0.5-0.3,0.7l-0.1,0.2c-2-5.6-8-12.9-11.4-14.4
	C19.3,7,18.8,7,18.2,7.1c-0.6,0.3-1,0.9-1.2,1.5c-1.1,2.9,0.2,9,2.1,12.9c1,2.2,2.3,4.3,3.9,6.2c2.4,2.5,4.4,4,5.8,4
	c0.2,0,0.4,0,0.6-0.1s0.4-0.2,0.5-0.4c0.5-0.6,0.7-2,0.5-4c0.2-0.3,0.3-0.6,0.4-0.9c0.1-0.2,0.1-0.4,0.1-0.6
	c0.1-0.6,0.2-1.1,0.3-1.7c0.2,0.6,0.3,1,0.4,1.5c0,0,0.1,0.4,0.3,1c0.1,0.6,0.1,1.2,0,1.8C31.9,31,32,35.2,30.1,36z M21.3,20.8
	c-1.5-2.7-2.5-7.3-1-8s4.9,2.7,6.4,5.5c2,3.7,2.5,7.3,1,8S23.4,24.5,21.3,20.8L21.3,20.8z M30.1,25.3c-0.3-2.7-1.1-5.3-2.5-7.6
	c-2-3.7-6.5-8.2-8.5-7.3s-0.7,7,1.3,10.7c2.2,4,5,6.8,7.1,7.3l0,0c0.2,0,0.4,0,0.6,0s0.5,0,0.7-0.1c0.3-0.1,0.6-0.2,0.8-0.4
	c0.1,2.5-0.5,2.8-0.5,2.8H29c-0.5,0.3-2.3-0.2-5.5-3.7c-1.5-1.8-2.8-3.9-3.8-6c-1.8-3.7-3-9.7-2.1-12.4c0.1-0.5,0.4-0.8,0.9-1.1
	c0.4-0.1,0.8,0,1.1,0.2c3.2,1.5,9.5,9,11.2,14.4l0,0l0.1,0.3C30.4,23.5,30.2,24.4,30.1,25.3L30.1,25.3z M32.6,25.5
	c0-0.2,0.1-0.4,0.1-0.5c0-0.2,0-0.4,0.1-0.5c0.1,0.2,0.2,0.5,0.3,0.8c0.3,0.9,1,1.7,1.8,2.1c0.8,0.3,1.7,0.2,2.5-0.2
	c1.6-0.7,3.7-3.1,5.3-6.2s2.7-8.5,1.2-9.3s-5.2,3.2-6.8,6.3c-1.9,3.7-2.5,7.3-1.7,8.7h-0.1c-0.6-0.4-1.1-1-1.3-1.7
	c-0.2-0.5-0.3-0.9-0.5-1.4c0-0.2-0.1-0.3-0.1-0.5l0,0c3-7.7,9.4-14.3,11.9-15.2c0.3-0.1,0.5-0.1,0.5-0.1c1.8,0.8,0.1,9.2-1.9,14.4
	c-1,3-2.9,5.6-5.3,7.6c-1.6,1.2-3,1.5-3.9,0.9s-1.4-2.2-1.8-3.5c0-0.3-0.1-0.5-0.2-0.8C32.7,26.1,32.7,25.8,32.6,25.5L32.6,25.5z
	 M38.3,18.1c0.7-1.6,2.4-3.8,3.2-3.4s0.6,3-0.1,4.7c-0.9,2.2-2.4,3.8-3.2,3.4S37.3,20.4,38.3,18.1z M32.3,22.4l0.2,0.6v0.2
	c-0.2,0.5-0.3,1-0.3,1.5l-0.4-1.4l-0.1-0.4c0.1-0.3,0.2-0.7,0.4-1l0,0C32.1,22,32.1,22.2,32.3,22.4L32.3,22.4z"/>
</svg>
