<svg id="main" xmlns="http://www.w3.org/2000/svg" xmlns:xlink="http://www.w3.org/1999/xlink" viewBox="0 0 64 64"><defs><style>.cls-1{fill:#1c0779;}.cls-2{fill:#fff;}.cls-3{fill:none;}.cls-4{fill:#18067a;}.cls-5{fill:url(#linear-gradient);}</style><linearGradient id="linear-gradient" x1="38.92" y1="12.35" x2="51.5" y2="33.27" gradientUnits="userSpaceOnUse"><stop offset="0" stop-color="#da150e"/><stop offset="0" stop-color="#dc150e"/><stop offset="0" stop-color="#e5160d"/><stop offset="0" stop-color="#e9160d"/><stop offset="0.24" stop-color="#e6160e"/><stop offset="0.38" stop-color="#de1513"/><stop offset="0.51" stop-color="#cf151b"/><stop offset="0.62" stop-color="#bb1326"/><stop offset="0.72" stop-color="#a01234"/><stop offset="0.81" stop-color="#7f1046"/><stop offset="0.9" stop-color="#590e5b"/><stop offset="0.98" stop-color="#2d0c73"/><stop offset="1" stop-color="#200b7a"/></linearGradient></defs><path class="cls-1" d="M15.17,44.64h0Z"/><rect class="cls-2" x="2" y="2" width="60" height="60"/><rect class="cls-3" x="4.3" y="13.88" width="55.46" height="36"/><path class="cls-1" d="M36.72,34.53a1.93,1.93,0,0,1-.06.42Z"/><path class="cls-4" d="M7.93,47c-.62,0-.93-.21-.93-.66s.3-.65.93-.65h2.59a1.06,1.06,0,0,0,.73-.33L11.6,45a.82.82,0,0,0,.22-.6v-2l-.36.36a1.84,1.84,0,0,1-1.13.66H8.67a1.39,1.39,0,0,1-1-.4l-.89-.79A1.43,1.43,0,0,1,6.33,41V38.88a1.91,1.91,0,0,1,.47-1.43l1-.79a1.18,1.18,0,0,1,.85-.33h1.37a2.56,2.56,0,0,1,1.36.69l.41.32V37.1a.69.69,0,0,1,.68-.77c.58,0,.66.45.66.93v6.79c0,1.29-.12,1.51-.68,2l-.47.4a2.23,2.23,0,0,1-1.74.58Zm.94-9.36a.6.6,0,0,0-.43.14l-.59.46c-.18.14-.19.45-.19.76v1.79c0,.3,0,.61.19.76l.59.46a.65.65,0,0,0,.43.14h1a1.23,1.23,0,0,0,.67-.37l1.09-.89a.67.67,0,0,0,.16-.49v-1a.69.69,0,0,0-.16-.5L10.57,38a1.16,1.16,0,0,0-.67-.37Z"/><path class="cls-4" d="M7.93,46.89c-.72,0-.81-.29-.81-.55s.09-.54.81-.54h2.59a1.13,1.13,0,0,0,.8-.35l.36-.32a1,1,0,0,0,.26-.69V42.16l-.56.55a1.77,1.77,0,0,1-1.05.63H8.67a1.31,1.31,0,0,1-1-.38l-.88-.78A1.33,1.33,0,0,1,6.44,41V38.88a1.81,1.81,0,0,1,.43-1.34l1-.79a1.12,1.12,0,0,1,.79-.31h1.37a2.43,2.43,0,0,1,1.29.67l.6.46V37.1c0-.32.15-.66.56-.66s.54.23.54.82v6.79c0,1.25-.1,1.44-.63,1.89l-.47.39a2.13,2.13,0,0,1-1.67.56Zm.94-9.36a.78.78,0,0,0-.51.16l-.58.46a1.06,1.06,0,0,0-.24.85v1.79a1,1,0,0,0,.24.84l.59.47a.73.73,0,0,0,.5.16h1a1.35,1.35,0,0,0,.75-.4L11.73,41a.78.78,0,0,0,.21-.58v-1a.78.78,0,0,0-.2-.58l-1.09-.89a1.32,1.32,0,0,0-.75-.39Z"/><path class="cls-4" d="M19.33,44.05c-.23,0-.42-.23-.56-.43L18,42.44l-.79,1.18c-.15.2-.33.43-.56.43h-.54c-.41,0-.51-.32-.63-.69l-.74-2.2v0l-.15-3.85a1.09,1.09,0,0,1,.2-.8.58.58,0,0,1,.45-.16c.56,0,.65.49.67,1L16,40.88l.47,1.38.82-1.37V39.6c0-.43.07-.93.66-.93s.67.5.67.93v1.29l.81,1.37.47-1.38.15-3.59c0-.47.11-1,.67-1a.61.61,0,0,1,.45.16,1.13,1.13,0,0,1,.2.8l-.15,3.85s-.73,2.16-.74,2.22c-.12.37-.23.69-.63.69Z"/><path class="cls-4" d="M19.33,43.94c-.18,0-.35-.22-.47-.39L18,42.24l-.89,1.31c-.11.17-.29.39-.46.39h-.54c-.31,0-.4-.22-.52-.61l-.74-2.21-.15-3.84a1,1,0,0,1,.17-.71.5.5,0,0,1,.37-.13c.38,0,.53.24.55.85l.15,3.62.56,1.62,1-1.61V39.6c0-.58.16-.81.55-.81s.56.23.56.81v1.32l.95,1.61L20,40.91l.14-3.61c0-.62.18-.86.56-.86a.54.54,0,0,1,.37.13,1,1,0,0,1,.16.71l-.14,3.84-.74,2.21c-.13.38-.21.61-.52.61Z"/><path class="cls-4" d="M25.34,44.05a1.47,1.47,0,0,1-1.24-.37l-.6-.52a1.68,1.68,0,0,1-.71-1.53V39a1.77,1.77,0,0,1,.68-1.63l.5-.42a1.87,1.87,0,0,1,1.53-.57h1.29a2,2,0,0,1,1.54.5l.57.45a1.89,1.89,0,0,1,.72,1.77v1.12c0,.77-.12,1-.93,1H24.12v.5a.69.69,0,0,0,.22.43l.35.38a1.28,1.28,0,0,0,1,.27h3c.63,0,.93.21.93.65s-.3.66-.93.66Zm2.95-4.2v-.93a.75.75,0,0,0-.19-.63l-.55-.47a1,1,0,0,0-.7-.18H25.66a1.16,1.16,0,0,0-.74.17l-.49.34a.68.68,0,0,0-.31.67v1Z"/><path class="cls-4" d="M25.34,43.94a1.39,1.39,0,0,1-1.17-.34l-.6-.52a1.6,1.6,0,0,1-.67-1.45V39a1.67,1.67,0,0,1,.64-1.54L24,37a1.76,1.76,0,0,1,1.46-.55h1.29a1.9,1.9,0,0,1,1.47.48l.57.45a1.78,1.78,0,0,1,.68,1.68v1.12c0,.72-.07.87-.82.87H24v.62a.83.83,0,0,0,.25.51l.35.37a1.32,1.32,0,0,0,1.05.31h3c.72,0,.82.28.82.54s-.1.55-.82.55Zm.32-6.41a1.31,1.31,0,0,0-.8.18l-.49.35a.78.78,0,0,0-.36.76V40H28.4v-1a.89.89,0,0,0-.22-.72l-.55-.46a1.13,1.13,0,0,0-.78-.21Z"/><path class="cls-4" d="M37.2,44.05c-.57,0-.65-.52-.66-.9l-.15-4.29c0-.8-.09-1.22-1-1.22h-.47a.85.85,0,0,0-.46.14l-2.1,1.29v4.06c0,.43-.08.92-.67.92s-.67-.49-.67-.92V37.32c0-.5.06-1,.67-1s.67.47.67,1v.26l.07,0,1.13-.73a2.35,2.35,0,0,1,1.2-.46h1a1.77,1.77,0,0,1,1.29.5,1.94,1.94,0,0,1,.61,1.68l.15,4.54a1.19,1.19,0,0,1-.2.84A.63.63,0,0,1,37.2,44.05Z"/><path class="cls-4" d="M37.2,43.94c-.37,0-.53-.24-.55-.8l-.15-4.28c0-.83-.1-1.33-1.11-1.33h-.47a1.06,1.06,0,0,0-.52.15L32.24,39v4.12c0,.57-.16.81-.55.81s-.55-.24-.55-.81V37.32c0-.57.08-.88.55-.88s.55.24.55.86v.44l.24-.12,1.14-.74a2.25,2.25,0,0,1,1.14-.44h1.05a1.64,1.64,0,0,1,1.2.47,1.87,1.87,0,0,1,.58,1.61l.15,4.53a1.11,1.11,0,0,1-.17.76A.5.5,0,0,1,37.2,43.94Z"/><path class="cls-5" d="M56.26,17c-1.21-.11-5.23,3.34-8.17,7.53a36.41,36.41,0,0,0-2.56,4.1,27.44,27.44,0,0,0-3-5.08c-2.91-4-6.61-6.88-8.09-6.19-2.25,1.05-.72,9.37,1,13.47a24.94,24.94,0,0,0,4.29,7.23c1.43,1.59,2.67,2.37,3.77,2.37a2.25,2.25,0,0,0,.91-.19c1.48-.66,1.57-3.12,1.55-5.17A2.7,2.7,0,0,0,47,36.55c.85.5,2,.27,3.31-.65a12.2,12.2,0,0,0,3.86-5.5c.72-1.87,3.15-9.62,1-10.56a1,1,0,0,0-.76.06c-1.72.69-6.09,5.05-8.35,10.26-.1-.32-.2-.63-.3-.9a34.31,34.31,0,0,1,2.73-4.44c3.11-4.44,6.86-7.41,7.7-7.32,1.18.12,1,3.05.87,4.45l0,.25a29.55,29.55,0,0,1-3.71,12.3c-2.06,3.4-3.89,5.43-4.87,5.43v.5c1.54,0,3.74-3.08,5.31-5.67a30.11,30.11,0,0,0,3.78-12.52l0-.25C57.72,20.19,57.94,17.16,56.26,17ZM44.14,39.78c-1.06.47-2.44-.22-4.09-2.06a24.52,24.52,0,0,1-4.2-7.07C34,26,33,18.58,34.63,17.82a.67.67,0,0,1,.3-.06c1.24,0,4.3,2.12,7.15,6.08a26.56,26.56,0,0,1,3,5.09q.06.13.12.3c-.07.16-.15.32-.23.48l-.06.16C43.56,26,39.33,21,37,20a1.48,1.48,0,0,0-1.17-.12,1.67,1.67,0,0,0-.87,1c-.75,2,.14,6.21,1.45,8.91a19.38,19.38,0,0,0,2.72,4.26c1.64,1.77,3.08,2.75,4,2.75a1,1,0,0,0,.43-.09.7.7,0,0,0,.36-.25,4.22,4.22,0,0,0,.37-2.74,2.88,2.88,0,0,0,.28-.64c0-.1,0-.23.09-.42a9.74,9.74,0,0,1,.24-1.17c.11.39.19.68.28,1.06,0,0,.07.27.19.67s0,.76,0,1.22C45.41,36.33,45.47,39.19,44.14,39.78ZM38,29.25c-1-1.89-1.72-5-.68-5.52s3.39,1.85,4.44,3.77c1.42,2.56,1.73,5,.69,5.52S39.46,31.81,38,29.25Zm6.15,3.13a13,13,0,0,0-1.73-5.2c-1.41-2.55-4.55-5.67-5.93-5s-.48,4.85.91,7.36c1.5,2.72,3.48,4.69,4.93,5.07v0a1.28,1.28,0,0,0,.43,0,1.22,1.22,0,0,0,.47-.07,1.71,1.71,0,0,0,.55-.29c.07,1.71-.36,1.93-.35,1.93H43.4l0,0c-.35.18-1.61-.11-3.86-2.54a19.47,19.47,0,0,1-2.63-4.14c-1.23-2.55-2.13-6.68-1.44-8.51a1.23,1.23,0,0,1,.61-.74,1,1,0,0,1,.74.12c2.27,1,6.61,6.21,7.78,9.93h0l.07.23A10,10,0,0,0,44.19,32.38Zm1.76.13a2.08,2.08,0,0,0,.07-.36c0-.11,0-.24.06-.38l.19.54a2.46,2.46,0,0,0,1.21,1.47,2,2,0,0,0,1.7-.15c1.13-.51,2.57-2.13,3.7-4.3s1.91-5.85.81-6.4S50,25.12,48.9,27.31c-1.32,2.54-1.78,5-1.2,6l-.05,0a2,2,0,0,1-.9-1.16l-.32-.93-.1-.32v0c2.13-5.32,6.57-9.82,8.28-10.5.22-.09.33-.09.36-.07,1.28.57.06,6.35-1.31,9.92A11.77,11.77,0,0,1,50,35.49c-1.09.79-2.09,1-2.75.63s-1-1.53-1.22-2.42c-.05-.19-.09-.37-.14-.54A3.2,3.2,0,0,1,46,32.51Zm3.86-5.08c.48-1.13,1.66-2.59,2.27-2.34s.4,2.09-.08,3.24c-.65,1.55-1.66,2.6-2.26,2.35S49.17,29,49.81,27.43Zm-4.2,2.92.14.42a.76.76,0,0,1,0,.11,7.33,7.33,0,0,0-.25,1c-.07-.28-.16-.57-.28-1l-.08-.3c.08-.23.17-.46.28-.7h0Z"/></svg>