<svg id="main" xmlns="http://www.w3.org/2000/svg" viewBox="0 0 64 64"><defs><style>.cls-1{fill:#e7f0fb;}.cls-2{font-size:5.83px;fill:#1a1a1a;font-family:FiraMonoOT, Fira Mono OT;}.cls-3{letter-spacing:0em;}.cls-4{letter-spacing:-0.03em;}.cls-5{letter-spacing:0.01em;}.cls-6{letter-spacing:0.03em;}.cls-7{letter-spacing:-0.04em;}.cls-8{letter-spacing:-0.12em;}.cls-9{letter-spacing:0.04em;}.cls-10{letter-spacing:-0.02em;}.cls-11{letter-spacing:0.02em;}.cls-12{letter-spacing:-0.04em;}.cls-13{letter-spacing:0em;}.cls-14{font-size:7px;fill:#1a0b6d;font-family:FiraMonoOT-Bold, Fira Mono OT;font-weight:700;}.cls-15{letter-spacing:-0.02em;}.cls-16{letter-spacing:0.02em;}.cls-17{letter-spacing:-0.01em;}.cls-18{letter-spacing:0em;}.cls-19{letter-spacing:0em;}.cls-20{letter-spacing:0em;}</style></defs><path class="cls-1" d="M52.06,52.81l-2.29.57a142.77,142.77,0,0,1-19.84,3q-4.11.36-8,.49H12V7.1H49.77V34.53c0,2,.09,4.11.29,6.32.12,1.24.26,2.51.44,3.79A76,76,0,0,0,52.06,52.81Z"/><text class="cls-2" transform="translate(19.84 31.11)"><tspan class="cls-3">G</tspan><tspan class="cls-4" x="3.51" y="0">i</tspan><tspan class="cls-5" x="6.81" y="0">v</tspan><tspan class="cls-6" x="10.34" y="0">e</tspan><tspan class="cls-7" x="14" y="0">n</tspan><tspan class="cls-8" x="17.25" y="0">.</tspan><tspan x="20.07" y="0">.</tspan><tspan x="-0.32" y="6.63"> </tspan><tspan class="cls-9" x="3.18" y="6.63">W</tspan><tspan class="cls-6" x="6.88" y="6.63">he</tspan><tspan class="cls-10" x="14.19" y="6.63">n</tspan><tspan class="cls-8" x="17.57" y="6.63">.</tspan><tspan x="20.39" y="6.63">.</tspan><tspan x="-0.21" y="13.27"> </tspan><tspan class="cls-11" x="3.29" y="13.27">T</tspan><tspan class="cls-6" x="6.9" y="13.27">he</tspan><tspan class="cls-12" x="14.21" y="13.27">n</tspan><tspan class="cls-8" x="17.46" y="13.27">.</tspan><tspan class="cls-13" x="20.28" y="13.27">.</tspan></text><text class="cls-14" transform="translate(16.3 18.12)"><tspan class="cls-15">F</tspan><tspan class="cls-16" x="4.09" y="0">e</tspan><tspan class="cls-17" x="8.42" y="0">a</tspan><tspan class="cls-18" x="12.56" y="0">t</tspan><tspan class="cls-19" x="16.74" y="0">u</tspan><tspan class="cls-20" x="20.95" y="0">r</tspan><tspan x="25.14" y="0">e</tspan></text></svg>