<svg id="Layer_1" data-name="Layer 1" xmlns="http://www.w3.org/2000/svg" xmlns:xlink="http://www.w3.org/1999/xlink" viewBox="0 0 285 141.73"><defs><style>.cls-1{fill:url(#linear-gradient);}.cls-2{fill:url(#linear-gradient-2);}</style><linearGradient id="linear-gradient" x1="-16.82" y1="137.23" x2="290.29" y2="9.31" gradientUnits="userSpaceOnUse"><stop offset="0.43" stop-color="#200b7a"/><stop offset="0.51" stop-color="#430d66"/><stop offset="0.65" stop-color="#831040"/><stop offset="0.78" stop-color="#b21325"/><stop offset="0.87" stop-color="#cf1414"/><stop offset="0.92" stop-color="#da150e"/><stop offset="0.97" stop-color="#dc150e"/><stop offset="0.99" stop-color="#e3160d"/><stop offset="1" stop-color="#e9160d"/></linearGradient><linearGradient id="linear-gradient-2" x1="-97.36" y1="4.29" x2="-26.64" y2="121.9" gradientTransform="translate(263.27 109.23) rotate(96)" gradientUnits="userSpaceOnUse"><stop offset="0" stop-color="#da150e"/><stop offset="0" stop-color="#dc150e"/><stop offset="0" stop-color="#e5160d"/><stop offset="0" stop-color="#e9160d"/><stop offset="0.24" stop-color="#e6160e"/><stop offset="0.38" stop-color="#de1513"/><stop offset="0.51" stop-color="#cf151b"/><stop offset="0.62" stop-color="#bb1326"/><stop offset="0.72" stop-color="#a01234"/><stop offset="0.81" stop-color="#7f1046"/><stop offset="0.9" stop-color="#590e5b"/><stop offset="0.98" stop-color="#2d0c73"/><stop offset="1" stop-color="#200b7a"/></linearGradient></defs><rect class="cls-1" width="285" height="141.74"/><path class="cls-2" d="M246.87,96.65l-2.27-.39C205.47,89.34,162.21,71.19,134.39,50c-29-22.1-46-40.73-45.52-50H84.21c-.4,14.33,25.4,37.08,47.37,53.81C160,75.4,204,93.9,243.79,100.94l2.25.4c11.61,2.07,28.7,5.13,39,1.51V97.7C276.61,102,257.25,98.51,246.87,96.65ZM231.77,11c-4.64-4-9-7.67-13-11H211.2c5.38,4.25,11.13,9.05,17.52,14.62C256.6,38.85,276.85,65.53,285,81.08V72C274.31,54.56,254.65,30.91,231.77,11Zm36.67,63.18C264.49,60.11,238,25.9,202,0h-8.21c37.91,25.55,66.22,61.3,70.2,75.5.59,2,.46,3.11.28,3.4-6.52,11.29-58.8-5.62-90.51-21.76C153.35,46.77,136.86,32.46,128.5,17.9c-3.83-6.66-5.73-12.81-5.63-17.9h-4.71c-.1,5.94,2,12.84,6.3,20.31,9,15.55,25.69,30.14,47.14,41.07,16.59,8.44,85.9,38.51,96.66,19.92C269.24,79.58,269.31,77.25,268.44,74.18ZM205.29,15.77C193.94,8.27,182.57,2.89,172.85,0H145.54a18.49,18.49,0,0,0,1,12.25c3.59,10.92,17.23,25.87,36.23,38.41C202.16,63.45,235,74,241.18,64.35S224.43,28.39,205.29,15.77Zm17.45,31.57C219.86,52.68,203,49,192.8,43.48,179.14,36,170.41,25.59,173.3,20.25s16.27-3.61,29.93,3.87C213.27,29.61,225.61,42,222.74,47.34Z"/></svg>