<svg id="main" xmlns="http://www.w3.org/2000/svg" xmlns:xlink="http://www.w3.org/1999/xlink" viewBox="0 0 1100 180"><defs><style>.cls-1{fill:#fff;}.cls-2{fill:#200b7a;}.cls-3{fill:url(#New_Gradient_Swatch_5);}.cls-4{fill:#7f7f7f;}</style><linearGradient id="New_Gradient_Swatch_5" x1="592.11" y1="-6.97" x2="636.22" y2="66.4" gradientUnits="userSpaceOnUse"><stop offset="0" stop-color="#da150e"/><stop offset="0" stop-color="#dc150e"/><stop offset="0" stop-color="#e5160d"/><stop offset="0" stop-color="#e9160d"/><stop offset="0.24" stop-color="#e6160e"/><stop offset="0.38" stop-color="#de1513"/><stop offset="0.51" stop-color="#cf151b"/><stop offset="0.62" stop-color="#bb1326"/><stop offset="0.72" stop-color="#a01234"/><stop offset="0.81" stop-color="#7f1046"/><stop offset="0.9" stop-color="#590e5b"/><stop offset="0.98" stop-color="#2d0c73"/><stop offset="1" stop-color="#200b7a"/></linearGradient></defs><rect class="cls-1" y="0.59" width="1100" height="180"/><path class="cls-2" d="M483.47,114.52c-2.19,0-3.26-.75-3.26-2.3s1-2.29,3.26-2.29h9.07a3.73,3.73,0,0,0,2.57-1.15l1.24-1.12a3,3,0,0,0,.76-2.13v-7l-1.27,1.25c-1.6,1.57-2.9,2.34-4,2.34h-5.82a5,5,0,0,1-3.62-1.44l-3.09-2.73c-1.35-1.24-1.5-2.36-1.5-4.46V86.05c0-2.25.65-4.22,1.65-5l3.61-2.79a4.29,4.29,0,0,1,3-1.13h4.79c1.15,0,2.58.72,4.76,2.4l1.46,1.14v-.84a2.42,2.42,0,0,1,2.39-2.7c2,0,2.28,1.56,2.28,3.25v23.79c0,4.53-.42,5.3-2.37,6.94l-1.65,1.37c-2.15,1.76-3.35,2-6.09,2Zm3.3-32.82a2.27,2.27,0,0,0-1.53.49l-2.06,1.62c-.62.5-.67,1.58-.67,2.65v6.29c0,1.06.05,2.14.67,2.64L485.24,97a2.28,2.28,0,0,0,1.53.48h3.61a4.29,4.29,0,0,0,2.35-1.3l3.82-3.09a2.38,2.38,0,0,0,.56-1.73V87.83a2.42,2.42,0,0,0-.56-1.73L492.73,83a4.36,4.36,0,0,0-2.35-1.3Z"/><path class="cls-2" d="M483.47,114.12c-2.53,0-2.86-1-2.86-1.9s.34-1.9,2.86-1.9h9.07a4.07,4.07,0,0,0,2.82-1.24l1.25-1.12a3.38,3.38,0,0,0,.9-2.43v-8l-1.94,1.91c-1.51,1.48-2.75,2.23-3.7,2.23h-5.82a4.54,4.54,0,0,1-3.35-1.33l-3.1-2.74c-1.23-1.13-1.36-2.14-1.36-4.16V86.05c0-2.1.6-4,1.49-4.69l3.61-2.79a3.91,3.91,0,0,1,2.76-1.06h4.79c1.06,0,2.41.7,4.52,2.32l2.1,1.64V79.82c0-1.12.52-2.31,2-2.31s1.89.78,1.89,2.86v23.79c0,4.39-.37,5.07-2.23,6.63l-1.65,1.37c-2.07,1.7-3.17,2-5.84,2Zm3.3-32.81a2.68,2.68,0,0,0-1.79.58l-2,1.61c-.76.61-.83,1.8-.83,3v6.29c0,1.16.07,2.34.82,3L485,97.33a2.65,2.65,0,0,0,1.77.57h3.61A4.63,4.63,0,0,0,493,96.51l3.81-3.09a2.75,2.75,0,0,0,.71-2V87.83a2.76,2.76,0,0,0-.7-2L493,82.69a4.62,4.62,0,0,0-2.6-1.38Z"/><path class="cls-2" d="M523.41,104.17c-.78,0-1.45-.81-1.95-1.51l-2.79-4.13-2.79,4.13c-.5.7-1.16,1.51-2,1.51H512c-1.41,0-1.77-1.12-2.19-2.41-.06-.19-2.57-7.64-2.59-7.72l0-.05-.52-13.52a3.78,3.78,0,0,1,.7-2.78,2.06,2.06,0,0,1,1.58-.57c2,0,2.29,1.7,2.34,3.36l.51,12.6,1.65,4.82,2.86-4.81v-4.5c0-1.52.26-3.26,2.33-3.26S521,87.07,521,88.59v4.5l2.86,4.81,1.65-4.82.51-12.6c.06-1.66.37-3.36,2.34-3.36a2.06,2.06,0,0,1,1.58.57,3.78,3.78,0,0,1,.7,2.78L530.13,94l-2.62,7.77c-.41,1.29-.77,2.41-2.19,2.41Z"/><path class="cls-2" d="M523.41,103.77c-.61,0-1.22-.76-1.62-1.34l-3.12-4.61-3.12,4.62c-.4.57-1,1.33-1.62,1.33H512c-1.07,0-1.37-.77-1.82-2.13-.06-.2-2.59-7.72-2.59-7.72l-.51-13.47a3.41,3.41,0,0,1,.58-2.48,1.72,1.72,0,0,1,1.3-.46c1.33,0,1.88.84,1.94,3l.52,12.66,1.95,5.69,3.34-5.64V88.59c0-2,.57-2.86,1.94-2.86s1.94.83,1.94,2.86V93.2L524,98.84l1.94-5.69.52-12.65c.07-2.15.61-3,1.94-3a1.7,1.7,0,0,1,1.3.46,3.42,3.42,0,0,1,.58,2.49l-.51,13.46s-2.53,7.52-2.59,7.72c-.44,1.36-.74,2.13-1.82,2.13Z"/><path class="cls-2" d="M544.49,104.17c-2.06,0-2.83,0-4.34-1.29L538,101.06c-2-1.73-2.48-2.84-2.48-5.37V86.31c0-2.54.36-4,2.37-5.73l1.76-1.47c2.34-2,3.48-2,5.37-2h4.53A7.05,7.05,0,0,1,555,78.86l2,1.57c2.13,1.67,2.52,3.41,2.52,6.23v3.91c0,2.72-.41,3.46-3.26,3.46h-16v1.76a2.49,2.49,0,0,0,.76,1.52l1.24,1.31c.75.8,1.85,1,3.4,1h10.61c2.22,0,3.26.73,3.26,2.3s-1.07,2.29-3.26,2.29Zm10.34-14.73V86.18a2.63,2.63,0,0,0-.66-2.21l-1.91-1.63a3.7,3.7,0,0,0-2.46-.64h-4.17a4.19,4.19,0,0,0-2.61.58l-1.7,1.22a2.35,2.35,0,0,0-1.09,2.35v3.59Z"/><path class="cls-2" d="M544.49,103.77c-2,0-2.69,0-4.08-1.19l-2.11-1.82c-1.88-1.65-2.34-2.65-2.34-5.07V86.31c0-2.46.32-3.82,2.23-5.42l1.75-1.47c2.23-1.91,3.26-1.91,5.12-1.91h4.53a6.63,6.63,0,0,1,5.13,1.66l2,1.58c2,1.57,2.37,3.16,2.37,5.91v3.91c0,2.52-.24,3.06-2.86,3.06H539.83v2.16a2.85,2.85,0,0,0,.89,1.8l1.22,1.31c.85.9,2,1.08,3.69,1.08h10.61c2.52,0,2.86,1,2.86,1.9s-.32,1.89-2.86,1.89Zm1.14-22.46a4.55,4.55,0,0,0-2.83.65l-1.71,1.22a2.72,2.72,0,0,0-1.26,2.67v4h15.4V86.18a3,3,0,0,0-.79-2.5L552.52,82a4,4,0,0,0-2.72-.73Z"/><path class="cls-2" d="M586.08,104.17c-2,0-2.29-1.8-2.34-3.16l-.51-15c-.1-2.82-.3-4.3-3.49-4.3h-1.65a3.15,3.15,0,0,0-1.62.48l-7.38,4.55V101c0,1.49-.27,3.21-2.34,3.21s-2.33-1.72-2.33-3.21V80.58c0-1.75.18-3.46,2.33-3.46s2.34,1.63,2.34,3.41v.89l.25-.13,4-2.57a8,8,0,0,1,4.2-1.6h3.66a6.19,6.19,0,0,1,4.5,1.74c2,1.69,2.06,3.55,2.14,5.9l.54,15.9a4.22,4.22,0,0,1-.71,2.94A2.09,2.09,0,0,1,586.08,104.17Z"/><path class="cls-2" d="M586.08,103.77c-1.3,0-1.88-.83-1.94-2.77l-.52-15c-.09-2.9-.34-4.67-3.88-4.67h-1.65a3.59,3.59,0,0,0-1.82.53l-7.58,4.67V101c0,2-.56,2.81-1.94,2.81s-1.93-.81-1.93-2.81V80.58c0-2,.31-3.07,1.93-3.07,1.42,0,1.94.82,1.94,3v1.54l.83-.43,4-2.59a7.68,7.68,0,0,1,4-1.54h3.66a5.77,5.77,0,0,1,4.24,1.65c1.87,1.58,1.93,3.28,2,5.62l.53,15.9a3.88,3.88,0,0,1-.59,2.64A1.69,1.69,0,0,1,586.08,103.77Z"/><path class="cls-3" d="M652.89,9.36C648.63,9,634.55,21,624.25,35.75a128,128,0,0,0-9,14.37c-1.48-3.39-4.21-8.85-10.63-17.79-10.18-14.18-23.16-24.12-28.35-21.71-7.89,3.66-2.51,32.83,3.4,47.23,2.79,6.8,7.38,16.83,15,25.32,5,5.57,9.37,8.32,13.21,8.32a7.8,7.8,0,0,0,3.18-.68c5.19-2.3,5.53-10.93,5.43-18.12a9.79,9.79,0,0,0,3.8,5.19c3,1.77,7.13,1,11.61-2.28,5.48-4,10.28-10.81,13.53-19.29,2.51-6.54,11-33.7,3.66-37a3.47,3.47,0,0,0-2.67.21c-6,2.41-21.35,17.69-29.26,36-.38-1.11-.73-2.18-1.08-3.14a120.59,120.59,0,0,1,9.58-15.58c10.89-15.54,24-26,27-25.64,4.13.4,3.39,10.67,3,15.61l-.06.86c-1.05,14.94-6.15,31.87-13,43.13-7.24,11.92-13.64,19-17.1,19V91.5c5.41,0,13.12-10.81,18.63-19.89,7-11.48,12.17-28.71,13.24-43.91l.06-.86C658,20.52,658.76,9.93,652.89,9.36ZM610.39,89.2c-3.72,1.65-8.53-.77-14.33-7.2-7.46-8.29-12-18.13-14.71-24.81-6.69-16.3-10-42.32-4.3-45a2.6,2.6,0,0,1,1.06-.2c4.34,0,15.08,7.43,25.07,21.33,6.56,9.14,9.19,14.56,10.6,17.84q.21.48.42,1c-.27.56-.55,1.12-.8,1.69-.09.18-.16.36-.24.55-4.78-13.53-19.61-31-27.8-34.66a5.09,5.09,0,0,0-4.09-.44A5.94,5.94,0,0,0,578.2,23c-2.61,6.94.52,21.74,5.1,31.21,2.33,4.84,6.18,11.33,9.52,14.93,5.75,6.2,10.81,9.64,14,9.64a3.5,3.5,0,0,0,1.5-.31,2.39,2.39,0,0,0,1.26-.87c1.27-1.58,1.69-4.8,1.28-9.6a10.43,10.43,0,0,0,1-2.26c.09-.33.18-.81.29-1.47.16-1,.41-2.4.85-4.1.4,1.36.68,2.38,1,3.71,0,0,.24,1,.65,2.37,0,1.21,0,2.65,0,4.26C614.86,77.11,615.05,87.14,610.39,89.2ZM589,52.29c-3.65-6.61-6-17.66-2.39-19.36s11.89,6.51,15.59,13.21c5,9,6,17.66,2.4,19.36S594,61.28,589,52.29Zm21.55,11c-.25-4.89-2.33-11.5-6-18.24-4.94-8.93-15.94-19.87-20.8-17.61s-1.67,17,3.19,25.81c5.27,9.53,12.22,16.44,17.29,17.76l0,.1a7.2,7.2,0,0,0,1.51.14,4.61,4.61,0,0,0,1.63-.26,5.77,5.77,0,0,0,1.94-1c.23,6-1.28,6.77-1.24,6.77h0l-.19,0-.17.09c-1.22.64-5.62-.4-13.51-8.91-3.2-3.44-7-9.93-9.23-14.5-4.32-9-7.45-23.41-5-29.84A4.26,4.26,0,0,1,582,21a3.67,3.67,0,0,1,2.63.43c8,3.57,23.16,21.77,27.24,34.81h0l.24.81A38.57,38.57,0,0,0,610.56,63.28Zm6.19.46a11.74,11.74,0,0,0,.24-1.29c.06-.39.13-.83.22-1.31.19.57.39,1.17.65,1.87,1,2.9,2.94,4.7,4.25,5.15a7.14,7.14,0,0,0,6-.51c3.95-1.78,9-7.48,13-15.09,4-7.78,6.68-20.48,2.82-22.43s-12.81,7.69-16.79,15.35c-4.62,8.91-6.21,17.52-4.18,21.06a1.46,1.46,0,0,1-.2-.05c-.77-.26-2.3-1.73-3.15-4.08-.46-1.27-.77-2.22-1.1-3.26-.12-.35-.24-.71-.36-1.1l0-.08c7.47-18.64,23-34.43,29-36.82a2.09,2.09,0,0,1,1.26-.24c4.49,2,.21,22.26-4.59,34.78-3.08,8-7.8,14.78-12.92,18.49-3.81,2.76-7.32,3.56-9.63,2.19-2.48-1.46-3.47-5.36-4.27-8.49-.18-.66-.34-1.3-.51-1.89A10.44,10.44,0,0,1,616.75,63.74Zm13.53-17.81c1.67-4,5.82-9.09,7.94-8.22s1.41,7.34-.27,11.37c-2.26,5.41-5.82,9.09-7.94,8.22S628,51.34,630.28,45.93Zm-14.73,10.2.51,1.51.12.38a21.78,21.78,0,0,0-.86,3.54c-.27-1-.57-2-1-3.41L614,57.08c.29-.78.61-1.6,1-2.44v0C615.21,55.1,615.38,55.61,615.55,56.13Z"/><path class="cls-4" d="M67.45,82.44v6.5H76.1v4.25H67.45V103h-6V78.23H77.82l-.61,4.21Z"/><path class="cls-4" d="M90.65,82.44v5.89h8.58v4.15H90.65v6.25H101V103H84.72V78.23H101l-.61,4.21Z"/><path class="cls-4" d="M119.46,97.66h-7.18L111,103h-6.22l7.58-24.75h7.18L127.11,103h-6.36Zm-6.26-4.29h5.29L116,82.91h-.18Z"/><path class="cls-4" d="M142.44,82.76V103h-5.93V82.76h-6.93V78.23h20.08l-.61,4.53Z"/><path class="cls-4" d="M153.85,94.69V78.23h6V92.44c0,4.47.47,6.75,3.29,6.75s3.29-2.28,3.29-6.75V78.23h6V94.69c0,5.07-3.08,8.9-9.26,8.9S153.85,100,153.85,94.69Z"/><path class="cls-4" d="M191.12,92.55,197.59,103h-6.65l-5.32-9.43h-1.68V103H178V78.23h7.82c6.76,0,10.22,2.39,10.22,7.53C196.05,89.3,193.87,91.44,191.12,92.55Zm-5.29-10.18h-1.89v7.11h2.14c2.51,0,3.86-1.11,3.86-3.72C189.94,83.41,188.55,82.37,185.83,82.37Z"/><path class="cls-4" d="M208.6,82.44v5.89h8.58v4.15H208.6v6.25h10.33V103H202.67V78.23h16.26l-.61,4.21Z"/><path class="cls-4" d="M233.44,103.59a13.93,13.93,0,0,1-9.9-3.58l3-3.32a9.76,9.76,0,0,0,6.68,2.5c2.43,0,4.07-1.1,4.07-3s-1-2.57-4.46-3.64c-5.69-1.79-7.87-4-7.87-7.75,0-4.57,4.22-7.21,9.37-7.21a12.32,12.32,0,0,1,8.82,3.21L240.38,84a8.75,8.75,0,0,0-5.58-2.07c-2.21,0-3.68.82-3.68,2.4s1.11,2.17,4.9,3.39c4.71,1.53,7.47,3.46,7.47,8S239.7,103.59,233.44,103.59Z"/><path class="cls-4" d="M264.83,89.62h5.43V94h-5.43v5.58h-4.76V94h-5.39V89.62h5.39V84.05h4.76Z"/><path class="cls-4" d="M285.84,83.8a72.33,72.33,0,0,1,.36,8.75L286,103H281l1.39-24.75h6.08L291,93.76h.14l2.54-15.53h6.07L301.17,103H296l-.28-10.54A61.68,61.68,0,0,1,296,83.8h-.14l-2.61,15h-4.47L286,83.8Z"/><path class="cls-4" d="M313,82.44v5.89h8.58v4.15H313v6.25H323.3V103H307V78.23H323.3l-.61,4.21Z"/><path class="cls-4" d="M341.17,82.76V103h-5.93V82.76h-6.93V78.23h20.08l-.61,4.53Z"/><path class="cls-4" d="M365.37,97.66h-7.18L356.9,103h-6.22l7.58-24.75h7.18L373,103h-6.36Zm-6.25-4.29h5.28l-2.53-10.46h-.18Z"/><path class="cls-4" d="M396.65,78.23H412.8v4.32h-5.11V98.62h5.11V103H396.65V98.62h5.11V82.55h-5.11Z"/><path class="cls-4" d="M430,103,423.7,83.76h-.14a55.8,55.8,0,0,1,.89,10V103h-5V78.23h7.39l6.11,19.25h.15a49,49,0,0,1-.9-9.86V78.23h5V103Z"/><path class="cls-4" d="M685,97.66h-7.19L676.55,103h-6.22l7.58-24.75h7.18L692.66,103H686.3Zm-6.26-4.29h5.29l-2.54-10.46h-.17Z"/><path class="cls-4" d="M698,94.69V78.23h6V92.44c0,4.47.46,6.75,3.28,6.75s3.29-2.28,3.29-6.75V78.23h6V94.69c0,5.07-3.07,8.9-9.26,8.9S698,100,698,94.69Z"/><path class="cls-4" d="M735.88,82.76V103H730V82.76H723V78.23H743.1l-.61,4.53Z"/><path class="cls-4" d="M758.68,103.59c-6.5,0-9.93-5-9.93-13,0-7.86,3.43-13,9.93-13s9.94,5,9.94,13C768.62,98.44,765.19,103.59,758.68,103.59Zm0-21.68c-2.75,0-3.86,2.6-3.86,8.68s1.15,8.67,3.86,8.67,3.86-2.68,3.86-8.67S761.44,81.91,758.68,81.91Z"/><path class="cls-4" d="M779.2,83.8a72.33,72.33,0,0,1,.36,8.75L779.38,103h-5.07l1.39-24.75h6.07l2.61,15.53h.15l2.53-15.53h6.08L794.53,103h-5.18l-.29-10.54a63.05,63.05,0,0,1,.33-8.64h-.15l-2.61,15h-4.46l-2.83-15Z"/><path class="cls-4" d="M813.69,97.66h-7.18L805.22,103H799l7.58-24.75h7.18L821.34,103H815Zm-6.25-4.29h5.29l-2.54-10.46H810Z"/><path class="cls-4" d="M838.82,82.76V103h-5.93V82.76H826V78.23H846l-.61,4.53Z"/><path class="cls-4" d="M853.55,78.23H869.7v4.32h-5.11V98.62h5.11V103H853.55V98.62h5.11V82.55h-5.11Z"/><path class="cls-4" d="M887.36,103.59c-6.51,0-9.94-5-9.94-13,0-7.86,3.43-13,9.94-13s9.93,5,9.93,13C897.29,98.44,893.86,103.59,887.36,103.59Zm0-21.68c-2.75,0-3.86,2.6-3.86,8.68s1.14,8.67,3.86,8.67,3.86-2.68,3.86-8.67S890.11,81.91,887.36,81.91Z"/><path class="cls-4" d="M914.81,103l-6.33-19.22h-.14a55.8,55.8,0,0,1,.89,10V103h-5V78.23h7.4l6.11,19.25h.15a49,49,0,0,1-.9-9.86V78.23h5V103Z"/><path class="cls-4" d="M956,103.59c-6.5,0-9.93-5-9.93-13,0-7.86,3.43-13,9.93-13s9.94,5,9.94,13C965.92,98.44,962.49,103.59,956,103.59Zm0-21.68c-2.75,0-3.85,2.6-3.85,8.68s1.14,8.67,3.85,8.67,3.86-2.68,3.86-8.67S958.74,81.91,956,81.91Z"/><path class="cls-4" d="M972.46,94.69V78.23h6V92.44c0,4.47.47,6.75,3.29,6.75S985,96.91,985,92.44V78.23h6V94.69c0,5.07-3.07,8.9-9.25,8.9S972.46,100,972.46,94.69Z"/><path class="cls-4" d="M1010.38,82.76V103h-5.93V82.76h-6.93V78.23h20.08l-.6,4.53Z"/></svg>