<svg id="Layer_1" data-name="Layer 1" xmlns="http://www.w3.org/2000/svg" xmlns:xlink="http://www.w3.org/1999/xlink" viewBox="0 0 1345 820"><defs><style>.cls-1{fill:url(#linear-gradient);}.cls-2{fill:url(#linear-gradient-2);}</style><linearGradient id="linear-gradient" x1="-108.51" y1="735.31" x2="1397.01" y2="108.23" gradientUnits="userSpaceOnUse"><stop offset="0.43" stop-color="#200b7a"/><stop offset="0.49" stop-color="#250b77"/><stop offset="0.57" stop-color="#350c6e"/><stop offset="0.65" stop-color="#4f0e5f"/><stop offset="0.73" stop-color="#730f4a"/><stop offset="0.83" stop-color="#a1122f"/><stop offset="0.92" stop-color="#d9150f"/><stop offset="0.92" stop-color="#da150e"/><stop offset="0.97" stop-color="#dc150e"/><stop offset="0.99" stop-color="#e3160d"/><stop offset="1" stop-color="#e9160d"/></linearGradient><linearGradient id="linear-gradient-2" x1="6087.8" y1="-1698.23" x2="6408.8" y2="-1164.33" gradientTransform="translate(318.15 -6161.32) rotate(96)" gradientUnits="userSpaceOnUse"><stop offset="0" stop-color="#da150e"/><stop offset="0" stop-color="#dc150e"/><stop offset="0" stop-color="#e5160d"/><stop offset="0" stop-color="#e9160d"/><stop offset="0.24" stop-color="#e6160e"/><stop offset="0.38" stop-color="#de1513"/><stop offset="0.51" stop-color="#cf151b"/><stop offset="0.62" stop-color="#bb1326"/><stop offset="0.72" stop-color="#a01234"/><stop offset="0.81" stop-color="#7f1046"/><stop offset="0.9" stop-color="#590e5b"/><stop offset="0.98" stop-color="#2d0c73"/><stop offset="1" stop-color="#200b7a"/></linearGradient></defs><rect class="cls-1" width="1345" height="820"/><path class="cls-2" d="M1096.27,22.58Q1081.6,10.7,1067,0h-263c.15.43.3.82.44,1.15,17.82,66.5,85.59,157.53,180,233.91,96.36,77.88,259.31,142,290.2,83.36C1305.45,259.66,1191.35,99.44,1096.27,22.58ZM1183,214.84c-14.32,32.52-98.27,10.34-148.73-23.52C966.36,145.85,923,82.39,937.36,49.87s80.81-22,148.68,23.56C1135.9,106.86,1197.21,182.26,1183,214.84ZM1156.43,0h-36.38c98,96.55,177,203.81,223.69,286.28V238.85C1298.75,166,1234,80.22,1156.43,0Zm-217,274.51c-101.15-63.15-183.06-150.29-224.59-239A361.43,361.43,0,0,1,700.3,0H675.14a386.07,386.07,0,0,0,19.59,50.24c44.47,94.69,127.62,183.53,234.18,250.1,65.41,40.79,295.83,164.58,414.83,157.29V429.15C1255.1,434.05,1064.85,352.8,939.4,274.51Zm363.43,240.61-11.28-2.37C1097.17,470.6,882.27,360.08,744.06,231,647.56,141,577.92,60.38,543.13,0H515.25C555.5,80.6,648.18,177.75,730.11,254.24c140.93,131.48,359.71,244.14,557.42,287l11.17,2.44c13.73,3,29,6.35,45,9.41v-29.4C1328.57,520.79,1314.55,517.69,1302.83,515.12ZM1233.84,0H1198q7.21,7.62,14.67,15.58a1746.59,1746.59,0,0,1,131.08,157.59V131.48C1309.86,86.74,1272.83,42.06,1233.84,0Z"/></svg>