<svg id="main" xmlns="http://www.w3.org/2000/svg" xmlns:xlink="http://www.w3.org/1999/xlink" viewBox="0 0 64 64"><defs><linearGradient id="linear-gradient" x1="22.52" y1="57.66" x2="40.73" y2="27.39" gradientTransform="matrix(1, 0, 0, -1, 0, 66)" gradientUnits="userSpaceOnUse"><stop offset="0" stop-color="#da150e"/><stop offset="0" stop-color="#dc150e"/><stop offset="0" stop-color="#e5160d"/><stop offset="0" stop-color="#e9160d"/><stop offset="0.24" stop-color="#e6160e"/><stop offset="0.38" stop-color="#de1513"/><stop offset="0.51" stop-color="#cf151b"/><stop offset="0.62" stop-color="#bb1326"/><stop offset="0.72" stop-color="#a01234"/><stop offset="0.81" stop-color="#7f1046"/><stop offset="0.9" stop-color="#590e5b"/><stop offset="0.98" stop-color="#2d0c73"/><stop offset="1" stop-color="#200b7a"/></linearGradient></defs><rect x="-18" y="-41" width="116" height="125" style="fill:none"/><rect x="11.82" y="7" width="40.36" height="50" style="fill:#fff"/><path d="M47.47,15c-1.73-.16-7.52,4.83-11.72,10.93a52.39,52.39,0,0,0-3.67,5.94,38.67,38.67,0,0,0-4.36-7.36c-4.16-5.87-9.48-10-11.6-9-3.23,1.51-1,13.59,1.39,19.55a35.9,35.9,0,0,0,6.16,10.48c2,2.31,3.83,3.45,5.41,3.45a3.35,3.35,0,0,0,1.25-.28c2.12-.95,2.26-4.52,2.23-7.5a3.89,3.89,0,0,0,1.55,2.14c1.26.74,2.91.41,4.74-.94a17.57,17.57,0,0,0,5.55-8c1-2.71,4.53-13.94,1.49-15.32a1.38,1.38,0,0,0-1.09.09c-2.51,1-8.78,7.31-12,14.88-.15-.46-.29-.9-.44-1.27a50.58,50.58,0,0,1,3.93-6.46c4.45-6.43,9.83-10.75,11-10.61,1.7.17,1.38,4.41,1.26,6.46v.36A43.47,43.47,0,0,1,43.3,40.4c-3,4.93-5.59,7.88-7,7.88V49c2.23,0,5.37-4.47,7.63-8.22a44.23,44.23,0,0,0,5.44-18.19v-.35C49.57,19.62,49.88,15.24,47.47,15ZM30.08,48.05c-1.53.68-3.5-.32-5.87-3a35.81,35.81,0,0,1-6-10.27c-2.73-6.75-4.12-17.52-1.76-18.62a1.07,1.07,0,0,1,.43-.09c1.78,0,6.19,3.08,10.26,8.87a38.34,38.34,0,0,1,4.35,7.39c.06.13.11.28.17.43s-.22.47-.32.7l-.1.23c-2-5.63-8-12.86-11.4-14.39a2.1,2.1,0,0,0-1.63-.17A2.48,2.48,0,0,0,17,20.63c-1.07,2.88.21,9,2.09,12.92a29,29,0,0,0,3.89,6.19c2.36,2.53,4.43,4,5.76,4a1.68,1.68,0,0,0,.62-.13,1.11,1.11,0,0,0,.51-.37c.51-.64.69-2,.53-4a3.91,3.91,0,0,0,.4-.94,4.25,4.25,0,0,0,.12-.62A16.39,16.39,0,0,1,31.23,36c.16.56.27,1,.4,1.54,0,0,.1.39.26,1a6.62,6.62,0,0,1,0,1.78C31.9,43,32,47.2,30.08,48.05ZM21.3,32.77c-1.49-2.74-2.51-7.31-1-8s4.87,2.69,6.39,5.46c2,3.73,2.51,7.31,1,8s-4.33-1.75-6.37-5.47Zm8.78,4.55a18.86,18.86,0,0,0-2.51-7.61c-2-3.68-6.52-8.22-8.52-7.28s-.67,7,1.26,10.68c2.16,4,5,6.8,7.08,7.35h0a3.11,3.11,0,0,0,.61,0,1.71,1.71,0,0,0,.67-.1,2.43,2.43,0,0,0,.79-.43c.1,2.53-.52,2.8-.51,2.8H28.8c-.5.26-2.29-.17-5.53-3.69a28.33,28.33,0,0,1-3.76-6c-1.77-3.7-3.05-9.69-2.06-12.35a1.79,1.79,0,0,1,.86-1.08,1.56,1.56,0,0,1,1.08.18c3.25,1.48,9.49,9,11.16,14.42h0l.1.34a16.37,16.37,0,0,0-.5,2.78Zm2.51.19a3.51,3.51,0,0,0,.1-.53,1.24,1.24,0,0,1,.09-.55c.08.24.16.49.26.77a3.55,3.55,0,0,0,1.84,2.12,2.92,2.92,0,0,0,2.51-.22c1.6-.73,3.69-3.09,5.3-6.24s2.74-8.48,1.16-9.29S38.6,26.75,37,29.9c-1.89,3.69-2.51,7.25-1.7,8.72h-.09a2.92,2.92,0,0,1-1.26-1.68c-.19-.53-.31-.93-.45-1.36a1.77,1.77,0,0,0-.14-.45h0c3.05-7.72,9.44-14.26,11.89-15.21.3-.13.46-.13.51-.1,1.84.84.09,9.21-1.88,14.39a17.13,17.13,0,0,1-5.28,7.61c-1.56,1.15-3,1.48-3.94.91s-1.43-2.22-1.76-3.51a3.27,3.27,0,0,0-.2-.79,4,4,0,0,1,0-.92Zm5.69-7.38c.67-1.63,2.38-3.8,3.25-3.39s.57,3-.12,4.7c-.92,2.24-2.38,3.8-3.25,3.41S37.3,32.38,38.28,30.13Zm-6,4.24.21.62v.15a8.27,8.27,0,0,0-.35,1.47l-.4-1.41-.14-.44c.13-.33.25-.66.42-1h0a3.87,3.87,0,0,0,.21.63Z" style="fill:url(#linear-gradient)"/></svg>