<svg id="Layer_1" data-name="Layer 1" xmlns="http://www.w3.org/2000/svg" xmlns:xlink="http://www.w3.org/1999/xlink" viewBox="0 0 90.99 90.99"><defs><style>.cls-1{fill:#fff;}.cls-2{fill:url(#linear-gradient);}</style><linearGradient id="linear-gradient" x1="27.14" y1="4.65" x2="62.37" y2="63.25" gradientUnits="userSpaceOnUse"><stop offset="0" stop-color="#da150e"/><stop offset="0" stop-color="#dc150e"/><stop offset="0" stop-color="#e5160d"/><stop offset="0" stop-color="#e9160d"/><stop offset="0.24" stop-color="#e6160e"/><stop offset="0.38" stop-color="#de1513"/><stop offset="0.51" stop-color="#cf151b"/><stop offset="0.62" stop-color="#bb1326"/><stop offset="0.72" stop-color="#a01234"/><stop offset="0.81" stop-color="#7f1046"/><stop offset="0.9" stop-color="#590e5b"/><stop offset="0.98" stop-color="#2d0c73"/><stop offset="1" stop-color="#200b7a"/></linearGradient></defs><rect class="cls-1" x="-17.98" y="-15.74" width="132.97" height="409.06"/><path class="cls-2" d="M75.69,17.69C72.29,17.37,61,27,52.81,38.77a104.41,104.41,0,0,0-7.17,11.48c-1.18-2.71-3.36-7.07-8.49-14.21C29,24.71,18.64,16.77,14.5,18.7c-6.3,2.92-2,26.22,2.72,37.73,2.23,5.43,5.9,13.44,12,20.22,4,4.45,7.49,6.65,10.55,6.65a6.28,6.28,0,0,0,2.55-.54c4.14-1.84,4.41-8.74,4.34-14.48a7.75,7.75,0,0,0,3,4.15c2.4,1.42,5.69.77,9.27-1.82C63.35,67.44,67.19,62,69.78,55.2c2-5.23,8.83-26.92,2.92-29.56a2.73,2.73,0,0,0-2.13.17c-4.82,1.92-17,14.13-23.37,28.72-.3-.89-.59-1.74-.87-2.51A96.57,96.57,0,0,1,54,39.57c8.7-12.41,19.2-20.74,21.57-20.48,3.3.32,2.71,8.52,2.42,12.47l0,.69C77.09,44.18,73,57.7,67.55,66.7,61.77,76.22,56.66,81.9,53.9,81.9v1.41c4.32,0,10.47-8.64,14.88-15.89,5.57-9.17,9.72-22.94,10.57-35.07l.05-.69C79.77,26.6,80.39,18.14,75.69,17.69ZM41.74,81.47c-3,1.32-6.82-.62-11.44-5.75-6-6.62-9.57-14.48-11.76-19.82-5.34-13-8-33.8-3.43-35.93a1.94,1.94,0,0,1,.84-.16c3.47,0,12.05,5.93,20,17,5.25,7.3,7.35,11.63,8.47,14.25.11.25.22.53.34.84-.22.44-.44.89-.65,1.34-.07.15-.12.3-.19.44C40.13,42.92,28.29,29,21.74,26a4,4,0,0,0-3.26-.35A4.73,4.73,0,0,0,16,28.56c-2.09,5.55.41,17.37,4.07,24.93C22,57.36,25,62.55,27.71,65.42c4.59,5,8.63,7.7,11.22,7.7a2.84,2.84,0,0,0,1.19-.24,1.92,1.92,0,0,0,1-.7c1-1.26,1.36-3.84,1-7.67a8.51,8.51,0,0,0,.8-1.8,11.22,11.22,0,0,0,.24-1.18,32.87,32.87,0,0,1,.68-3.27c.31,1.08.54,1.9.79,3,0,0,.19.77.51,1.89,0,1,0,2.12,0,3.41C45.31,71.81,45.47,79.82,41.74,81.47ZM24.66,52c-2.91-5.28-4.82-14.1-1.91-15.46s9.5,5.2,12.46,10.55c4,7.19,4.83,14.11,1.91,15.47S28.63,59.17,24.66,52Zm17.22,8.78C41.68,56.86,40,51.58,37,46.2,33.1,39.06,24.31,30.32,20.43,32.13S19.09,45.7,23,52.75c4.2,7.61,9.76,13.13,13.81,14.18l0,.08a5.09,5.09,0,0,0,1.21.11,3.53,3.53,0,0,0,1.31-.2,4.62,4.62,0,0,0,1.54-.83c.19,4.81-1,5.41-1,5.41h0l-.15,0-.14.07c-1,.51-4.48-.32-10.79-7.11a55.15,55.15,0,0,1-7.37-11.59c-3.46-7.15-6-18.7-4-23.84A3.42,3.42,0,0,1,19.06,27a2.91,2.91,0,0,1,2.09.35c6.36,2.85,18.51,17.39,21.77,27.81h0l.19.64A30.33,30.33,0,0,0,41.88,60.76Zm4.94.37a7.15,7.15,0,0,0,.19-1q.08-.47.18-1.05c.15.46.32.94.52,1.5a6.75,6.75,0,0,0,3.39,4.11,5.63,5.63,0,0,0,4.76-.41c3.16-1.42,7.21-6,10.36-12s5.34-16.36,2.26-17.92S58.25,40.42,55.07,46.55c-3.69,7.12-5,14-3.34,16.82l-.16,0a5.74,5.74,0,0,1-2.52-3.26c-.37-1-.61-1.77-.88-2.6l-.29-.88,0-.07c6-14.89,18.41-27.5,23.2-29.41a1.64,1.64,0,0,1,1-.19c3.59,1.6.17,17.78-3.66,27.78C66,61.13,62.22,66.51,58.12,69.47c-3,2.21-5.84,2.84-7.69,1.75S47.66,66.94,47,64.44c-.14-.53-.27-1-.4-1.51A7.72,7.72,0,0,1,46.82,61.13ZM57.63,46.91C59,43.73,62.28,39.64,64,40.34s1.13,5.86-.21,9.08C62,53.74,59.11,56.68,57.42,56S55.82,51.23,57.63,46.91ZM45.87,55.05l.4,1.21c0,.1.07.2.1.3a17.59,17.59,0,0,0-.69,2.83c-.21-.8-.45-1.6-.78-2.72l-.25-.85c.23-.63.49-1.28.79-2,0,0,0,0,0,0Z"/></svg>