<?xml version="1.0" encoding="utf-8"?>
<!-- Generator: Adobe Illustrator 26.0.2, SVG Export Plug-In . SVG Version: 6.00 Build 0)  -->
<svg version="1.1" id="main" xmlns="http://www.w3.org/2000/svg" xmlns:xlink="http://www.w3.org/1999/xlink" x="0px" y="0px"
	 viewBox="0 0 64 64" style="enable-background:new 0 0 64 64;" xml:space="preserve">
<style type="text/css">
	.st0{fill:none;}
	.st1{fill:#FFFFFF;}
</style>
<rect x="-18" y="-41" class="st0" width="116" height="125"/>
<path class="st1" d="M51.9,10.4c-2.3-0.3-9.6,6.2-15.1,13.9c-1.8,2.4-3.3,4.9-4.7,7.6c-0.8-1.8-2.2-4.6-5.6-9.4
	C21,15.1,14.2,9.8,11.5,11.1c-4.1,1.9-1.3,17.2,1.8,24.8c1.4,3.6,3.8,8.9,8,13.3c2.6,3,4.9,4.4,6.9,4.4c0.6,0,1.2-0.1,1.7-0.4
	c2.7-1.3,3-5.8,2.8-9.5c0.4,1.2,1,2.2,2.1,2.7c1.5,0.9,3.7,0.5,6.2-1.2c2.8-2.1,5.4-5.6,7.1-10.1c1.3-3.5,5.8-17.7,1.9-19.4
	c-0.5-0.1-0.9-0.1-1.4,0.1c-3.2,1.3-11.2,9.2-15.4,18.9c-0.3-0.6-0.4-1.2-0.5-1.7c1.4-2.8,3.1-5.6,5-8.2
	c5.8-8.2,12.6-13.6,14.1-13.5c2.2,0.3,1.8,5.6,1.5,8.2v0.5c-0.5,7.8-3.2,16.7-6.8,22.6c-3.8,6.3-7.2,10-9,10v0.9
	c2.8,0,6.9-5.6,9.8-10.4c3.7-6,6.4-15.1,6.9-23.1v-0.4C54.6,16.3,55,10.7,51.9,10.4z M29.6,52.4c-1.9,0.9-4.5-0.4-7.6-3.7
	c-4-4.4-6.3-9.5-7.7-13c-3.5-8.6-5.3-22.2-2.3-23.6c0.1-0.1,0.4-0.1,0.5-0.1c2.3,0,8,3.8,13.2,11.2c3.5,4.7,4.9,7.7,5.5,9.4
	c0.1,0.1,0.1,0.4,0.3,0.5c-0.1,0.3-0.3,0.6-0.4,0.9c0,0.1-0.1,0.1-0.1,0.3C28.4,27.1,20.7,17.9,16.4,16c-0.9-0.4-1.5-0.5-2.2-0.3
	c-0.8,0.4-1.4,1-1.7,1.9c-1.4,3.6,0.3,11.4,2.7,16.4c1.3,2.6,3.2,5.9,5,7.8c3.1,3.2,5.6,5,7.3,5c0.3,0,0.5,0,0.8-0.1
	c0.3-0.1,0.5-0.3,0.6-0.5c0.6-0.8,0.9-2.6,0.6-5c0.3-0.4,0.4-0.8,0.5-1.2c0.1-0.3,0.1-0.5,0.1-0.8c0.1-0.5,0.3-1.3,0.4-2.2
	c0.3,0.6,0.4,1.3,0.5,1.9c0,0,0.1,0.5,0.4,1.3v2.2C31.9,46,32,51.2,29.6,52.4z M18.3,33c-1.9-3.5-3.2-9.2-1.3-10.1s6.3,3.5,8.2,6.9
	c2.6,4.7,3.2,9.2,1.3,10.1S21,37.6,18.3,33z M29.7,38.8c-0.1-2.6-1.3-6-3.2-9.6c-2.6-4.7-8.3-10.4-10.9-9.2c-2.6,1.2-0.9,9,1.7,13.6
	c2.8,5,6.4,8.6,9.1,9.4l0,0c0.3,0,0.5,0.1,0.8,0.1c0.3,0,0.6,0,0.9-0.1c0.4-0.1,0.8-0.3,1-0.5c0.1,3.2-0.6,3.6-0.6,3.6h-0.3H28
	c-0.6,0.4-3-0.3-7.1-4.6c-1.7-1.8-3.7-5.3-4.9-7.6c-2.3-4.7-4-12.3-2.7-15.7c0.1-0.6,0.5-1,1.2-1.4c0.3-0.1,0.8,0,1.4,0.3
	c4.2,1.9,12.2,11.4,14.2,18.2l0,0l0.1,0.4C30.1,36.5,29.8,37.6,29.7,38.8L29.7,38.8z M32.9,39.1c0-0.3,0.1-0.4,0.1-0.6
	c0-0.3,0.1-0.4,0.1-0.6c0.1,0.3,0.3,0.6,0.4,1c0.5,1.5,1.5,2.4,2.2,2.7c1,0.4,2.2,0.3,3.1-0.3c2.1-0.9,4.7-4,6.8-8
	c2.1-4.1,3.5-10.8,1.5-11.8c-2.1-1-6.7,4-8.9,8.1c-2.4,4.7-3.2,9.2-2.2,11H36c-0.4-0.1-1.3-0.9-1.7-2.2c-0.3-0.6-0.4-1.2-0.6-1.7
	l-0.1-0.5l0,0c4-10,12.2-18.3,15.3-19.6c0.3-0.1,0.4-0.1,0.6-0.1c2.3,1,0.1,11.7-2.4,18.2c-1.7,4.2-4.1,7.8-6.8,9.8
	c-2.1,1.4-3.8,1.9-5,1.2c-1.3-0.8-1.8-2.8-2.3-4.5c-0.1-0.4-0.1-0.6-0.3-1C32.8,39.8,32.8,39.4,32.9,39.1L32.9,39.1z M40,29.7
	c0.9-2.1,3.1-4.7,4.1-4.4c1.2,0.4,0.8,3.8-0.1,6c-1.2,2.8-3.1,4.7-4.1,4.4C38.8,35.2,38.8,32.5,40,29.7L40,29.7z M32.3,35.1l0.3,0.8
	l0.1,0.3c-0.3,0.6-0.4,1.3-0.5,1.8c-0.1-0.5-0.3-1-0.5-1.8l-0.1-0.5c0.1-0.4,0.4-0.9,0.5-1.3l0,0L32.3,35.1z"/>
</svg>
