<?xml version="1.0" encoding="utf-8"?>
<!-- Generator: Adobe Illustrator 26.0.2, SVG Export Plug-In . SVG Version: 6.00 Build 0)  -->
<svg version="1.1" id="main" xmlns="http://www.w3.org/2000/svg" xmlns:xlink="http://www.w3.org/1999/xlink" x="0px" y="0px"
	 viewBox="0 0 64 64" style="enable-background:new 0 0 64 64;" xml:space="preserve">
<style type="text/css">
	.st0{fill:none;}
	.st1{fill:url(#SVGID_1_);}
</style>
<rect x="-18" y="-41" class="st0" width="116" height="125"/>
<linearGradient id="SVGID_1_" gradientUnits="userSpaceOnUse" x1="19.8965" y1="1499.5775" x2="43.1115" y2="1460.9608" gradientTransform="matrix(1 0 0 -1 0 1501.3601)">
	<stop  offset="0" style="stop-color:#DA150E"/>
	<stop  offset="0" style="stop-color:#DC150E"/>
	<stop  offset="0" style="stop-color:#E5160D"/>
	<stop  offset="0" style="stop-color:#E9160D"/>
	<stop  offset="0.24" style="stop-color:#E6160E"/>
	<stop  offset="0.38" style="stop-color:#DE1513"/>
	<stop  offset="0.51" style="stop-color:#CF151B"/>
	<stop  offset="0.62" style="stop-color:#BB1326"/>
	<stop  offset="0.72" style="stop-color:#A01234"/>
	<stop  offset="0.81" style="stop-color:#7F1046"/>
	<stop  offset="0.9" style="stop-color:#590E5B"/>
	<stop  offset="0.98" style="stop-color:#2D0C73"/>
	<stop  offset="1" style="stop-color:#200B7A"/>
</linearGradient>
<path class="st1" d="M51.9,10.4c-2.2-0.2-9.7,6.2-15.1,13.9c-1.7,2.4-3.3,4.9-4.7,7.6c-0.8-1.8-2.2-4.7-5.6-9.4
	C21.1,15,14.3,9.8,11.6,11.1c-4.2,1.9-1.3,17.3,1.8,24.9c1.5,3.6,3.9,8.9,7.9,13.3c2.6,2.9,4.9,4.4,7,4.4c0.6,0,1.2-0.1,1.7-0.4
	c2.7-1.2,2.9-5.8,2.9-9.6c0.4,1.1,1,2.2,2,2.7c1.6,0.9,3.7,0.5,6.1-1.2c2.9-2.1,5.4-5.7,7.1-10.1c1.3-3.4,5.8-17.7,1.9-19.5
	c-0.5-0.2-1-0.1-1.4,0.1C45.4,17,37.3,25,33.1,34.6c-0.2-0.6-0.4-1.1-0.6-1.7c1.5-2.9,3.2-5.6,5-8.2c5.7-8.2,12.6-13.7,14.2-13.5
	c2.2,0.2,1.8,5.6,1.6,8.2l0,0.5c-0.6,7.9-3.2,16.8-6.8,22.7c-3.8,6.3-7.2,10-9,10v0.9c2.9,0,6.9-5.7,9.8-10.5c3.7-6,6.4-15.1,7-23.1
	l0-0.4C54.6,16.3,55,10.7,51.9,10.4z M29.5,52.4c-2,0.9-4.5-0.4-7.5-3.8c-3.9-4.4-6.3-9.6-7.7-13.1C10.7,27,9,13.3,12,11.9
	c0.2-0.1,0.4-0.1,0.6-0.1c2.3,0,7.9,3.9,13.2,11.2c3.4,4.8,4.8,7.7,5.6,9.4c0.1,0.2,0.1,0.4,0.2,0.5c-0.1,0.3-0.3,0.6-0.4,0.9
	C31.1,33.9,31,34,31,34.1C28.5,27,20.7,17.8,16.4,15.9c-0.9-0.4-1.6-0.5-2.1-0.2c-0.8,0.4-1.4,1.1-1.6,1.9
	C11.2,21.2,12.9,29,15.3,34c1.2,2.6,3.3,6,5,7.9c3,3.3,5.7,5.1,7.4,5.1c0.3,0,0.5-0.1,0.8-0.2c0.3-0.1,0.5-0.2,0.7-0.5
	c0.7-0.8,0.9-2.5,0.7-5.1c0.2-0.4,0.4-0.8,0.5-1.2c0.1-0.3,0.1-0.5,0.1-0.8c0.1-0.5,0.2-1.3,0.4-2.1c0.2,0.7,0.4,1.2,0.5,2
	c0,0,0.1,0.5,0.4,1.2v2.2C31.9,46,32,51.3,29.5,52.4z M18.3,33c-1.9-3.5-3.2-9.3-1.3-10.2s6.3,3.4,8.2,7c2.6,4.7,3.2,9.3,1.3,10.2
	C24.6,40.8,20.9,37.7,18.3,33z M29.6,38.8c-0.1-2.6-1.2-6-3.2-9.6c-2.6-4.7-8.4-10.5-10.9-9.3c-2.6,1.2-0.9,9,1.7,13.6
	c2.8,5,6.4,8.7,9.1,9.3v0.1c0.3,0.1,0.5,0.1,0.8,0.1c0.3,0,0.6,0,0.9-0.1c0.4-0.1,0.7-0.3,1-0.5c0.1,3.2-0.7,3.6-0.7,3.6h-0.1
	l-0.1,0.1c-0.6,0.3-2.9-0.2-7.1-4.7c-1.7-1.8-3.7-5.2-4.9-7.6c-2.3-4.7-3.9-12.3-2.6-15.7c0.2-0.6,0.6-1.1,1.1-1.4
	c0.3-0.1,0.8,0,1.4,0.2c4.2,1.9,12.2,11.5,14.3,18.3h0l0.1,0.4C30.1,36.5,29.8,37.6,29.6,38.8L29.6,38.8z M32.9,39
	c0.1-0.2,0.1-0.4,0.1-0.7c0-0.2,0.1-0.4,0.1-0.7c0.1,0.3,0.2,0.6,0.4,1c0.6,1.5,1.5,2.5,2.2,2.7c1,0.4,2.2,0.3,3.1-0.3
	c2.1-0.9,4.7-3.9,6.8-7.9c2.1-4.1,3.5-10.8,1.5-11.8c-2-1-6.8,4-8.8,8.1c-2.4,4.7-3.3,9.2-2.2,11.1l-0.1,0c-0.4-0.1-1.2-0.9-1.7-2.1
	c-0.2-0.7-0.4-1.2-0.6-1.7L33.6,36c0,0,0,0,0,0c3.9-9.8,12.1-18.1,15.3-19.4c0.2-0.1,0.4-0.1,0.7-0.1c2.4,1.1,0.1,11.7-2.4,18.3
	c-1.6,4.2-4.1,7.8-6.8,9.7c-2,1.5-3.8,1.9-5.1,1.2c-1.3-0.8-1.8-2.8-2.3-4.5c-0.1-0.4-0.2-0.7-0.3-1C32.8,39.8,32.8,39.4,32.9,39
	L32.9,39z M40,29.6c0.9-2.1,3.1-4.8,4.2-4.3c1.1,0.4,0.7,3.9-0.1,6c-1.2,2.9-3.1,4.8-4.2,4.3C38.8,35.2,38.8,32.5,40,29.6L40,29.6z
	 M32.3,35l0.3,0.8l0.1,0.2c-0.2,0.6-0.4,1.2-0.5,1.9c-0.1-0.5-0.3-1.1-0.5-1.8l-0.2-0.6c0.1-0.4,0.3-0.8,0.5-1.3v0L32.3,35z"/>
</svg>
